<svg width="24" height="24" viewBox="0 0 24 24" fill="none" xmlns="http://www.w3.org/2000/svg">
<g clip-path="url(#clip0_38_881)">
<path d="M1.3125 24H18.5625C18.7687 24 18.9375 23.8312 18.9375 23.625C18.9375 23.4188 18.7687 23.25 18.5625 23.25H17.4375V22.725C17.175 22.575 16.9125 22.4062 16.6875 22.2V23.25H15.1875V0.8625L16.3875 1.93125C16.5375 2.0625 16.6875 2.41875 16.6875 2.625V15.675C16.9125 15.4688 17.175 15.3 17.4375 15.15V2.625C17.4375 2.2125 17.1938 1.65 16.875 1.36875L15.6188 0.24375C15.4313 0.075 15.1687 0 14.925 0C14.7375 0 14.5688 0.0375 14.4188 0.13125L12.0938 1.48125C11.7375 1.6875 11.4375 2.19375 11.4375 2.60625V23.2313H10.6875V14.8125C10.6875 14.4 10.3875 13.8938 10.0312 13.6875L8.55 12.9C8.3625 12.7875 8.1 12.75 7.8375 12.75C7.6125 12.75 7.3875 12.7875 7.21875 12.8812L5.4 13.7438C5.025 13.9125 4.725 14.4 4.725 14.8312V23.2687H3.225V21.6375L3.975 21.2438V20.8125L3.225 21.2062V19.3875L3.975 18.9938V18.5625L3.225 18.9562V17.1375L3.975 16.7438V16.3125L3.225 16.7062V14.8875L3.975 14.4938V14.3438C3.975 14.25 3.99375 14.1375 4.03125 14.0438L3.1875 14.4562V12.6375L6 11.1562V12.6188L6.75 12.2625V2.53125L7.7625 3.43125C7.9125 3.5625 8.0625 3.91875 8.0625 4.10625V11.9438C8.25 11.9625 8.41875 12.0188 8.55 12.0938L8.8125 12.225V4.10625C8.8125 3.69375 8.56875 3.13125 8.25 2.86875L6.99375 1.7625C6.80625 1.59375 6.54375 1.51875 6.3 1.51875C6.1125 1.51875 5.94375 1.55625 5.79375 1.65L3.09375 3C2.7375 3.20625 2.4375 3.7125 2.4375 4.125V23.25H1.3125C1.10625 23.25 0.9375 23.4188 0.9375 23.625C0.9375 23.8312 1.10625 24 1.3125 24ZM12.1875 2.625C12.1875 2.475 12.3375 2.2125 12.4688 2.1375L14.4375 0.975V2.7L12.1875 3.975V2.625ZM12.1875 4.40625L14.4375 3.13125V4.95L12.1875 6.225V4.40625ZM12.1875 6.65625L14.4375 5.38125V7.2L12.1875 8.475V6.65625ZM12.1875 8.90625L14.4375 7.63125V9.45L12.1875 10.725V8.90625ZM12.1875 11.1562L14.4375 9.88125V11.7L12.1875 12.975V11.1562ZM12.1875 13.4062L14.4375 12.1312V13.95L12.1875 15.225V13.4062ZM12.1875 15.6562L14.4375 14.3812V16.2L12.1875 17.475V15.6562ZM12.1875 17.9062L14.4375 16.6312V18.45L12.1875 19.725V17.9062ZM12.1875 20.1562L14.4375 18.8812V20.7L12.1875 21.975V20.1562ZM12.1875 22.4062L14.4375 21.1312V23.25H12.1875V22.4062ZM8.25 13.6125L9.675 14.3625C9.80625 14.4187 9.9375 14.6812 9.9375 14.8125V23.25H8.25V13.6125ZM5.4375 14.8125C5.4375 14.6812 5.56875 14.4563 5.68125 14.4L7.5 13.5375V23.25H5.4375V14.8125ZM3.1875 4.10625C3.1875 3.975 3.31875 3.73125 3.45 3.6375L6 2.3625V3.975L3.1875 5.45625V4.10625ZM3.1875 5.86875L6 4.3875V6.20625L3.1875 7.6875V5.86875ZM3.1875 8.11875L6 6.6375V8.45625L3.1875 9.9375V8.11875ZM3.1875 10.3687L6 8.8875V10.7062L3.1875 12.1875V10.3687Z" fill="#1C6EBB"/>
<path d="M15.9375 18.9375C15.9375 20.9062 17.5312 22.5 19.5 22.5C21.4688 22.5 23.0625 20.9062 23.0625 18.9375C23.0625 16.9688 21.4688 15.375 19.5 15.375C17.5312 15.375 15.9375 16.9688 15.9375 18.9375ZM19.5 16.125C21.0563 16.125 22.3125 17.3812 22.3125 18.9375C22.3125 20.4938 21.0563 21.75 19.5 21.75C17.9437 21.75 16.6875 20.4938 16.6875 18.9375C16.6875 17.3812 17.9437 16.125 19.5 16.125Z" fill="#1C6EBB"/>
</g>
<defs>
<clipPath id="clip0_38_881">
<rect width="24" height="24" fill="white"/>
</clipPath>
</defs>
</svg>
