<svg width="24" height="24" viewBox="0 0 24 24" fill="none" xmlns="http://www.w3.org/2000/svg">
<g clip-path="url(#clip0_64_1127)">
<mask id="mask0_64_1127" style="mask-type:luminance" maskUnits="userSpaceOnUse" x="0" y="0" width="24" height="24">
<path d="M24 0H0V24H24V0Z" fill="white"/>
<path d="M5.85937 8.90625C5.34159 8.90625 4.92188 9.32597 4.92188 9.84375C4.92188 10.3615 5.34159 10.7812 5.85937 10.7812C6.37716 10.7812 6.79687 10.3615 6.79687 9.84375C6.79687 9.32597 6.37716 8.90625 5.85937 8.90625Z" fill="white"/>
<path d="M9.9375 8.90625C9.41972 8.90625 9 9.32597 9 9.84375C9 10.3615 9.41972 10.7812 9.9375 10.7812C10.4553 10.7812 10.875 10.3615 10.875 9.84375C10.875 9.32597 10.4553 8.90625 9.9375 8.90625Z" fill="white"/>
<path d="M14.0156 8.90625C13.4978 8.90625 13.0781 9.32597 13.0781 9.84375C13.0781 10.3615 13.4978 10.7812 14.0156 10.7812C14.5334 10.7812 14.9531 10.3615 14.9531 9.84375C14.9531 9.32597 14.5334 8.90625 14.0156 8.90625Z" fill="white"/>
<path d="M18.0937 8.90625C17.576 8.90625 17.1562 9.32597 17.1562 9.84375C17.1562 10.3615 17.576 10.7812 18.0937 10.7812C18.6115 10.7812 19.0312 10.3615 19.0312 9.84375C19.0312 9.32597 18.6115 8.90625 18.0937 8.90625Z" fill="white"/>
<path d="M6.79687 13.9219C6.79687 13.4041 6.37716 12.9844 5.85937 12.9844C5.34159 12.9844 4.92188 13.4041 4.92188 13.9219C4.92188 14.4397 5.34159 14.8594 5.85937 14.8594C6.37716 14.8594 6.79687 14.4397 6.79687 13.9219Z" fill="white"/>
<path d="M6.79687 18C6.79687 17.4822 6.37716 17.0625 5.85937 17.0625C5.34159 17.0625 4.92188 17.4822 4.92188 18C4.92188 18.5178 5.34159 18.9375 5.85937 18.9375C6.37716 18.9375 6.79687 18.5178 6.79687 18Z" fill="white"/>
<path d="M10.875 13.9219C10.875 13.4041 10.4553 12.9844 9.9375 12.9844C9.41972 12.9844 9 13.4041 9 13.9219C9 14.4397 9.41972 14.8594 9.9375 14.8594C10.4553 14.8594 10.875 14.4397 10.875 13.9219Z" fill="white"/>
<path d="M10.875 18C10.875 17.4822 10.4553 17.0625 9.9375 17.0625C9.41972 17.0625 9 17.4822 9 18C9 18.5178 9.41972 18.9375 9.9375 18.9375C10.4553 18.9375 10.875 18.5178 10.875 18Z" fill="white"/>
<path d="M9.9375 8.90625C9.41972 8.90625 9 9.32597 9 9.84375C9 10.3615 9.41972 10.7812 9.9375 10.7812C10.4553 10.7812 10.875 10.3615 10.875 9.84375C10.875 9.32597 10.4553 8.90625 9.9375 8.90625Z" fill="white"/>
<path d="M10.875 13.9219C10.875 13.4041 10.4553 12.9844 9.9375 12.9844C9.41972 12.9844 9 13.4041 9 13.9219C9 14.4397 9.41972 14.8594 9.9375 14.8594C10.4553 14.8594 10.875 14.4397 10.875 13.9219Z" fill="white"/>
<path d="M10.875 18C10.875 17.4822 10.4553 17.0625 9.9375 17.0625C9.41972 17.0625 9 17.4822 9 18C9 18.5178 9.41972 18.9375 9.9375 18.9375C10.4553 18.9375 10.875 18.5178 10.875 18Z" fill="white"/>
<path d="M14.9531 13.9219C14.9531 13.4041 14.5334 12.9844 14.0156 12.9844C13.4978 12.9844 13.0781 13.4041 13.0781 13.9219C13.0781 14.4397 13.4978 14.8594 14.0156 14.8594C14.5334 14.8594 14.9531 14.4397 14.9531 13.9219Z" fill="white"/>
<path d="M19.0312 13.9219C19.0312 13.4041 18.6115 12.9844 18.0937 12.9844C17.576 12.9844 17.1562 13.4041 17.1562 13.9219C17.1562 14.4397 17.576 14.8594 18.0937 14.8594C18.6115 14.8594 19.0312 14.4397 19.0312 13.9219Z" fill="white"/>
</mask>
<g mask="url(#mask0_64_1127)">
<mask id="mask1_64_1127" style="mask-type:luminance" maskUnits="userSpaceOnUse" x="0" y="0" width="24" height="24">
<path d="M0 1.90735e-06H24V24H0V1.90735e-06Z" fill="white"/>
</mask>
<g mask="url(#mask1_64_1127)">
<path d="M11.625 23.0623H3.75C2.1967 23.0623 0.9375 21.8031 0.9375 20.2498V5.62476C0.9375 4.07146 2.1967 2.81226 3.75 2.81226H20.25C21.8033 2.81226 23.0625 4.07146 23.0625 5.62476V12.281" stroke="#1C6EBB" stroke-width="1.95312" stroke-miterlimit="10" stroke-linecap="round" stroke-linejoin="round"/>
<path d="M5.85937 8.90625C5.34159 8.90625 4.92188 9.32597 4.92188 9.84375C4.92188 10.3615 5.34159 10.7812 5.85937 10.7812C6.37716 10.7812 6.79687 10.3615 6.79687 9.84375C6.79687 9.32597 6.37716 8.90625 5.85937 8.90625Z" fill="#1C6EBB"/>
<path d="M9.9375 8.90625C9.41972 8.90625 9 9.32597 9 9.84375C9 10.3615 9.41972 10.7812 9.9375 10.7812C10.4553 10.7812 10.875 10.3615 10.875 9.84375C10.875 9.32597 10.4553 8.90625 9.9375 8.90625Z" fill="#1C6EBB"/>
<path d="M14.0156 8.90625C13.4978 8.90625 13.0781 9.32597 13.0781 9.84375C13.0781 10.3615 13.4978 10.7812 14.0156 10.7812C14.5334 10.7812 14.9531 10.3615 14.9531 9.84375C14.9531 9.32597 14.5334 8.90625 14.0156 8.90625Z" fill="#1C6EBB"/>
<path d="M18.0937 8.90625C17.576 8.90625 17.1562 9.32597 17.1562 9.84375C17.1562 10.3615 17.576 10.7812 18.0937 10.7812C18.6115 10.7812 19.0312 10.3615 19.0312 9.84375C19.0312 9.32597 18.6115 8.90625 18.0937 8.90625Z" fill="#1C6EBB"/>
<path d="M6.79687 13.9219C6.79687 13.4041 6.37716 12.9844 5.85937 12.9844C5.34159 12.9844 4.92188 13.4041 4.92188 13.9219C4.92188 14.4397 5.34159 14.8594 5.85937 14.8594C6.37716 14.8594 6.79687 14.4397 6.79687 13.9219Z" fill="#1C6EBB"/>
<path d="M6.79687 18C6.79687 17.4822 6.37716 17.0625 5.85937 17.0625C5.34159 17.0625 4.92188 17.4822 4.92188 18C4.92188 18.5178 5.34159 18.9375 5.85937 18.9375C6.37716 18.9375 6.79687 18.5178 6.79687 18Z" fill="#1C6EBB"/>
<path d="M10.875 13.9219C10.875 13.4041 10.4553 12.9844 9.9375 12.9844C9.41972 12.9844 9 13.4041 9 13.9219C9 14.4397 9.41972 14.8594 9.9375 14.8594C10.4553 14.8594 10.875 14.4397 10.875 13.9219Z" fill="#1C6EBB"/>
<path d="M10.875 18C10.875 17.4822 10.4553 17.0625 9.9375 17.0625C9.41972 17.0625 9 17.4822 9 18C9 18.5178 9.41972 18.9375 9.9375 18.9375C10.4553 18.9375 10.875 18.5178 10.875 18Z" fill="#1C6EBB"/>
<path d="M9.9375 8.90625C9.41972 8.90625 9 9.32597 9 9.84375C9 10.3615 9.41972 10.7812 9.9375 10.7812C10.4553 10.7812 10.875 10.3615 10.875 9.84375C10.875 9.32597 10.4553 8.90625 9.9375 8.90625Z" fill="#1C6EBB"/>
<path d="M10.875 13.9219C10.875 13.4041 10.4553 12.9844 9.9375 12.9844C9.41972 12.9844 9 13.4041 9 13.9219C9 14.4397 9.41972 14.8594 9.9375 14.8594C10.4553 14.8594 10.875 14.4397 10.875 13.9219Z" fill="#1C6EBB"/>
<path d="M10.875 18C10.875 17.4822 10.4553 17.0625 9.9375 17.0625C9.41972 17.0625 9 17.4822 9 18C9 18.5178 9.41972 18.9375 9.9375 18.9375C10.4553 18.9375 10.875 18.5178 10.875 18Z" fill="#1C6EBB"/>
<path d="M5.85938 0.9375V4.6875" stroke="#1C6EBB" stroke-width="1.95312" stroke-miterlimit="10" stroke-linecap="round" stroke-linejoin="round"/>
<path d="M18.0938 4.6875V0.9375" stroke="#1C6EBB" stroke-width="1.95312" stroke-miterlimit="10" stroke-linecap="round" stroke-linejoin="round"/>
<path d="M14.9531 13.9219C14.9531 13.4041 14.5334 12.9844 14.0156 12.9844C13.4978 12.9844 13.0781 13.4041 13.0781 13.9219C13.0781 14.4397 13.4978 14.8594 14.0156 14.8594C14.5334 14.8594 14.9531 14.4397 14.9531 13.9219Z" fill="#1C6EBB"/>
<path d="M19.0312 13.9219C19.0312 13.4041 18.6115 12.9844 18.0937 12.9844C17.576 12.9844 17.1562 13.4041 17.1562 13.9219C17.1562 14.4397 17.576 14.8594 18.0937 14.8594C18.6115 14.8594 19.0312 14.4397 19.0312 13.9219Z" fill="#1C6EBB"/>
<path d="M11.9531 0.9375V4.6875" stroke="#1C6EBB" stroke-width="1.95312" stroke-miterlimit="10" stroke-linecap="round" stroke-linejoin="round"/>
<path d="M13.2673 19.737L16.2589 22.6564C16.8834 23.2508 17.8826 23.1842 18.4226 22.5122L23.0624 16.0312" stroke="#1C6EBB" stroke-width="1.95312" stroke-miterlimit="10" stroke-linecap="round" stroke-linejoin="round"/>
</g>
</g>
</g>
<defs>
<clipPath id="clip0_64_1127">
<rect width="24" height="24" fill="white"/>
</clipPath>
</defs>
</svg>
