<svg width="25" height="24" viewBox="0 0 25 24" fill="none" xmlns="http://www.w3.org/2000/svg">
<path d="M6.5 22.5001C6.38975 22.5001 6.27875 22.4753 6.1745 22.4258C5.91575 22.3006 5.75 22.0388 5.75 21.7501V18.0001H3.5C2.2595 18.0001 1.25 16.9906 1.25 15.7501V3.75006C1.25 2.50956 2.2595 1.50006 3.5 1.50006H21.5C22.7405 1.50006 23.75 2.50956 23.75 3.75006V15.7501C23.75 16.9906 22.7405 18.0001 21.5 18.0001H12.3883L6.96875 22.3358C6.833 22.4446 6.66725 22.5001 6.5 22.5001ZM3.5 3.00006C3.086 3.00006 2.75 3.33681 2.75 3.75006V15.7501C2.75 16.1633 3.086 16.5001 3.5 16.5001H6.5C6.91475 16.5001 7.25 16.8353 7.25 17.2501V20.1901L11.6562 16.6643C11.7898 16.5578 11.954 16.5001 12.125 16.5001H21.5C21.914 16.5001 22.25 16.1633 22.25 15.7501V3.75006C22.25 3.33681 21.914 3.00006 21.5 3.00006H3.5Z" fill="#A3A3A5"/>
<path d="M18.5 9.00006H6.5C6.08525 9.00006 5.75 8.66406 5.75 8.25006C5.75 7.83606 6.08525 7.50006 6.5 7.50006H18.5C18.9148 7.50006 19.25 7.83606 19.25 8.25006C19.25 8.66406 18.9148 9.00006 18.5 9.00006Z" fill="#A3A3A5"/>
<path d="M12.5 12.0001H6.5C6.08525 12.0001 5.75 11.6641 5.75 11.2501C5.75 10.8361 6.08525 10.5001 6.5 10.5001H12.5C12.9148 10.5001 13.25 10.8361 13.25 11.2501C13.25 11.6641 12.9148 12.0001 12.5 12.0001Z" fill="#A3A3A5"/>
</svg>
