<svg width="24" height="24" viewBox="0 0 24 24" fill="none" xmlns="http://www.w3.org/2000/svg">
<g clip-path="url(#clip0_64_1121)">
<path d="M14.2031 14.9532C14.0112 14.9532 13.8193 14.8799 13.6728 14.7335L9.26657 10.3272C8.97364 10.0343 8.97364 9.55944 9.26657 9.26657C9.55944 8.97364 10.0343 8.97364 10.3272 9.26657L14.7335 13.6728C15.0264 13.9657 15.0264 14.4406 14.7335 14.7335C14.587 14.8799 14.3951 14.9532 14.2031 14.9532Z" fill="#1C6EBB"/>
<path d="M6.75017 18C6.55484 18 6.36308 17.9237 6.21969 17.7803C6.00758 17.5682 5.94223 17.25 6.05365 16.9715L9.05365 9.47145C9.12987 9.2809 9.2809 9.12987 9.47145 9.05365L16.9715 6.05365C17.2501 5.94223 17.5682 6.00758 17.7803 6.21969C17.9924 6.43184 18.0578 6.74998 17.9464 7.02856L14.9464 14.5286C14.8701 14.7191 14.7191 14.8701 14.5286 14.9464L7.02856 17.9464C6.93828 17.9825 6.84383 18 6.75017 18ZM10.327 10.327L8.09633 15.9037L13.673 13.673L15.9037 8.09633L10.327 10.327Z" fill="#1C6EBB"/>
<path d="M12 24C8.79469 24 5.78123 22.7518 3.51469 20.4853C1.24814 18.2188 0 15.2053 0 12C0 8.79469 1.24819 5.78123 3.51469 3.51469C5.78119 1.24814 8.79469 0 12 0C15.2053 0 18.2188 1.24819 20.4853 3.51469C22.7519 5.78119 24 8.79469 24 12C24 15.2053 22.7518 18.2188 20.4853 20.4853C18.2188 22.7519 15.2053 24 12 24ZM12 1.5C6.21028 1.5 1.5 6.21028 1.5 12C1.5 17.7897 6.21028 22.5 12 22.5C17.7897 22.5 22.5 17.7897 22.5 12C22.5 6.21028 17.7897 1.5 12 1.5Z" fill="#1C6EBB"/>
</g>
<defs>
<clipPath id="clip0_64_1121">
<rect width="24" height="24" fill="white"/>
</clipPath>
</defs>
</svg>
