<svg width="32" height="32" viewBox="0 0 32 32" fill="none" xmlns="http://www.w3.org/2000/svg">
<path fill-rule="evenodd" clip-rule="evenodd" d="M8.63137 23.875C8.89387 23.2725 9.27012 22.7175 9.74387 22.2438C10.7401 21.2475 12.0914 20.6875 13.5001 20.6875H18.5001C19.9089 20.6875 21.2601 21.2475 22.2564 22.2438C22.7301 22.7175 23.1064 23.2725 23.3689 23.875C23.5764 24.3487 24.1289 24.5663 24.6039 24.3588C25.0776 24.1525 25.2951 23.5988 25.0876 23.125C24.7314 22.3088 24.2239 21.5588 23.5826 20.9175C22.2351 19.57 20.4064 18.8125 18.5001 18.8125C16.8751 18.8125 15.1251 18.8125 13.5001 18.8125C11.5939 18.8125 9.76512 19.57 8.41762 20.9175C7.77637 21.5588 7.26887 22.3088 6.91262 23.125C6.70512 23.5988 6.92262 24.1525 7.39637 24.3588C7.87137 24.5663 8.42387 24.3487 8.63137 23.875Z" fill="white"/>
<path fill-rule="evenodd" clip-rule="evenodd" d="M16 6.3125C12.0325 6.3125 8.8125 9.5325 8.8125 13.5C8.8125 17.4675 12.0325 20.6875 16 20.6875C19.9675 20.6875 23.1875 17.4675 23.1875 13.5C23.1875 9.5325 19.9675 6.3125 16 6.3125ZM16 8.1875C18.9325 8.1875 21.3125 10.5675 21.3125 13.5C21.3125 16.4325 18.9325 18.8125 16 18.8125C13.0675 18.8125 10.6875 16.4325 10.6875 13.5C10.6875 10.5675 13.0675 8.1875 16 8.1875Z" fill="white"/>
<path fill-rule="evenodd" clip-rule="evenodd" d="M29.2612 11.3125C29.78 12.7788 30.0625 14.3562 30.0625 16C30.0625 23.7612 23.7612 30.0625 16 30.0625C8.23875 30.0625 1.9375 23.7612 1.9375 16C1.9375 8.23875 8.23875 1.9375 16 1.9375C17.6437 1.9375 19.2213 2.22 20.6875 2.73875C21.175 2.91125 21.7113 2.655 21.8838 2.1675C22.0563 1.68 21.8 1.14375 21.3125 0.97125C19.6513 0.3825 17.8625 0.0625 16 0.0625C7.20375 0.0625 0.0625 7.20375 0.0625 16C0.0625 24.7962 7.20375 31.9375 16 31.9375C24.7962 31.9375 31.9375 24.7962 31.9375 16C31.9375 14.1375 31.6175 12.3488 31.0288 10.6875C30.8563 10.2 30.32 9.94375 29.8325 10.1163C29.345 10.2888 29.0887 10.825 29.2612 11.3125Z" fill="white"/>
<path fill-rule="evenodd" clip-rule="evenodd" d="M23.5 6.3125H29.75C30.2675 6.3125 30.6875 5.8925 30.6875 5.375C30.6875 4.8575 30.2675 4.4375 29.75 4.4375H23.5C22.9825 4.4375 22.5625 4.8575 22.5625 5.375C22.5625 5.8925 22.9825 6.3125 23.5 6.3125Z" fill="white"/>
<path fill-rule="evenodd" clip-rule="evenodd" d="M25.6875 2.25V8.5C25.6875 9.0175 26.1075 9.4375 26.625 9.4375C27.1425 9.4375 27.5625 9.0175 27.5625 8.5V2.25C27.5625 1.7325 27.1425 1.3125 26.625 1.3125C26.1075 1.3125 25.6875 1.7325 25.6875 2.25Z" fill="white"/>
</svg>
