<svg width="50" height="50" viewBox="0 0 50 50" fill="none" xmlns="http://www.w3.org/2000/svg">
<rect width="50" height="50" rx="8" fill="#3699F7" fill-opacity="0.2"/>
<path d="M35.9747 23.9204V30.7229C36.0408 31.2973 35.9771 31.8794 35.7883 32.4255C35.5996 32.9716 35.2906 33.4677 34.8847 33.8766C34.4787 34.2855 33.9862 34.5967 33.444 34.7868C32.9018 34.9769 32.3239 35.0411 31.7536 34.9745H18.2464C17.6761 35.0411 17.0982 34.9769 16.556 34.7868C16.0138 34.5967 15.5213 34.2855 15.1153 33.8766C14.7094 33.4677 14.4004 32.9716 14.2117 32.4255C14.0229 31.8794 13.9592 31.2973 14.0253 30.7229V19.3853C13.9592 18.8109 14.0229 18.2289 14.2117 17.6827C14.4004 17.1366 14.7094 16.6405 15.1153 16.2316C15.5213 15.8227 16.0138 15.5116 16.556 15.3215C17.0982 15.1313 17.6761 15.0672 18.2464 15.1338H26.1256C26.3495 15.1338 26.5642 15.2233 26.7226 15.3828C26.8809 15.5423 26.9698 15.7586 26.9698 15.9841C26.9698 16.2096 26.8809 16.4259 26.7226 16.5853C26.5642 16.7448 26.3495 16.8344 26.1256 16.8344H18.2464C16.4713 16.8344 15.7137 17.5974 15.7137 19.3853V29.8726L18.5728 26.9928C18.7853 26.7804 19.0726 26.6612 19.372 26.6612C19.6714 26.6612 19.9586 26.7804 20.1711 26.9928L21.2292 28.0586C21.3344 28.1624 21.4759 28.2206 21.6232 28.2206C21.7705 28.2206 21.9119 28.1624 22.0171 28.0586L27.5776 22.4578C27.7902 22.2454 28.0774 22.1262 28.3768 22.1262C28.6762 22.1262 28.9635 22.2454 29.176 22.4578L34.2863 27.6051V23.9204C34.2863 23.6948 34.3752 23.4786 34.5335 23.3191C34.6918 23.1596 34.9066 23.0701 35.1305 23.0701C35.3544 23.0701 35.5691 23.1596 35.7274 23.3191C35.8857 23.4786 35.9747 23.6948 35.9747 23.9204ZM20.4897 20.2357C20.116 20.2367 19.758 20.3871 19.4942 20.6538C19.2305 20.9206 19.0827 21.2818 19.0832 21.6582C19.0838 22.0347 19.2326 22.3955 19.497 22.6615C19.7615 22.9275 20.1199 23.0768 20.4936 23.0768C20.8673 23.0768 21.2258 22.9275 21.4902 22.6615C21.7547 22.3955 21.9035 22.0347 21.904 21.6582C21.9045 21.2818 21.7567 20.9206 21.493 20.6538C21.2293 20.3871 20.8713 20.2367 20.4976 20.2357H20.4897ZM30.628 17.9681H32.035V19.3853C32.035 19.6109 32.124 19.8271 32.2823 19.9866C32.4406 20.1461 32.6554 20.2357 32.8793 20.2357C33.1032 20.2357 33.3179 20.1461 33.4762 19.9866C33.6345 19.8271 33.7235 19.6109 33.7235 19.3853V17.9681H35.1305C35.3544 17.9681 35.5691 17.8786 35.7274 17.7191C35.8857 17.5596 35.9747 17.3433 35.9747 17.1178C35.9747 16.8923 35.8857 16.676 35.7274 16.5166C35.5691 16.3571 35.3544 16.2675 35.1305 16.2675H33.7235V14.8503C33.7235 14.6248 33.6345 14.4085 33.4762 14.2491C33.3179 14.0896 33.1032 14 32.8793 14C32.6554 14 32.4406 14.0896 32.2823 14.2491C32.124 14.4085 32.035 14.6248 32.035 14.8503V16.2675H30.628C30.4041 16.2675 30.1894 16.3571 30.0311 16.5166C29.8728 16.676 29.7838 16.8923 29.7838 17.1178C29.7838 17.3433 29.8728 17.5596 30.0311 17.7191C30.1894 17.8786 30.4041 17.9681 30.628 17.9681Z" fill="#1C6EBB"/>
</svg>
