<svg width="24" height="24" viewBox="0 0 24 24" fill="none" xmlns="http://www.w3.org/2000/svg">
<path d="M17.8338 11.9997C17.373 11.9997 17.0005 12.3731 17.0005 12.833V19.5C17.0005 19.9591 16.6271 20.3333 16.1672 20.3333H4.50008C4.04001 20.3333 3.66677 19.9591 3.66677 19.5V7.83285C3.66677 7.37369 4.04001 6.99954 4.50008 6.99954H11.167C11.6279 6.99954 12.0003 6.62614 12.0003 6.16623C12.0003 5.70616 11.6279 5.33276 11.167 5.33276H4.50008C3.12171 5.33276 2 6.45447 2 7.83285V19.5C2 20.8783 3.12171 22 4.50008 22H16.1672C17.5456 22 18.6673 20.8783 18.6673 19.5V12.833C18.6673 12.3722 18.2946 11.9997 17.8338 11.9997Z" fill="#1C6EBB"/>
<path d="M9.81346 11.2405C9.75517 11.2988 9.71596 11.373 9.69932 11.4529L9.11016 14.3998C9.0827 14.5364 9.12603 14.6772 9.2243 14.7764C9.3035 14.8556 9.41016 14.898 9.51942 14.898C9.54597 14.898 9.57359 14.8956 9.60105 14.8898L12.547 14.3006C12.6286 14.2838 12.7028 14.2448 12.7603 14.1863L19.3539 7.59278L16.4079 4.64697L9.81346 11.2405Z" fill="#1C6EBB"/>
<path d="M21.3905 2.60942C20.5781 1.79686 19.2564 1.79686 18.4446 2.60942L17.2913 3.76272L20.2372 6.70867L21.3905 5.55522C21.7839 5.16276 22.0006 4.63936 22.0006 4.0827C22.0006 3.52604 21.7839 3.00265 21.3905 2.60942Z" fill="#1C6EBB"/>
</svg>
