<svg width="30" height="30" viewBox="0 0 30 30" fill="none" xmlns="http://www.w3.org/2000/svg">
<circle cx="15" cy="15.0001" r="15" fill="#3699F7" fill-opacity="0.2"/>
<g clip-path="url(#clip0_85_612)">
<path d="M5.46875 24.0626H24.5312C24.6556 24.0626 24.7748 24.0132 24.8627 23.9253C24.9506 23.8374 25 23.7181 25 23.5938C25 23.4695 24.9506 23.3503 24.8627 23.2624C24.7748 23.1744 24.6556 23.1251 24.5312 23.1251H22.1826V12.7735C22.1826 12.6492 22.1332 12.53 22.0453 12.442C21.9574 12.3541 21.8382 12.3047 21.7139 12.3047H18.8818C18.7575 12.3047 18.6383 12.3541 18.5504 12.442C18.4625 12.53 18.4131 12.6492 18.4131 12.7735V23.1251H16.8848V15.0587C16.8848 14.9343 16.8354 14.8151 16.7475 14.7272C16.6596 14.6393 16.5403 14.5899 16.416 14.5899H13.584C13.4597 14.5899 13.3404 14.6393 13.2525 14.7272C13.1646 14.8151 13.1152 14.9343 13.1152 15.0587V23.1251H11.5869V17.3438C11.5869 17.2195 11.5375 17.1003 11.4496 17.0124C11.3617 16.9244 11.2425 16.8751 11.1182 16.8751H8.28613C8.16181 16.8751 8.04258 16.9244 7.95468 17.0124C7.86677 17.1003 7.81738 17.2195 7.81738 17.3438V23.1251H5.46875C5.34443 23.1251 5.2252 23.1744 5.13729 23.2624C5.04939 23.3503 5 23.4695 5 23.5938C5 23.7181 5.04939 23.8374 5.13729 23.9253C5.2252 24.0132 5.34443 24.0626 5.46875 24.0626ZM19.3506 13.2422H21.2451V23.1251H19.3506V13.2422ZM14.0527 15.5274H15.9473V23.1251H14.0527V15.5274ZM8.75488 17.8126H10.6494V23.1251H8.75488V17.8126ZM7.79418 15.9973C7.77607 15.9385 7.76973 15.8766 7.77552 15.8154C7.78131 15.7541 7.79911 15.6945 7.82792 15.6401C7.85673 15.5857 7.89598 15.5375 7.94342 15.4982C7.99086 15.459 8.04557 15.4295 8.10441 15.4114C13.0774 13.8911 17.4821 10.9183 20.7523 6.87506H18.8623C18.738 6.87506 18.6188 6.82568 18.5308 6.73777C18.4429 6.64986 18.3936 6.53063 18.3936 6.40631C18.3936 6.28199 18.4429 6.16276 18.5308 6.07485C18.6188 5.98695 18.738 5.93756 18.8623 5.93756H21.7139C21.8382 5.93756 21.9574 5.98695 22.0453 6.07485C22.1332 6.16276 22.1826 6.28199 22.1826 6.40631V9.25787C22.1826 9.38219 22.1332 9.50142 22.0453 9.58933C21.9574 9.67724 21.8382 9.72662 21.7139 9.72662C21.5895 9.72662 21.4703 9.67724 21.3824 9.58933C21.2945 9.50142 21.2451 9.38219 21.2451 9.25787V7.75135C19.6852 9.62141 17.8804 11.2728 15.8796 12.661C13.5827 14.2558 11.0529 15.4859 8.38004 16.3075C8.3212 16.3257 8.25935 16.3321 8.19804 16.3263C8.13673 16.3205 8.07716 16.3027 8.02273 16.2739C7.96831 16.2451 7.9201 16.2058 7.88087 16.1584C7.84164 16.1109 7.81215 16.0562 7.7941 15.9973L7.79418 15.9973Z" fill="#1C6EBB"/>
</g>
<defs>
<clipPath id="clip0_85_612">
<rect width="20" height="20" fill="white" transform="translate(5 5.00006)"/>
</clipPath>
</defs>
</svg>
