<svg width="202" height="150" viewBox="0 0 202 151" fill="none" xmlns="http://www.w3.org/2000/svg">
<mask id="mask0_916_1301" style="mask-type:luminance" maskUnits="userSpaceOnUse" x="0" y="0" width="202" height="151">
<path d="M201.841 0.351562H0.550781V150.352H201.841V0.351562Z" fill="white"/>
</mask>
<g mask="url(#mask0_916_1301)">
<path d="M106.39 150.353C159.106 150.353 201.841 148.005 201.841 145.11C201.841 142.214 159.106 139.867 106.39 139.867C53.6734 139.867 10.9383 142.214 10.9383 145.11C10.9383 148.005 53.6734 150.353 106.39 150.353Z" fill="#F5F5F5" fill-opacity="0.2"/>
<path d="M174.64 132.579L171.103 133.864L174.129 141.267L177.666 139.983L174.64 132.579Z" fill="#E4897B"/>
<path d="M189.828 141.534H186.136L184.758 133.461H188.499L189.828 141.534Z" fill="#E4897B"/>
<path d="M185.892 141.117H190.076C190.223 141.117 190.371 141.21 190.371 141.349L190.913 144.457C190.962 144.782 190.667 145.107 190.322 145.061C188.845 145.014 188.156 144.968 186.335 144.968C185.202 144.968 181.806 145.061 180.23 145.061C178.704 145.061 178.557 143.622 179.197 143.483C182.101 142.88 184.316 142.091 185.252 141.302C185.448 141.21 185.695 141.117 185.892 141.117Z" fill="#263238"/>
<path d="M173.584 139.911L177.522 138.843C177.67 138.797 177.817 138.843 177.866 138.983L179.343 141.766C179.491 142.045 179.294 142.416 178.949 142.509C177.522 142.88 176.537 143.112 174.765 143.576C173.534 143.901 172.254 144.457 171.024 144.829C170.187 145.061 168.169 145.107 167.184 145.107C165.658 145.107 165.314 143.576 165.953 143.53C167.627 143.344 167.824 143.437 168.759 143.019C170.285 142.323 171.417 141.72 172.747 140.421C172.993 140.189 173.239 140.003 173.584 139.911Z" fill="#263238"/>
<path d="M168.07 28.4225C167.775 29.1648 167.48 29.768 167.135 30.4639C166.79 31.1135 166.495 31.7631 166.15 32.4126C165.461 33.7117 164.674 34.9644 163.787 36.2171C162.901 37.4698 161.966 38.6761 160.686 39.836C160.046 40.3928 159.357 40.996 158.471 41.4599C157.585 41.9239 156.502 42.3879 155.123 42.4343C154.779 42.4343 154.434 42.4343 154.139 42.3879C153.844 42.3415 153.548 42.2951 153.302 42.2023C152.81 42.0631 152.367 41.8775 151.924 41.6919C151.087 41.3207 150.398 40.9032 149.758 40.4856C148.429 39.6505 147.247 38.6761 146.115 37.7482C143.85 35.8459 141.832 33.8045 139.863 31.5775L141.783 29.768C144.047 31.4383 146.361 33.1086 148.675 34.6396C149.807 35.4284 151.038 36.1243 152.17 36.7275C152.761 37.0059 153.351 37.2842 153.844 37.4698C154.385 37.6554 154.828 37.7482 154.877 37.7018C154.976 37.6554 155.271 37.5626 155.665 37.3306C156.01 37.0987 156.453 36.7275 156.846 36.3099C157.634 35.4748 158.422 34.454 159.111 33.3869C159.8 32.3198 160.489 31.1599 161.129 30C161.425 29.3968 161.769 28.8401 162.065 28.2369C162.36 27.6338 162.655 27.0306 162.901 26.4738L168.07 28.4225Z" fill="#E4897B"/>
<path d="M142.373 30.9258L141.831 28.1884L138.09 30.3691C138.09 30.3691 139.272 32.0857 140.502 32.1321L142.373 30.9258Z" fill="#E4897B"/>
<path d="M140.06 26.5175L137.156 28.3733L138.042 30.322L141.832 28.1413L140.06 26.5175Z" fill="#E4897B"/>
<path d="M169.792 24.8957C170.678 28.0506 165.756 34.4534 165.756 34.4534L159.258 31.02C159.258 31.02 160.488 28.4218 161.965 25.7308C164.377 21.4159 168.758 21.2768 169.792 24.8957Z" fill="#1C6EBB"/>
<path opacity="0.6" d="M169.792 24.8957C170.678 28.0506 165.756 34.4534 165.756 34.4534L159.258 31.02C159.258 31.02 160.488 28.4218 161.965 25.7308C164.377 21.4159 168.758 21.2768 169.792 24.8957Z" fill="#FAFAFA"/>
<path d="M161.867 32.3637L164.427 33.7092L164.87 26.3321C163.393 27.3992 162.31 30.647 161.867 32.3637Z" fill="#1C6EBB"/>
<path opacity="0.3" d="M161.867 32.3637L164.427 33.7092L164.87 26.3321C163.393 27.3992 162.31 30.647 161.867 32.3637Z" fill="#FAFAFA"/>
<path d="M174.647 132.581L171.111 133.867L172.67 137.676L176.207 136.39L174.647 132.581Z" fill="#CE6F64"/>
<path d="M188.501 133.465H184.76L185.498 137.641H189.19L188.501 133.465Z" fill="#CE6F64"/>
<path d="M186.284 22.2948C182.493 35.7963 183.576 49.8081 183.232 52.6846H163.393C160.44 33.0589 165.51 22.4804 165.51 22.4804C165.51 22.4804 167.085 22.0628 169.104 21.7845C169.3 21.7381 169.497 21.7381 169.645 21.6917C170.137 21.6453 170.679 21.5525 171.22 21.5061C173.435 21.3205 177.128 21.4133 179.638 21.5061C180.081 21.5061 180.524 21.5525 180.967 21.5989C181.164 21.5989 181.312 21.6453 181.46 21.6453C184.118 21.8772 186.284 22.2948 186.284 22.2948Z" fill="#1C6EBB"/>
<path opacity="0.6" d="M186.284 22.2948C182.493 35.7963 183.576 49.8081 183.232 52.6846H163.393C160.44 33.0589 165.51 22.4804 165.51 22.4804C165.51 22.4804 167.085 22.0628 169.104 21.7845C169.3 21.7381 169.497 21.7381 169.645 21.6917C170.137 21.6453 170.679 21.5525 171.22 21.5061C173.435 21.3205 177.128 21.4133 179.638 21.5061C180.081 21.5061 180.524 21.5525 180.967 21.5989C181.164 21.5989 181.312 21.6453 181.46 21.6453C184.118 21.8772 186.284 22.2948 186.284 22.2948Z" fill="#FAFAFA"/>
<path d="M162.804 47.3521C162.853 48.1872 162.951 49.0687 163.05 49.9503L177.769 45.4498C180.082 44.8002 182.051 43.4547 183.43 41.5525C183.479 40.2998 183.578 39.0007 183.676 37.6552C183.725 37.0056 183.774 36.3097 183.873 35.6137C183.922 34.9178 184.021 34.1754 184.119 33.4331L162.804 47.3521Z" fill="#1C6EBB"/>
<path opacity="0.3" d="M162.804 47.3521C162.853 48.1872 162.951 49.0687 163.05 49.9503L177.769 45.4498C180.082 44.8002 182.051 43.4547 183.43 41.5525C183.479 40.2998 183.578 39.0007 183.676 37.6552C183.725 37.0056 183.774 36.3097 183.873 35.6137C183.922 34.9178 184.021 34.1754 184.119 33.4331L162.804 47.3521Z" fill="#FAFAFA"/>
<path d="M181.016 21.6023L180.819 22.0198C180.77 22.159 179.195 25.2675 173.386 25.2675C172.598 25.2675 170.285 25.2675 169.546 23.7365C169.202 22.9942 169.399 22.2518 169.645 21.6951C169.448 21.7415 169.251 21.7415 169.103 21.7879C168.857 22.391 168.759 23.1334 169.103 23.922C169.989 25.7315 172.549 25.7315 173.386 25.7315C179.49 25.7315 181.164 22.3446 181.262 22.2054L181.509 21.6487C181.361 21.6487 181.213 21.6023 181.016 21.6023Z" fill="#FAFAFA"/>
<path d="M179.442 12.5549C178.753 15.1068 177.916 19.7928 179.738 21.5095C179.738 21.5095 178.507 24.1076 173.436 24.1076C168.809 24.1076 171.32 21.5095 171.32 21.5095C174.372 20.8135 174.421 18.7257 174.027 16.7306L179.442 12.5549Z" fill="#E4897B"/>
<path d="M177.226 14.2694L174.026 16.7285C174.124 17.1924 174.174 17.6564 174.174 18.1204C175.109 19.0019 176.98 16.7749 177.177 15.6149C177.275 15.0582 177.324 14.5478 177.226 14.2694Z" fill="#CE6F64"/>
<path d="M168.217 11.3454C168.365 12.2269 168.956 12.9693 169.645 13.3868C170.679 13.99 171.614 13.2012 171.663 12.1341C171.713 11.1598 171.27 9.67511 170.039 9.48952C168.907 9.30394 168.021 10.2783 168.217 11.3454Z" fill="#CE6F64"/>
<path d="M170.926 4.57429C169.055 5.27023 167.874 12.0905 170.089 13.2504C172.353 14.4104 174.519 3.32158 170.926 4.57429Z" fill="#263238"/>
<path d="M167.726 6.94057C169.105 8.33247 176.243 6.66219 176.538 4.24957C176.784 1.88335 165.117 4.34237 167.726 6.94057Z" fill="#263238"/>
<path d="M179.344 8.42245C179.197 11.9022 179.295 13.9436 177.523 15.8459C174.815 18.7225 170.237 17.5162 169.302 14.1292C168.416 11.0671 168.81 5.91704 172.354 4.24676C175.8 2.62289 179.492 4.94271 179.344 8.42245Z" fill="#E4897B"/>
<path d="M177.078 1.18609C179.687 0.582935 180.278 1.27888 180.377 2.94916C180.475 4.66583 182.887 4.15547 182.099 6.70728C181.706 7.91359 180.77 7.82079 181.361 9.21269C182.05 10.8366 178.063 12.8316 177.128 12.7852C175.602 12.7852 175.946 9.76945 177.177 7.03205C178.112 4.9906 175.798 5.54736 173.091 6.28971C167.036 8.00638 163.049 3.04195 166.79 0.675728C168.759 -0.576979 174.223 2.06762 177.078 1.18609Z" fill="#263238"/>
<path d="M181.066 12.1363C180.573 12.9714 179.737 13.5282 178.949 13.7602C177.767 14.0849 177.226 13.1106 177.571 12.0435C177.915 11.0692 178.9 9.77007 180.081 9.86286C181.263 10.002 181.656 11.162 181.066 12.1363Z" fill="#E4897B"/>
<path d="M163.444 52.6879C163.444 52.6879 160.096 80.7578 159.85 91.429C159.604 102.518 171.123 137.083 171.123 137.083L177.031 134.763C177.031 134.763 170.139 103.167 171.123 92.3105C172.157 80.433 176.489 52.7343 176.489 52.7343H163.444V52.6879Z" fill="#263238"/>
<path d="M171.712 60.3888C169.054 65.5852 170.826 75.8388 172.303 81.9168C172.845 77.6483 173.485 72.9622 174.124 68.6474C174.026 62.0127 173.485 56.909 171.712 60.3888Z" fill="#182137"/>
<path d="M176.783 132.906C176.832 132.906 177.472 134.669 177.472 134.669L170.679 137.36L169.595 135.458L176.783 132.906Z" fill="#1C6EBB"/>
<path opacity="0.6" d="M176.783 132.906C176.832 132.906 177.472 134.669 177.472 134.669L170.679 137.36L169.595 135.458L176.783 132.906Z" fill="#FAFAFA"/>
<path d="M170.482 52.6879C170.482 52.6879 173.042 79.3659 174.716 89.3876C176.586 100.337 183.823 136.805 183.823 136.805H190.567C190.567 136.805 186.481 101.219 185.743 90.3619C184.906 78.5772 183.232 52.6879 183.232 52.6879H170.482Z" fill="#263238"/>
<path d="M190.715 134.856C190.764 134.856 190.961 136.897 190.961 136.897H183.478L182.937 134.578L190.715 134.856Z" fill="#1C6EBB"/>
<path opacity="0.6" d="M190.715 134.856C190.764 134.856 190.961 136.897 190.961 136.897H183.478L182.937 134.578L190.715 134.856Z" fill="#FAFAFA"/>
<path d="M188.105 133.044C188.055 133.044 188.055 133.044 188.055 132.998C188.006 132.673 184.363 100.52 183.674 90.7769C182.936 80.1985 181.41 56.7682 181.41 56.5362C181.41 56.4898 181.459 56.4898 181.459 56.4898C181.508 56.4898 181.508 56.5362 181.508 56.5362C181.508 56.7682 183.035 80.1985 183.773 90.7769C184.462 100.52 188.154 132.673 188.154 132.998C188.154 132.998 188.154 133.044 188.105 133.044Z" fill="#1C6EBB"/>
<path opacity="0.5" d="M188.105 133.044C188.055 133.044 188.055 133.044 188.055 132.998C188.006 132.673 184.363 100.52 183.674 90.7769C182.936 80.1985 181.41 56.7682 181.41 56.5362C181.41 56.4898 181.459 56.4898 181.459 56.4898C181.508 56.4898 181.508 56.5362 181.508 56.5362C181.508 56.7682 183.035 80.1985 183.773 90.7769C184.462 100.52 188.154 132.673 188.154 132.998C188.154 132.998 188.154 133.044 188.105 133.044Z" fill="black"/>
<path d="M173.831 9.81466C173.831 10.093 173.683 10.325 173.486 10.3714C173.289 10.3714 173.142 10.1858 173.142 9.90745C173.142 9.62907 173.289 9.39709 173.486 9.35069C173.634 9.35069 173.782 9.53628 173.831 9.81466Z" fill="#263238"/>
<path d="M170.433 10.0925C170.433 10.3708 170.285 10.6028 170.088 10.6492C169.891 10.6492 169.744 10.4636 169.744 10.1852C169.744 9.90686 169.891 9.67488 170.088 9.62848C170.285 9.58209 170.433 9.81407 170.433 10.0925Z" fill="#263238"/>
<path d="M171.516 10.1409C171.516 10.1409 170.876 11.8111 170.138 12.6463C170.679 13.0639 171.565 12.7855 171.565 12.7855L171.516 10.1409Z" fill="#DE5753"/>
<path d="M171.959 13.9925C171.91 13.9925 171.861 13.9461 171.861 13.8997C171.861 13.8533 171.91 13.8069 171.959 13.8069C173.288 13.7141 173.879 12.7862 173.879 12.7862C173.928 12.7398 173.977 12.7398 173.977 12.7398C174.027 12.7398 174.027 12.8326 174.027 12.8326C173.977 12.9254 173.338 13.8533 171.959 13.9925Z" fill="#263238"/>
<path d="M174.865 8.00714C174.815 8.00714 174.766 8.00714 174.717 7.96074C174.224 7.40398 173.585 7.45038 173.585 7.45038C173.486 7.45038 173.388 7.40398 173.388 7.31119C173.388 7.2184 173.437 7.1256 173.535 7.1256C173.585 7.1256 174.372 7.03281 174.963 7.72876C175.012 7.82155 175.012 7.91434 174.914 7.96074C174.963 8.00714 174.914 8.00714 174.865 8.00714Z" fill="#263238"/>
<path d="M169.006 8.51674C168.956 8.51674 168.956 8.51674 168.956 8.47034C168.907 8.42395 168.858 8.33115 168.956 8.23836C169.596 7.49602 170.384 7.54241 170.433 7.54241C170.532 7.54241 170.581 7.63521 170.581 7.728C170.581 7.82079 170.482 7.86719 170.384 7.86719C170.335 7.86719 169.744 7.82079 169.252 8.42395C169.104 8.47034 169.055 8.51674 169.006 8.51674Z" fill="#263238"/>
<path d="M188.205 26.8886L183.085 25.5895C183.085 25.5895 178.064 37.2351 176.292 37.9774C173.88 38.9981 167.775 42.5707 165.166 44.3337C165.019 44.8905 165.117 46.468 165.462 46.8855C169.892 46.1432 178.359 43.0346 180.131 41.5035C184.168 37.8846 188.205 26.8886 188.205 26.8886Z" fill="#E4897B"/>
<path d="M189.534 25.5424C190.912 29.6717 185.596 35.2857 185.596 35.2857L178.31 32.4555C178.31 32.4555 179.344 29.4861 181.313 25.4496C183.528 20.9028 188.156 21.3667 189.534 25.5424Z" fill="#1C6EBB"/>
<path opacity="0.6" d="M189.534 25.5424C190.912 29.6717 185.596 35.2857 185.596 35.2857L178.31 32.4555C178.31 32.4555 179.344 29.4861 181.313 25.4496C183.528 20.9028 188.156 21.3667 189.534 25.5424Z" fill="#FAFAFA"/>
<path d="M184.611 141.722C184.316 141.722 184.07 141.676 183.922 141.537C183.775 141.444 183.725 141.305 183.775 141.119C183.775 140.98 183.873 140.934 183.922 140.887C184.316 140.702 185.498 141.398 185.645 141.444C185.695 141.444 185.695 141.49 185.695 141.537C185.695 141.583 185.645 141.583 185.645 141.583C185.35 141.676 184.956 141.722 184.611 141.722ZM184.119 141.026C184.07 141.026 184.021 141.026 184.021 141.026C184.021 141.026 183.972 141.073 183.972 141.119C183.972 141.258 183.971 141.351 184.07 141.398C184.267 141.537 184.759 141.583 185.399 141.444C184.956 141.258 184.414 141.026 184.119 141.026Z" fill="#1C6EBB"/>
<path d="M185.594 141.629C185.201 141.443 184.511 140.654 184.61 140.283C184.61 140.19 184.708 140.098 184.905 140.051C185.053 140.051 185.151 140.051 185.25 140.144C185.644 140.469 185.693 141.489 185.693 141.536C185.693 141.536 185.644 141.582 185.594 141.629ZM184.954 140.19C184.905 140.19 184.905 140.19 184.954 140.19C184.807 140.19 184.807 140.237 184.758 140.283C184.708 140.515 185.151 141.072 185.496 141.35C185.447 141.072 185.397 140.469 185.102 140.237C185.053 140.237 185.004 140.19 184.954 140.19Z" fill="#1C6EBB"/>
<path d="M171.565 141.164C171.221 141.257 170.876 141.257 170.63 141.164C170.482 141.072 170.433 140.979 170.384 140.793C170.384 140.701 170.384 140.608 170.482 140.561C170.876 140.237 172.501 140.608 172.648 140.608C172.698 140.608 172.698 140.654 172.698 140.701C172.698 140.747 172.698 140.747 172.648 140.793C172.402 140.886 171.959 141.072 171.565 141.164ZM170.778 140.608C170.729 140.608 170.679 140.654 170.63 140.654C170.581 140.701 170.581 140.701 170.581 140.747C170.581 140.84 170.63 140.932 170.729 140.979C170.975 141.118 171.615 141.025 172.402 140.701C171.812 140.608 171.122 140.515 170.778 140.608Z" fill="#1C6EBB"/>
<path d="M172.648 140.794C172.156 140.701 171.122 140.19 171.122 139.773C171.122 139.68 171.172 139.541 171.418 139.494C171.565 139.448 171.762 139.448 171.91 139.541C172.451 139.773 172.747 140.701 172.747 140.701C172.747 140.701 172.747 140.747 172.648 140.794C172.698 140.794 172.698 140.794 172.648 140.794ZM171.516 139.634H171.467C171.319 139.68 171.319 139.726 171.319 139.773C171.319 140.005 172.008 140.469 172.55 140.608C172.451 140.33 172.205 139.819 171.861 139.68C171.713 139.587 171.615 139.587 171.516 139.634Z" fill="#1C6EBB"/>
<path d="M126.079 50.0888C126.916 47.7689 129.328 46.1451 131.839 46.1451H181.706C184.709 46.1451 186.826 48.4185 186.481 51.2487L175.405 140.005C175.06 142.835 172.353 145.109 169.35 145.109H44.3128C41.31 145.109 39.1932 142.835 39.5378 140.005L48.9894 64.4253C49.334 61.5951 52.0415 59.3217 55.0443 59.3217H112.64C118.498 59.3217 124.061 55.5172 126.079 50.0888Z" fill="#1C6EBB"/>
<path opacity="0.1" d="M126.079 50.0888C126.916 47.7689 129.328 46.1451 131.839 46.1451H181.706C184.709 46.1451 186.826 48.4185 186.481 51.2487L175.405 140.005C175.06 142.835 172.353 145.109 169.35 145.109H44.3128C41.31 145.109 39.1932 142.835 39.5378 140.005L48.9894 64.4253C49.334 61.5951 52.0415 59.3217 55.0443 59.3217H112.64C118.498 59.3217 124.061 55.5172 126.079 50.0888Z" fill="#FAFAFA"/>
<path d="M119.187 61.6392L81.4789 10.7886L14.1852 55.0509L51.8441 105.948L119.187 61.6392Z" fill="#1C6EBB"/>
<path opacity="0.8" d="M119.187 61.6392L81.4789 10.7886L14.1852 55.0509L51.8441 105.948L119.187 61.6392Z" fill="#FAFAFA"/>
<path d="M119.089 62.7068L81.3319 11.7169L13.9893 55.9793L51.7956 107.015L119.089 62.7068Z" fill="#FAFAFA"/>
<path d="M79.972 19.6137L22.3692 57.5045L52.9931 98.8596L110.596 60.9687L79.972 19.6137Z" fill="#1C6EBB"/>
<path opacity="0.8" d="M79.972 19.6137L22.3692 57.5045L52.9931 98.8596L110.596 60.9687L79.972 19.6137Z" fill="#FAFAFA"/>
<path d="M57.9 55.2362C61.0013 59.4119 59.9181 65.2115 55.4876 68.1345C51.0572 71.0574 44.904 70.0367 41.8027 65.861C38.7014 61.6853 39.7841 55.8858 44.2146 52.9628C48.6943 50.0398 54.7984 51.0605 57.9 55.2362Z" fill="#1C6EBB"/>
<path opacity="0.1" d="M57.9 55.2362C61.0013 59.4119 59.9181 65.2115 55.4876 68.1345C51.0572 71.0574 44.904 70.0367 41.8027 65.861C38.7014 61.6853 39.7841 55.8858 44.2146 52.9628C48.6943 50.0398 54.7984 51.0605 57.9 55.2362Z" fill="#FAFAFA"/>
<path d="M94.6735 51.1529C91.6214 48.2763 87.3879 46.9308 83.2528 47.3019C83.2036 47.2092 83.1543 47.1164 83.0559 47.0236C78.527 40.8992 69.6169 39.4145 63.1681 43.683C58.1469 46.9772 56.0794 52.8231 57.507 58.1123C57.0639 58.2979 56.6701 58.5299 56.2763 58.7619C53.3227 60.7105 52.092 64.0975 52.8304 67.2061C51.1074 67.8556 49.4829 68.9227 48.2523 70.7322C45.9878 73.98 45.8401 78.2484 48.1538 81.4962C51.3536 85.9967 57.8023 87.1566 62.5281 84.048L79.0685 73.1448L94.2305 63.1696C97.7256 60.8961 98.7101 56.3493 96.298 53.0551L96.2488 53.0087C95.8057 52.3128 95.2642 51.7096 94.6735 51.1529Z" fill="#1C6EBB"/>
<path opacity="0.3" d="M94.6735 51.1529C91.6214 48.2763 87.3879 46.9308 83.2528 47.3019C83.2036 47.2092 83.1543 47.1164 83.0559 47.0236C78.527 40.8992 69.6169 39.4145 63.1681 43.683C58.1469 46.9772 56.0794 52.8231 57.507 58.1123C57.0639 58.2979 56.6701 58.5299 56.2763 58.7619C53.3227 60.7105 52.092 64.0975 52.8304 67.2061C51.1074 67.8556 49.4829 68.9227 48.2523 70.7322C45.9878 73.98 45.8401 78.2484 48.1538 81.4962C51.3536 85.9967 57.8023 87.1566 62.5281 84.048L79.0685 73.1448L94.2305 63.1696C97.7256 60.8961 98.7101 56.3493 96.298 53.0551L96.2488 53.0087C95.8057 52.3128 95.2642 51.7096 94.6735 51.1529Z" fill="black"/>
<path d="M83.3982 82.7512L83.349 21.5541L1.23804 21.6469L1.33649 82.7512H83.3982Z" fill="#1C6EBB"/>
<path opacity="0.8" d="M83.3982 82.7512L83.349 21.5541L1.23804 21.6469L1.33649 82.7512H83.3982Z" fill="#FAFAFA"/>
<path d="M82.71 83.5866L82.6608 22.2504L0.549805 22.2968L0.599032 83.5866H82.71Z" fill="#FAFAFA"/>
<path d="M76.7541 28.0024H6.5069V78.4354H76.7541V28.0024Z" fill="#1C6EBB"/>
<path opacity="0.8" d="M76.7541 28.0024H6.5069V78.4354H76.7541V28.0024Z" fill="#FAFAFA"/>
<path d="M34.1457 51.9309C37.9903 48.3071 37.9903 42.4319 34.1457 38.8081C30.3008 35.1843 24.067 35.1843 20.2221 38.8081C16.3773 42.4319 16.3773 48.3071 20.2221 51.9309C24.067 55.5547 30.3008 55.5547 34.1457 51.9309Z" fill="#1C6EBB"/>
<path opacity="0.1" d="M34.1457 51.9309C37.9903 48.3071 37.9903 42.4319 34.1457 38.8081C30.3008 35.1843 24.067 35.1843 20.2221 38.8081C16.3773 42.4319 16.3773 48.3071 20.2221 51.9309C24.067 55.5547 30.3008 55.5547 34.1457 51.9309Z" fill="#FAFAFA"/>
<path d="M69.6655 61.7795C68.9271 57.7894 66.2689 54.4025 62.6261 52.4538C62.6261 52.361 62.6261 52.2682 62.6261 52.129C62.6261 44.7056 56.2265 38.674 48.3009 38.674C42.1475 38.674 36.9295 42.3394 34.9111 47.443C34.4681 47.3502 33.9758 47.3038 33.4836 47.3038C29.89 47.3038 26.7887 49.3916 25.558 52.361C23.7366 51.9898 21.7675 51.9898 19.6507 52.7786C15.811 54.2169 13.1035 57.6502 13.0543 61.5475C12.9558 66.9759 17.5832 71.3836 23.2935 71.3836H43.4767H61.9861C66.2196 71.3836 69.8132 68.2286 69.8132 64.2385C69.8132 64.1921 69.8132 64.1921 69.8132 64.1457C69.9117 63.357 69.8132 62.5683 69.6655 61.7795Z" fill="#1C6EBB"/>
<path opacity="0.3" d="M69.6655 61.7795C68.9271 57.7894 66.2689 54.4025 62.6261 52.4538C62.6261 52.361 62.6261 52.2682 62.6261 52.129C62.6261 44.7056 56.2265 38.674 48.3009 38.674C42.1475 38.674 36.9295 42.3394 34.9111 47.443C34.4681 47.3502 33.9758 47.3038 33.4836 47.3038C29.89 47.3038 26.7887 49.3916 25.558 52.361C23.7366 51.9898 21.7675 51.9898 19.6507 52.7786C15.811 54.2169 13.1035 57.6502 13.0543 61.5475C12.9558 66.9759 17.5832 71.3836 23.2935 71.3836H43.4767H61.9861C66.2196 71.3836 69.8132 68.2286 69.8132 64.2385C69.8132 64.1921 69.8132 64.1921 69.8132 64.1457C69.9117 63.357 69.8132 62.5683 69.6655 61.7795Z" fill="black"/>
<path d="M152.613 91.5178L145.327 29.0681L63.7086 37.5587L70.9942 99.8692L152.613 91.5178Z" fill="#1C6EBB"/>
<path opacity="0.8" d="M152.613 91.5178L145.327 29.0681L63.7086 37.5587L70.9942 99.8692L152.613 91.5178Z" fill="#FAFAFA"/>
<path d="M151.973 92.2614L144.688 29.8116L63.1183 38.3022L70.404 100.566L151.973 92.2614Z" fill="#FAFAFA"/>
<path d="M139.478 36.1225L69.6523 43.3789L75.517 93.5094L145.343 86.253L139.478 36.1225Z" fill="#1C6EBB"/>
<path opacity="0.8" d="M139.478 36.1225L69.6523 43.3789L75.517 93.5094L145.343 86.253L139.478 36.1225Z" fill="#FAFAFA"/>
<path d="M145.131 84.4674L145.328 86.2769L109.048 90.035L117.712 80.3845L126.573 70.4557L145.131 84.4674Z" fill="#1C6EBB"/>
<path opacity="0.3" d="M145.131 84.4674L145.328 86.2769L109.048 90.035L117.712 80.3845L126.573 70.4557L145.131 84.4674Z" fill="black"/>
<path d="M129.624 87.8977L75.5231 93.5581L75.0308 89.5216L96.2477 66.7873L117.711 80.3817L129.624 87.8977Z" fill="#1C6EBB"/>
<path opacity="0.3" d="M129.624 87.8977L75.5231 93.5581L75.0308 89.5216L96.2477 66.7873L117.711 80.3817L129.624 87.8977Z" fill="black"/>
<path d="M120.125 60.3419C123.585 57.4934 123.941 52.5399 120.918 49.2782C117.896 46.0165 112.64 45.6816 109.18 48.5303C105.719 51.3788 105.364 56.3321 108.386 59.5938C111.408 62.8557 116.664 63.1905 120.125 60.3419Z" fill="#1C6EBB"/>
<path opacity="0.1" d="M120.125 60.3419C123.585 57.4934 123.941 52.5399 120.918 49.2782C117.896 46.0165 112.64 45.6816 109.18 48.5303C105.719 51.3788 105.364 56.3321 108.386 59.5938C111.408 62.8557 116.664 63.1905 120.125 60.3419Z" fill="#FAFAFA"/>
<path opacity="0.7" d="M104.813 68.6012C105.157 66.6061 107.175 65.1678 109.686 65.1678H159.553C162.556 65.1678 165.214 67.1165 165.46 69.5755L172.155 140.655C172.451 143.068 170.235 145.063 167.233 145.063H42.1956C39.1927 145.063 36.5344 143.114 36.2883 140.655L30.9225 80.9891C30.6272 78.5764 32.8424 76.5814 35.8453 76.5814H93.4411C99.2991 76.5814 104.025 73.2872 104.813 68.6012Z" fill="#1C6EBB"/>
<path d="M165.609 44.0579L161.671 45.3106L159.16 46.9809L163.64 48.6048C163.64 48.6048 167.824 48.1872 168.858 46.0529L165.609 44.0579Z" fill="#E4897B"/>
</g>
</svg>
