<svg width="202" height="150" viewBox="0 0 202 150" fill="none" xmlns="http://www.w3.org/2000/svg">
<path d="M201.288 131.804H0V131.884H201.288V131.804Z" fill="#EBEBEB"/>
<path d="M181.119 138.285H167.794V138.366H181.119V138.285Z" fill="#EBEBEB"/>
<path d="M133.333 139.412H129.831V139.493H133.333V139.412Z" fill="#EBEBEB"/>
<path d="M167.391 134.581H159.662V134.662H167.391V134.581Z" fill="#EBEBEB"/>
<path d="M38.5266 135.225H21.1353V135.306H38.5266V135.225Z" fill="#EBEBEB"/>
<path d="M44.6459 135.225H42.1096V135.306H44.6459V135.225Z" fill="#EBEBEB"/>
<path d="M90.6601 136.957H52.9387V137.037H90.6601V136.957Z" fill="#EBEBEB"/>
<path d="M95.4106 113.849H17.6731C16.4251 113.849 15.3784 112.802 15.3784 111.554V2.29469C15.3784 1.0467 16.4251 0 17.6731 0H95.4106C96.6586 0 97.7053 1.0467 97.7053 2.29469V111.554C97.7053 112.842 96.6989 113.849 95.4106 113.849ZM17.6731 0.0805153C16.4654 0.0805153 15.4589 1.0467 15.4589 2.29469V111.554C15.4589 112.762 16.4251 113.768 17.6731 113.768H95.4106C96.6184 113.768 97.6248 112.802 97.6248 111.554V2.29469C97.6248 1.08696 96.6586 0.0805153 95.4106 0.0805153H17.6731Z" fill="#EBEBEB"/>
<path d="M182.488 113.849H104.751C103.503 113.849 102.456 112.802 102.456 111.554V2.29469C102.456 1.0467 103.503 0 104.751 0H182.488C183.736 0 184.783 1.0467 184.783 2.29469V111.554C184.783 112.842 183.776 113.849 182.488 113.849ZM104.751 0.0805153C103.543 0.0805153 102.536 1.0467 102.536 2.29469V111.554C102.536 112.762 103.503 113.768 104.751 113.768H182.488C183.696 113.768 184.702 112.802 184.702 111.554V2.29469C184.702 1.08696 183.736 0.0805153 182.488 0.0805153H104.751Z" fill="#EBEBEB"/>
<path d="M100.644 150C143.755 150 178.704 147.963 178.704 145.451C178.704 142.938 143.755 140.902 100.644 140.902C57.5329 140.902 22.5845 142.938 22.5845 145.451C22.5845 147.963 57.5329 150 100.644 150Z" fill="#1C6EBB" fill-opacity="0.2"/>
<path d="M31.1192 67.0692C31.0387 67.0692 30.9582 66.9887 30.9582 66.9082L30.0725 56.1594C30.0725 56.0789 30.153 55.9984 30.2335 55.9581C30.3141 55.9581 30.3946 56.0386 30.4348 56.1192L31.3205 66.868C31.2802 66.9887 31.1997 67.0692 31.1192 67.0692Z" fill="#407BFF"/>
<path d="M31.6425 73.43C31.562 73.43 31.4815 73.3494 31.4815 73.2689L31.1997 70.0081C31.1997 69.9275 31.2802 69.847 31.3607 69.8068C31.4413 69.8068 31.5218 69.8873 31.562 69.9678L31.8036 73.2689C31.8036 73.3494 31.7633 73.43 31.6425 73.43Z" fill="#407BFF"/>
<path d="M122.222 104.026H39.0902C36.9566 104.026 35.1047 102.295 34.9034 100.161L30.2335 43.921C30.0725 41.7874 31.6425 40.0563 33.7762 40.0563H116.908C119.042 40.0563 120.894 41.7874 121.095 43.921L125.765 100.201C125.926 102.295 124.316 104.026 122.222 104.026Z" fill="white"/>
<path d="M122.222 104.187H39.0901C36.8759 104.187 34.9436 102.375 34.7423 100.201L30.0724 43.921C29.9919 42.8341 30.3139 41.8276 31.0386 41.0627C31.7229 40.2978 32.7294 39.8953 33.7761 39.8953H116.908C119.122 39.8953 121.055 41.7069 121.256 43.8808L125.926 100.161C126.006 101.248 125.684 102.254 124.96 103.019C124.235 103.784 123.269 104.187 122.222 104.187ZM33.7761 40.2173C32.8099 40.2173 31.9242 40.5796 31.2801 41.3043C30.636 41.9887 30.3139 42.9146 30.3944 43.921L35.0643 100.201C35.2254 102.254 37.037 103.905 39.0901 103.905H122.222C123.188 103.905 124.074 103.543 124.718 102.818C125.362 102.134 125.684 101.208 125.604 100.201L120.934 43.921C120.773 41.8679 118.961 40.2173 116.908 40.2173H33.7761Z" fill="#407BFF"/>
<path d="M116.868 40.0563H33.7762C31.6425 40.0563 30.0725 41.7874 30.2335 43.921H121.055C120.894 41.7874 119.002 40.0563 116.868 40.0563Z" fill="#407BFF"/>
<path d="M35.7086 41.9886C35.7488 42.4314 35.3865 42.834 34.9437 42.834C34.5008 42.834 34.0983 42.4717 34.058 41.9886C34.0177 41.5055 34.3801 41.1432 34.8229 41.1432C35.2657 41.1432 35.6683 41.5055 35.7086 41.9886Z" fill="white"/>
<path d="M39.0901 41.9886C39.1304 42.4314 38.7681 42.834 38.3253 42.834C37.8824 42.834 37.4798 42.4717 37.4396 41.9886C37.3993 41.5055 37.7616 41.1432 38.2045 41.1432C38.6473 41.1432 39.0499 41.5055 39.0901 41.9886Z" fill="white"/>
<path d="M42.4717 41.9886C42.512 42.4314 42.1497 42.834 41.7068 42.834C41.264 42.834 40.8614 42.4717 40.8212 41.9886C40.7809 41.5458 41.1432 41.1432 41.5861 41.1432C42.0289 41.1432 42.4315 41.5055 42.4717 41.9886Z" fill="white"/>
<path d="M114.976 96.6586H45.0886C43.3978 96.6586 41.9082 95.2898 41.7875 93.599L38.4863 54.3478C38.3656 52.657 39.6136 51.2882 41.3044 51.2882H111.232C112.923 51.2882 114.412 52.657 114.533 54.3478L117.794 93.599C117.955 95.2898 116.667 96.6586 114.976 96.6586Z" fill="#ABABAD" fill-opacity="0.2"/>
<path opacity="0.1" d="M93.3575 58.1722L71.6989 84.2591C68.7198 87.8421 70.612 93.2768 75.1611 94.2833L110.306 101.852C115.177 102.898 119.203 98.1077 117.351 93.4781L103.865 59.7825C102.134 55.4346 96.3768 54.549 93.3575 58.1722Z" fill="#263238"/>
<path opacity="0.1" d="M45.1691 61.7954L37.6007 82.1255C36.5943 84.8228 38.7682 87.6811 41.6667 87.3993L63.6876 85.2254C66.7875 84.9033 68.3173 81.3204 66.3849 78.9049L51.8922 60.7487C50 58.3333 46.2158 58.9371 45.1691 61.7954Z" fill="#263238"/>
<path d="M100.845 51.57L80.5957 80.9581C77.8179 84.9436 80.2736 90.4589 85.1046 91.103L122.343 96.0547C127.496 96.7391 131.361 91.3848 129.026 86.7149L112.037 52.3751C109.823 47.9468 103.663 47.504 100.845 51.57Z" fill="#407BFF"/>
<path d="M85.9903 88.5265C84.6216 88.3655 83.4541 87.4798 82.8502 86.2318C82.2464 84.9839 82.2866 83.6151 83.0515 82.5281L103.341 53.0595C104.066 51.9726 105.314 51.4492 106.683 51.6505C108.052 51.8116 109.219 52.6972 109.823 53.9452L126.852 88.4058C127.456 89.6538 127.415 91.0225 126.651 92.1095C125.926 93.1964 124.678 93.7198 123.309 93.5185L85.9903 88.5265Z" fill="white"/>
<path d="M104.911 62.037L107.287 62.359C108.816 62.5603 109.984 63.9291 109.903 65.4589L109.742 68.5587C109.742 68.6795 109.742 68.8003 109.702 68.8808L108.011 78.2205C107.77 79.549 106.522 80.4347 105.153 80.2334C103.744 80.0321 102.617 78.8647 102.536 77.4556L101.852 67.8341C101.852 67.7133 101.852 67.5925 101.852 67.512L102.013 64.4122C102.093 62.8824 103.422 61.8357 104.911 62.037ZM104.75 82.8099L105.394 82.8904C106.763 83.0917 107.81 84.2995 107.729 85.6682C107.649 87.037 106.481 87.9629 105.153 87.7616L104.509 87.6811C103.14 87.4798 102.093 86.2721 102.174 84.9033C102.214 83.5748 103.382 82.6086 104.75 82.8099Z" fill="#407BFF"/>
<path d="M52.9389 56.0788L47.3833 77.1738C46.6587 79.9516 49.0741 82.5683 51.9324 82.0047L73.5105 77.7777C76.5299 77.1738 77.7376 73.4701 75.6039 71.256L59.5814 54.388C57.4477 52.1738 53.7038 53.0998 52.9389 56.0788Z" fill="#407BFF"/>
<path d="M51.8921 80.314C51.1272 80.475 50.2818 80.1932 49.7182 79.5894C49.1546 78.9855 48.913 78.1401 49.1143 77.3752L54.6699 56.2399C54.8711 55.475 55.475 54.9114 56.2399 54.7906C57.0048 54.6296 57.8502 54.9114 58.4138 55.5153L74.4766 72.4235C75.0402 73.0274 75.2818 73.8728 75.0805 74.6377C74.8792 75.4026 74.2753 75.9662 73.5104 76.0869L51.8921 80.314Z" fill="white"/>
<path d="M57.2867 61.1916L58.6554 60.9098C59.5411 60.7488 60.467 61.3124 60.7086 62.2383L61.2319 64.0902C61.2319 64.1707 61.2722 64.2109 61.2722 64.2914L62.1176 70.0885C62.2384 70.934 61.715 71.6586 60.9099 71.8196C60.1047 71.9807 59.2593 71.4976 58.9372 70.6924L56.7231 65.1771C56.6828 65.0966 56.6828 65.0563 56.6426 64.9758L56.1192 63.124C55.8777 62.2383 56.401 61.3526 57.2867 61.1916ZM61.1514 73.3897L61.5137 73.3092C62.3189 73.1481 63.124 73.6715 63.3253 74.4766C63.5266 75.2818 63.0838 76.0467 62.2786 76.2077L61.9163 76.2882C61.1112 76.4493 60.306 75.9259 60.1047 75.1208C59.9034 74.3156 60.3865 73.5104 61.1514 73.3897Z" fill="#407BFF"/>
<path d="M156.361 60.8292L153.221 61.8357L155.717 64.8147C155.717 64.8147 156.884 63.8083 157.528 62.6811C157.81 62.198 157.649 61.5941 157.166 61.3526L156.361 60.8292Z" fill="#7F3E3B"/>
<path d="M151.771 64.2914L153.663 66.5458L155.716 64.8148L153.221 61.8357L151.771 64.2914Z" fill="#7F3E3B"/>
<path d="M157.367 36.5137C158.132 38.6071 158.817 40.7005 159.501 42.8341C160.145 44.9678 160.789 47.1014 161.312 49.3156L161.514 50.161L161.594 50.6038L161.635 50.8454V50.8857V50.9662L161.675 51.1272C161.796 52.0531 161.675 52.7375 161.554 53.4219C161.272 54.7504 160.87 55.8373 160.387 56.9243C159.42 59.058 158.293 60.9903 156.924 62.8824L154.831 61.715C155.556 59.7021 156.321 57.6489 156.844 55.6361C157.126 54.6296 157.327 53.6634 157.407 52.7778C157.448 52.3349 157.407 51.9726 157.367 51.7713L157.206 51.1272L156.965 50.4026C156.321 48.3897 155.596 46.2963 154.912 44.2431C154.187 42.19 153.502 40.0966 152.818 38.0435L157.367 36.5137Z" fill="#7F3E3B"/>
<path d="M139.976 24.0741C140.016 24.3156 139.936 24.5572 139.775 24.5974C139.614 24.6377 139.453 24.4767 139.372 24.2351C139.332 23.9936 139.412 23.752 139.573 23.7118C139.734 23.6312 139.895 23.8325 139.976 24.0741Z" fill="#263238"/>
<path d="M139.936 24.5571C139.936 24.5571 139.694 26.1674 139.211 27.0128C139.734 27.3349 140.459 26.9323 140.459 26.9323L139.936 24.5571Z" fill="#630F0F"/>
<path d="M139.292 22.5442C139.251 22.5442 139.211 22.5039 139.171 22.4637C139.13 22.3832 139.13 22.3027 139.211 22.2624C139.251 22.2624 139.815 21.8598 140.58 22.1416C140.66 22.1819 140.701 22.2624 140.66 22.3429C140.62 22.4234 140.539 22.4637 140.459 22.4234C139.855 22.1819 139.372 22.5039 139.372 22.5039C139.372 22.5442 139.332 22.5442 139.292 22.5442Z" fill="#263238"/>
<path d="M148.591 24.8792C148.873 27.818 148.47 30.636 149.114 33.1722C149.114 33.1722 148.39 35.5474 144.082 35.5474C139.332 35.5474 141.908 33.1722 141.908 33.1722C144.525 32.5684 144.525 30.636 144.163 28.8244L148.591 24.8792Z" fill="#7F3E3B"/>
<path d="M150.04 33.9775C150.402 33.2126 150.644 32.1659 149.879 31.9243C149.034 31.6425 144.525 31.5217 142.915 32.0853C141.264 32.649 141.667 34.1385 141.667 34.1385L150.04 33.9775Z" fill="#263238"/>
<path d="M159.742 139.976C160.064 139.895 160.386 139.774 160.588 139.654C160.628 139.654 160.628 139.613 160.628 139.573C160.628 139.533 160.588 139.493 160.588 139.493C160.427 139.452 159.179 139.05 158.857 139.332C158.816 139.372 158.736 139.452 158.776 139.573C158.816 139.774 158.897 139.895 159.058 139.976C159.219 140.056 159.501 140.056 159.742 139.976ZM160.346 139.613C159.783 139.855 159.34 139.935 159.138 139.855C159.058 139.815 158.977 139.734 158.977 139.573C158.977 139.493 158.977 139.493 159.018 139.452C159.138 139.291 159.823 139.452 160.346 139.613Z" fill="#407BFF"/>
<path d="M160.588 139.654C160.588 139.654 160.628 139.654 160.628 139.613C160.668 139.573 160.668 139.573 160.628 139.533C160.628 139.493 160.306 138.527 159.823 138.325C159.702 138.285 159.581 138.245 159.461 138.285C159.259 138.366 159.259 138.486 159.259 138.567C159.259 138.969 160.145 139.533 160.507 139.654C160.548 139.654 160.548 139.654 160.588 139.654ZM159.581 138.446C159.662 138.446 159.702 138.446 159.783 138.486C160.064 138.647 160.306 139.171 160.427 139.452C160.024 139.251 159.461 138.808 159.461 138.567C159.42 138.567 159.42 138.527 159.581 138.446Z" fill="#407BFF"/>
<path d="M137.762 142.431C138.084 142.431 138.446 142.351 138.688 142.311C138.728 142.311 138.728 142.27 138.768 142.23C138.768 142.19 138.768 142.15 138.728 142.15C138.607 142.069 137.48 141.385 137.118 141.586C137.077 141.626 136.997 141.667 136.957 141.828C136.957 142.029 136.997 142.15 137.118 142.27C137.238 142.391 137.48 142.431 137.762 142.431ZM138.406 142.19C137.802 142.311 137.359 142.27 137.158 142.109C137.077 142.029 137.037 141.948 137.037 141.828C137.037 141.747 137.077 141.747 137.077 141.747C137.319 141.667 137.963 141.948 138.406 142.19Z" fill="#407BFF"/>
<path d="M138.647 142.311H138.687C138.728 142.311 138.728 142.271 138.728 142.23C138.728 142.19 138.647 141.184 138.245 140.861C138.124 140.781 138.003 140.741 137.882 140.741C137.681 140.781 137.641 140.902 137.641 140.942C137.56 141.345 138.245 142.109 138.647 142.311ZM137.923 140.902C138.003 140.902 138.043 140.942 138.124 140.982C138.365 141.184 138.486 141.787 138.526 142.069C138.164 141.787 137.721 141.224 137.762 140.982C137.802 140.982 137.802 140.942 137.923 140.902Z" fill="#407BFF"/>
<path d="M142.391 142.19H139.211L139.171 134.823H142.351L142.391 142.19Z" fill="#7F3E3B"/>
<path d="M164.533 139.493L161.473 140.056L159.259 132.81L162.319 132.246L164.533 139.493Z" fill="#7F3E3B"/>
<path d="M160.869 139.211L164.332 138.406C164.452 138.365 164.573 138.446 164.654 138.567L165.821 141.184C165.942 141.465 165.781 141.787 165.459 141.828C164.251 142.109 163.647 142.15 162.117 142.512C161.192 142.754 159.259 143.277 157.971 143.599C156.683 143.881 156.24 142.633 156.763 142.391C159.058 141.304 159.782 140.378 160.427 139.493C160.507 139.372 160.708 139.251 160.869 139.211Z" fill="#263238"/>
<path d="M139.251 141.828H142.713C142.834 141.828 142.955 141.908 142.995 142.029L143.519 144.847C143.559 145.129 143.358 145.411 143.036 145.411C141.788 145.37 139.976 145.33 138.406 145.33C136.554 145.33 135.91 145.411 133.736 145.411C132.448 145.411 132.126 144.082 132.689 143.961C135.185 143.398 136.272 143.357 138.486 142.029C138.688 141.948 138.969 141.828 139.251 141.828Z" fill="#263238"/>
<path d="M156.2 33.9774C159.179 36.0708 160.065 41.4251 160.065 41.4251L153.341 44.847C153.341 44.847 151.651 41.5459 150.886 38.1642C150.161 34.9839 154.106 32.4879 156.2 33.9774Z" fill="#407BFF"/>
<path opacity="0.2" d="M152.818 37.3994L155.475 43.7601L153.341 44.8471C153.341 44.8471 152.416 43.0355 151.61 40.7005L152.818 37.3994Z" fill="black"/>
<path d="M136.433 47.9469C136.473 51.4895 136.675 55.9179 137.198 61.3929H154.187C154.388 58.8969 153.341 47.1417 155.878 35.3462C156.079 34.4605 155.475 33.6151 154.589 33.4944C153.502 33.3333 152.013 33.132 150.564 33.0515C148.39 32.9307 145.25 32.8905 143.357 33.0515C142.311 33.132 141.304 33.2931 140.459 33.4944C139.01 33.7762 137.842 34.8631 137.48 36.2721C137.117 37.6409 136.755 39.7343 136.554 42.9146C136.473 44.3237 136.433 46.0145 136.433 47.9469Z" fill="#407BFF"/>
<path opacity="0.2" d="M141.787 41.2641C140.66 42.1095 138.527 42.4718 136.554 42.6328C136.594 42.1095 136.634 41.6264 136.675 41.1433C137.198 40.8615 137.721 40.62 138.205 40.3784L141.787 41.2641Z" fill="black"/>
<g opacity="0.2">
<path d="M139.171 134.863V138.929H142.351V134.863H139.171Z" fill="black"/>
<path d="M162.319 132.246L159.259 132.81L160.386 136.514L163.446 135.99L162.319 132.246Z" fill="black"/>
</g>
<path d="M148.148 21.4573C148.631 24.5974 149.034 26.3687 147.826 28.3414C146.014 31.3204 141.948 30.8373 140.58 27.9388C139.332 25.322 138.768 20.6521 141.506 18.6795C144.203 16.7472 147.665 18.3172 148.148 21.4573Z" fill="#7F3E3B"/>
<path d="M141.627 23.7117C140.459 23.1884 140.58 21.3365 140.902 20.5716C139.533 21.0547 137.56 21.2963 137.198 19.9275C136.836 18.5587 138.044 18.0756 137.319 16.9082C136.594 15.7407 138.929 14.4122 140.016 16.0628C141.103 17.7133 143.8 16.9887 145.572 15.3784C146.86 14.2109 148.712 15.7004 147.947 17.2302C147.947 17.2302 151.771 16.9887 151.007 19.5652C150.242 22.1417 149.155 22.2624 149.437 24.1143C149.598 25.3623 149.759 27.8985 148.269 28.2608C146.498 28.7037 141.949 27.1336 141.627 23.7117Z" fill="#263238"/>
<path opacity="0.2" d="M141.626 27.1336C141.264 27.3752 140.902 27.657 140.54 27.9388V27.979C140.902 28.7842 141.506 29.3881 142.19 29.7906C142.432 29.5894 142.552 28.8245 142.955 28.8245C144.243 28.8647 146.699 28.3414 147.102 26.8921L141.626 27.1336Z" fill="black"/>
<path d="M142.593 23.6714C142.673 24.4766 142.552 25.2415 142.27 25.7246C141.908 26.4492 141.345 26.0064 141.103 25.0804C140.902 24.2753 140.861 22.9065 141.385 22.5039C141.948 22.1014 142.512 22.7857 142.593 23.6714Z" fill="#7F3E3B"/>
<path d="M143.237 61.3929C143.237 61.3929 145.894 85.6683 147.544 94.7665C149.316 104.71 158.575 135.99 158.575 135.99L164.251 134.783C164.251 134.783 157.891 105.515 157.045 95.6522C156.119 84.9436 154.227 61.3527 154.227 61.3527H143.237V61.3929Z" fill="#407BFF"/>
<path opacity="0.3" d="M143.237 61.3929C143.237 61.3929 145.894 85.6683 147.544 94.7665C149.316 104.71 158.575 135.99 158.575 135.99L164.251 134.783C164.251 134.783 157.891 105.515 157.045 95.6522C156.16 85.467 156.16 85.5073 154.227 61.3527H143.237V61.3929Z" fill="black"/>
<path d="M157.246 134.058C157.206 134.058 158.212 136.151 158.212 136.151L164.613 134.783L164.171 132.85L157.246 134.058Z" fill="#263238"/>
<path opacity="0.2" d="M145.169 70.008C149.316 70.8132 148.269 86.3929 147.464 94.3639C146.498 88.7278 145.129 77.818 144.243 70.1288C144.525 70.008 144.807 69.9678 145.169 70.008Z" fill="black"/>
<path d="M137.198 61.3928C137.198 61.3928 135.829 85.1448 135.829 94.8469C135.789 104.911 138.044 137.923 138.044 137.923H143.438C143.438 137.923 144.887 105.515 145.491 95.6118C146.176 84.8228 148.39 61.3928 148.39 61.3928H137.198Z" fill="#407BFF"/>
<path opacity="0.3" d="M137.198 61.3928C137.198 61.3928 135.829 85.1448 135.829 94.8469C135.789 104.911 138.044 137.923 138.044 137.923H143.438C143.438 137.923 144.887 105.515 145.491 95.6118C146.176 84.8228 148.39 61.3928 148.39 61.3928H137.198Z" fill="black"/>
<path d="M137.077 135.749C137.037 135.749 137.279 138.003 137.279 138.003H143.841L144.082 135.99L137.077 135.749Z" fill="#263238"/>
<path d="M143.921 38.9693C143.277 39.0498 142.713 39.0498 142.15 39.0901C141.586 39.0901 140.982 39.1303 140.419 39.1303C139.251 39.1303 138.084 39.0498 136.916 38.929C135.749 38.8083 134.581 38.607 133.414 38.3252C132.246 38.0434 131.039 37.6408 129.871 37.0772L129.75 36.9967C128.704 36.4733 128.261 35.2253 128.784 34.1786C128.824 34.0579 128.905 33.9371 128.985 33.8566C129.549 33.1319 130.072 32.6086 130.596 32.1255C131.119 31.6424 131.683 31.1996 132.246 30.797C133.333 29.9516 134.46 29.227 135.588 28.5426C136.715 27.8582 137.842 27.1738 139.01 26.5297C140.177 25.9258 141.345 25.2817 142.552 24.7181C143.156 24.4363 143.881 24.7181 144.163 25.2817C144.404 25.8051 144.243 26.4089 143.8 26.731C142.794 27.4959 141.747 28.2608 140.741 29.0659C139.734 29.8308 138.728 30.636 137.721 31.4411C136.715 32.2463 135.749 33.0514 134.863 33.8566C134.42 34.2592 133.977 34.702 133.575 35.1046C133.172 35.5071 132.81 35.95 132.609 36.272L131.723 33.0514C132.528 33.3735 133.454 33.615 134.42 33.7761C135.386 33.9371 136.393 34.0579 137.399 34.1384C138.406 34.2189 139.452 34.2189 140.499 34.2189C141.022 34.2189 141.546 34.2189 142.069 34.2189C142.593 34.2189 143.116 34.1786 143.559 34.1384H143.599C144.927 34.0579 146.055 35.0643 146.135 36.3928C146.175 37.7213 145.209 38.8485 143.921 38.9693Z" fill="#7F3E3B"/>
<path d="M146.176 24.0741L144.163 24.5169C144.163 24.5169 141.465 24.1949 140.862 26.2077L142.472 27.5765L144.928 27.9791C145.33 28.0596 145.733 27.9791 146.055 27.7778L146.699 27.4557C146.981 27.2947 147.182 27.0129 147.222 26.6908L147.383 25.0805C147.383 24.4364 146.82 23.9131 146.176 24.0741Z" fill="#7F3E3B"/>
<path d="M142.271 41.3043C138.889 42.2303 135.024 41.0628 135.024 41.0628L136.433 33.4944C136.433 33.4944 139.815 33.2126 141.908 33.1723C147.303 33.0515 148.349 39.6135 142.271 41.3043Z" fill="#407BFF"/>
</svg>
