<svg width="202" height="150" viewBox="0 0 202 150" fill="none" xmlns="http://www.w3.org/2000/svg">
<path d="M201.288 131.804H0V131.884H201.288V131.804Z" fill="#EBEBEB"/>
<path d="M181.119 138.285H167.794V138.366H181.119V138.285Z" fill="#EBEBEB"/>
<path d="M109.984 137.037H104.791V137.118H109.984V137.037Z" fill="#EBEBEB"/>
<path d="M140.741 137.48H129.831V137.56H140.741V137.48Z" fill="#EBEBEB"/>
<path d="M167.391 134.581H144.807V134.662H167.391V134.581Z" fill="#EBEBEB"/>
<path d="M31.8035 139.211H21.1353V139.292H31.8035V139.211Z" fill="#EBEBEB"/>
<path d="M44.6457 139.211H35.3865V139.292H44.6457V139.211Z" fill="#EBEBEB"/>
<path d="M77.2142 136.997H52.7375V137.077H77.2142V136.997Z" fill="#EBEBEB"/>
<path d="M95.4106 113.849H17.6731C16.4251 113.849 15.3784 112.802 15.3784 111.554V2.29469C15.3784 1.0467 16.4251 0 17.6731 0H95.4106C96.6586 0 97.7053 1.0467 97.7053 2.29469V111.554C97.7053 112.842 96.6989 113.849 95.4106 113.849ZM17.6731 0.0805153C16.4654 0.0805153 15.4589 1.0467 15.4589 2.29469V111.554C15.4589 112.762 16.4251 113.768 17.6731 113.768H95.4106C96.6184 113.768 97.6248 112.802 97.6248 111.554V2.29469C97.6248 1.08696 96.6586 0.0805153 95.4106 0.0805153H17.6731Z" fill="#EBEBEB"/>
<path d="M182.488 113.849H104.751C103.503 113.849 102.456 112.802 102.456 111.554V2.29469C102.456 1.0467 103.503 0 104.751 0H182.488C183.736 0 184.783 1.0467 184.783 2.29469V111.554C184.783 112.842 183.776 113.849 182.488 113.849ZM104.751 0.0805153C103.543 0.0805153 102.536 1.0467 102.536 2.29469V111.554C102.536 112.762 103.503 113.768 104.751 113.768H182.488C183.696 113.768 184.702 112.802 184.702 111.554V2.29469C184.702 1.08696 183.736 0.0805153 182.488 0.0805153H104.751Z" fill="#EBEBEB"/>
<path d="M100.644 150C143.755 150 178.704 147.963 178.704 145.451C178.704 142.938 143.755 140.902 100.644 140.902C57.5332 140.902 22.5847 142.938 22.5847 145.451C22.5847 147.963 57.5332 150 100.644 150Z" fill="#1C6EBB" fill-opacity="0.2"/>
<path d="M26.0856 87.3958L25.6858 87.4426L26.4109 93.6401L26.8107 93.5933L26.0856 87.3958Z" fill="#407BFF"/>
<path d="M27.1127 95.9162L26.7129 95.963L27.0778 99.0817L27.4776 99.0349L27.1127 95.9162Z" fill="#407BFF"/>
<path d="M54.1866 74.7585L53.7035 73.3897C53.0191 71.4573 51.0868 70.2899 49.0739 70.5314L29.8307 72.7858C27.4153 73.0676 25.7244 75.2416 26.0063 77.657L31.4813 124.477C31.6826 126.127 33.1721 127.295 34.8227 127.093L103.663 119.042C105.314 118.841 106.481 117.351 106.28 115.7L101.53 75.2416C101.328 73.591 99.8388 72.4235 98.1882 72.6248L58.2124 77.2947C56.441 77.496 54.7905 76.4493 54.1866 74.7585Z" fill="#407BFF"/>
<path d="M56.1008 54.405L34.3469 58.7416L40.3205 88.7074L62.0744 84.3708L56.1008 54.405Z" fill="#407BFF"/>
<path opacity="0.7" d="M56.1008 54.405L34.3469 58.7416L40.3205 88.7074L62.0744 84.3708L56.1008 54.405Z" fill="white"/>
<g opacity="0.4">
<path d="M53.1804 61.6344L39.7746 64.2914C39.1305 64.4122 38.4864 64.0096 38.3656 63.3655C38.2448 62.7214 38.6474 62.0773 39.2915 61.9565L52.6973 59.2995C53.3414 59.1787 53.9856 59.5813 54.1063 60.2254C54.2674 60.8695 53.8648 61.4734 53.1804 61.6344Z" fill="#407BFF"/>
<path d="M54.1868 66.5861L40.781 69.2431C40.1368 69.3639 39.4927 68.9613 39.3719 68.3172C39.2512 67.6731 39.6537 67.0289 40.2979 66.9082L53.7037 64.2512C54.3478 64.1304 54.9919 64.533 55.1127 65.1771C55.2737 65.8212 54.8309 66.4653 54.1868 66.5861Z" fill="#407BFF"/>
<path d="M55.1931 71.5377L41.7873 74.1947C41.1432 74.3155 40.4991 73.9129 40.3783 73.2688C40.2575 72.6247 40.6601 71.9805 41.3042 71.8598L54.71 69.2028C55.3541 69.082 55.9983 69.4846 56.119 70.1287C56.2398 70.7728 55.8372 71.4169 55.1931 71.5377Z" fill="#407BFF"/>
<path d="M56.1594 76.4895L42.7536 79.1465C42.1095 79.2673 41.4654 78.8647 41.3446 78.2206C41.2238 77.5764 41.6264 76.9323 42.2705 76.8115L55.6763 74.1545C56.3204 74.0338 56.9646 74.4363 57.0853 75.0805C57.2464 75.7246 56.8035 76.3687 56.1594 76.4895Z" fill="#407BFF"/>
<path d="M53.5023 82.1658L43.76 84.0981C43.1158 84.2189 42.4717 83.8163 42.3509 83.1722C42.2302 82.5281 42.6328 81.8839 43.2769 81.7632L53.0192 79.8308C53.6633 79.71 54.3075 80.1126 54.4282 80.7567C54.549 81.4009 54.1464 82.045 53.5023 82.1658Z" fill="#407BFF"/>
</g>
<path d="M87.1212 48.6362L65.1433 51.644L69.2866 81.9185L91.2645 78.9106L87.1212 48.6362Z" fill="#407BFF"/>
<path opacity="0.7" d="M87.1212 48.6362L65.1433 51.644L69.2866 81.9185L91.2645 78.9106L87.1212 48.6362Z" fill="white"/>
<g opacity="0.4">
<path d="M83.7761 55.636L70.2495 57.4879C69.6054 57.5684 69.0016 57.1256 68.8808 56.4815C68.8003 55.8373 69.2431 55.2335 69.8872 55.1127L83.4138 53.2608C84.0579 53.1803 84.6618 53.6232 84.7826 54.2673C84.8631 54.9517 84.4202 55.5555 83.7761 55.636Z" fill="#407BFF"/>
<path d="M84.4604 60.6682L70.9339 62.5201C70.2897 62.6006 69.6859 62.1577 69.5651 61.5136C69.4846 60.8695 69.9274 60.2656 70.5715 60.1449L84.0981 58.293C84.7422 58.2125 85.3461 58.6553 85.4669 59.2995C85.5474 59.9838 85.1046 60.5877 84.4604 60.6682Z" fill="#407BFF"/>
<path d="M75.3221 66.9886L71.5782 67.512C70.934 67.5925 70.3302 67.1497 70.2094 66.5056C70.1289 65.8614 70.5717 65.2576 71.2158 65.1368L74.9598 64.6134C75.6039 64.5329 76.2078 64.9758 76.3286 65.6199C76.4493 66.3043 75.9662 66.9081 75.3221 66.9886Z" fill="#407BFF"/>
<path d="M82.5685 66.0225L78.8245 66.5458C78.1804 66.6263 77.5765 66.1835 77.4557 65.5394C77.3752 64.8952 77.8181 64.2914 78.4622 64.1706L82.2061 63.6473C82.8503 63.5667 83.4541 64.0096 83.5749 64.6537C83.6554 65.3381 83.2126 65.9419 82.5685 66.0225Z" fill="#407BFF"/>
<path d="M85.8293 70.6521L72.3028 72.504C71.6586 72.5845 71.0548 72.1416 70.934 71.4975C70.8535 70.8534 71.2963 70.2495 71.9404 70.1287L85.467 68.2769C86.1111 68.1964 86.715 68.6392 86.8358 69.2833C86.9163 69.9677 86.4735 70.5716 85.8293 70.6521Z" fill="#407BFF"/>
<path d="M82.81 76.1674L72.9871 77.4959C72.343 77.5764 71.7391 77.1336 71.6183 76.4895C71.5378 75.8454 71.9806 75.2415 72.6248 75.1207L82.4476 73.7922C83.0918 73.7117 83.6956 74.1545 83.8164 74.7987C83.8969 75.483 83.4541 76.0869 82.81 76.1674Z" fill="#407BFF"/>
</g>
<path d="M66.3823 53.0369L44.2847 54.9628L46.9376 85.4023L69.0353 83.4763L66.3823 53.0369Z" fill="#407BFF"/>
<path opacity="0.8" d="M66.3823 53.0369L44.2847 54.9628L46.9376 85.4023L69.0353 83.4763L66.3823 53.0369Z" fill="white"/>
<g opacity="0.4">
<path d="M62.6811 59.9034L49.074 61.0708C48.4299 61.1111 47.826 60.628 47.7858 59.9839C47.7455 59.3398 48.2286 58.7359 48.8727 58.6956L62.4798 57.5282C63.124 57.4879 63.7278 57.971 63.7681 58.6151C63.8486 59.2592 63.3252 59.8631 62.6811 59.9034Z" fill="#407BFF"/>
<path d="M63.124 64.9355L49.5169 66.103C48.8728 66.1433 48.2689 65.6602 48.2287 65.016C48.1884 64.3719 48.6715 63.7681 49.3156 63.7278L62.9227 62.5603C63.5668 62.5201 64.1707 63.0032 64.2109 63.6473C64.2915 64.2914 63.7681 64.8953 63.124 64.9355Z" fill="#407BFF"/>
<path d="M63.5669 69.9678L49.9598 71.1352C49.3157 71.1755 48.7118 70.6924 48.6715 70.0483C48.6313 69.4042 49.1144 68.8003 49.7585 68.76L63.3656 67.5926C64.0097 67.5523 64.6136 68.0354 64.6538 68.6795C64.6941 69.3236 64.211 69.9275 63.5669 69.9678Z" fill="#407BFF"/>
<path d="M64.0095 75L50.4024 76.1675C49.7583 76.2078 49.1544 75.7247 49.1142 75.0806C49.0739 74.4364 49.557 73.8326 50.2011 73.7923L63.8082 72.6248C64.4523 72.5846 65.0562 73.0677 65.0964 73.7118C65.1367 74.3559 64.6536 74.9598 64.0095 75Z" fill="#407BFF"/>
<path d="M60.7084 80.3543L50.805 81.1997C50.1609 81.24 49.557 80.7569 49.5167 80.1127C49.4765 79.4686 49.9596 78.8648 50.6037 78.8245L60.5071 77.9791C61.1512 77.9388 61.7551 78.4219 61.7953 79.066C61.8758 79.7102 61.3928 80.314 60.7084 80.3543Z" fill="#407BFF"/>
</g>
<path d="M93.2891 51.5744L71.1338 52.644L72.6072 83.1629L94.7625 82.0933L93.2891 51.5744Z" fill="#407BFF"/>
<path opacity="0.8" d="M93.2891 51.5744L71.1338 52.644L72.6072 83.1629L94.7625 82.0933L93.2891 51.5744Z" fill="white"/>
<g opacity="0.4">
<path d="M89.3316 58.2528L75.6842 58.8969C75.0401 58.9372 74.4765 58.4138 74.4363 57.7697C74.396 57.1256 74.9194 56.562 75.5635 56.5217L89.2108 55.8776C89.8549 55.8373 90.4185 56.3607 90.4588 57.0048C90.5393 57.6892 90.016 58.2528 89.3316 58.2528Z" fill="#407BFF"/>
<path d="M89.5733 63.3252L75.9259 63.9693C75.2818 64.0096 74.7182 63.4862 74.678 62.8421C74.6377 62.198 75.1611 61.6344 75.8052 61.5941L89.4525 60.95C90.0966 60.9097 90.6602 61.4331 90.7005 62.0772C90.781 62.7213 90.2577 63.2849 89.5733 63.3252Z" fill="#407BFF"/>
<path d="M79.9516 68.8405L76.2077 69.0418C75.5636 69.0821 75 68.5587 74.9597 67.9146C74.9194 67.2705 75.4428 66.7069 76.0869 66.6666L79.8309 66.4653C80.475 66.4251 81.0386 66.9484 81.0789 67.5925C81.1191 68.2366 80.5958 68.8003 79.9516 68.8405Z" fill="#407BFF"/>
<path d="M87.2383 68.4782L83.4943 68.6795C82.8502 68.7198 82.2866 68.1964 82.2463 67.5523C82.2061 66.9082 82.7294 66.3446 83.3735 66.3043L87.1175 66.103C87.7616 66.0627 88.3252 66.5861 88.3655 67.2302C88.4057 67.9146 87.9226 68.4782 87.2383 68.4782Z" fill="#407BFF"/>
<path d="M90.0965 73.4298L76.4491 74.0739C75.805 74.1142 75.2414 73.5908 75.2012 72.9467C75.1609 72.3026 75.6842 71.739 76.3284 71.6987L89.9757 71.0546C90.6198 71.0143 91.1834 71.5377 91.2237 72.1818C91.264 72.8259 90.7406 73.3895 90.0965 73.4298Z" fill="#407BFF"/>
<path d="M86.594 78.6231L76.6906 79.1062C76.0465 79.1465 75.4829 78.6231 75.4426 77.979C75.4023 77.3349 75.9257 76.7713 76.5698 76.731L86.4732 76.2479C87.1173 76.2076 87.6809 76.731 87.7212 77.3751C87.7614 78.0595 87.2381 78.6231 86.594 78.6231Z" fill="#407BFF"/>
</g>
<path d="M60.3059 75.6441L59.9436 74.3156C59.4605 72.4235 57.6489 71.256 55.636 71.4976L36.3929 73.752C33.9774 74.0338 32.0853 76.1675 32.1658 78.5024L33.2528 124.316C33.293 125.926 34.6618 127.093 36.3123 126.892L105.153 118.841C106.803 118.639 108.092 117.19 108.051 115.58L107.126 75.9662C107.085 74.3559 105.717 73.1884 104.066 73.3897L64.0901 78.0998C62.3188 78.3011 60.7487 77.2947 60.3059 75.6441Z" fill="#407BFF"/>
<path opacity="0.3" d="M60.3059 75.6441L59.9436 74.3156C59.4605 72.4235 57.6489 71.256 55.636 71.4976L36.3929 73.752C33.9774 74.0338 32.0853 76.1675 32.1658 78.5024L33.2528 124.316C33.293 125.926 34.6618 127.093 36.3123 126.892L105.153 118.841C106.803 118.639 108.092 117.19 108.051 115.58L107.126 75.9662C107.085 74.3559 105.717 73.1884 104.066 73.3897L64.0901 78.0998C62.3188 78.3011 60.7487 77.2947 60.3059 75.6441Z" fill="black"/>
<path d="M127.617 53.6232C127.335 55.1127 127.013 56.6023 126.651 58.0516C126.288 59.5411 125.926 60.9904 125.564 62.4396L124.96 64.6136L124.879 64.8954C124.839 65.0161 124.799 65.1369 124.758 65.2577C124.678 65.4992 124.557 65.781 124.356 66.0226C124.195 66.3044 123.913 66.5459 123.591 66.7875C123.269 67.029 122.866 67.1498 122.504 67.19C121.739 67.2303 121.216 67.029 120.773 66.8277C120.33 66.5862 119.968 66.3446 119.646 66.0628C119.002 65.4992 118.478 64.8954 117.995 64.211L119.122 63.2045C119.686 63.6071 120.29 64.0499 120.853 64.372C121.135 64.533 121.417 64.6538 121.699 64.7343C121.94 64.8148 122.142 64.8148 122.182 64.7746H122.142C122.101 64.7746 122.142 64.7746 122.142 64.6941C122.142 64.6538 122.182 64.5733 122.222 64.4525L122.303 64.0097L122.786 61.7955L123.712 57.4074C124.034 55.9582 124.356 54.4686 124.678 53.0193L127.617 53.6232Z" fill="#FFC3BD"/>
<path d="M126.288 48.9936C122.866 51.6104 122.987 56.5621 122.987 56.5621L129.147 58.0114C129.147 58.0114 131.039 53.0194 130.274 51.2078C129.469 49.356 128.221 47.5444 126.288 48.9936Z" fill="#263238"/>
<path d="M119.485 63.2851L117.23 61.0306L116.023 64.5733C116.023 64.5733 117.915 65.62 119.767 64.6136L119.485 63.2851Z" fill="#FFC3BD"/>
<path d="M114.09 60.6683L113.688 63.4863L115.982 64.5733L117.19 61.0306L114.09 60.6683Z" fill="#FFC3BD"/>
<path d="M146.175 142.472L142.713 142.794L139.13 134.581L142.593 134.259L146.175 142.472Z" fill="#FFC3BD"/>
<path d="M168.438 130.314L165.862 132.77L160.226 126.61L162.842 124.155L168.438 130.314Z" fill="#FFC3BD"/>
<path d="M164.654 131.602L166.586 128.1C166.667 127.979 166.788 127.899 166.949 127.979L169.968 129.106C170.29 129.227 170.411 129.63 170.25 129.911C169.565 131.119 169.163 131.683 168.277 133.213C167.754 134.179 166.707 136.353 165.982 137.641C165.258 138.929 163.929 138.285 164.09 137.681C164.936 134.944 164.775 133.414 164.533 132.206C164.493 132.005 164.533 131.763 164.654 131.602Z" fill="#263238"/>
<path d="M142.271 141.747H146.498C146.659 141.747 146.779 141.868 146.82 141.989L147.746 145.33C147.826 145.692 147.585 146.015 147.222 146.015C145.733 146.015 145.008 146.015 143.156 146.015C141.989 146.015 139.05 146.015 137.44 146.015C135.87 146.015 135.548 144.444 136.192 144.324C139.05 143.68 140.741 142.794 141.626 141.989C141.828 141.828 142.029 141.747 142.271 141.747Z" fill="#263238"/>
<path opacity="0.2" d="M139.13 134.581L140.982 138.849H144.605L142.593 134.259L139.13 134.581Z" fill="black"/>
<path opacity="0.2" d="M162.842 124.155L160.226 126.61L163.124 129.791L165.741 127.335L162.842 124.155Z" fill="black"/>
<path d="M127.335 48.5106C127.335 48.5106 125.765 49.1949 130.998 69.8069C136.755 69.3238 142.673 68.8004 145.451 68.5589C144.686 62.6813 144.364 59.0581 146.135 46.7392C146.135 46.7392 143.036 46.3366 139.936 46.4574C137.48 46.5379 135.507 46.6587 133.374 47.021C130.556 47.5041 127.335 48.5106 127.335 48.5106Z" fill="#263238"/>
<path d="M139.935 46.3366C139.935 46.3366 140.741 46.3366 141.707 46.3366C142.27 47.2223 140.378 51.1675 137.278 53.744C136.514 51.4091 134.782 50.0806 134.782 50.0806L139.935 46.3366Z" fill="white"/>
<path d="M133.373 46.9404C133.373 46.9404 133.011 46.9807 132.125 47.182C131.562 48.0676 130.555 51.9324 132.286 53.8647C132.971 51.4493 134.782 50.0805 134.782 50.0805L133.373 46.9404Z" fill="white"/>
<path d="M138.647 39.0902C138.406 41.2239 138.325 45.1691 139.935 46.4171C139.935 46.4171 138.245 48.1482 134.783 50.0805C132.287 48.3495 133.373 46.9807 133.373 46.9807C135.668 46.2158 135.467 44.4847 134.903 42.8744L138.647 39.0902Z" fill="#FFC3BD"/>
<path d="M134.702 50.1209C134.702 50.1209 136.836 47.8262 137.923 48.2691C139.01 48.7119 138.164 49.5171 138.084 50.2417C138.003 50.9663 138.527 52.9792 137.037 52.4559C135.548 51.9325 134.702 50.1209 134.702 50.1209Z" fill="#407BFF"/>
<path d="M134.622 50.0806C134.622 50.0806 133.615 48.3092 132.528 48.5508C131.441 48.7923 132.085 49.3962 132.166 50.0806C132.287 50.926 131.401 52.5765 132.689 52.1337C133.978 51.6506 134.622 50.0806 134.622 50.0806Z" fill="#407BFF"/>
<g opacity="0.2">
<path d="M134.058 49.6781C134.058 50.1612 134.139 50.5235 134.259 50.7248C134.501 50.3625 134.622 50.0807 134.622 50.0807C134.622 50.0807 134.42 49.7183 134.098 49.356C134.058 49.4365 134.058 49.5573 134.058 49.6781Z" fill="black"/>
<path d="M135.467 49.3561C135.024 49.7587 134.702 50.121 134.702 50.121C134.702 50.121 134.863 50.4028 135.105 50.8054C135.266 50.6443 135.427 50.3625 135.507 49.8794C135.548 49.6379 135.507 49.4769 135.467 49.3561Z" fill="black"/>
</g>
<path d="M134.662 50.8456C134.38 50.8456 134.179 50.5235 134.138 49.7586C134.098 48.9937 134.702 49.3963 134.702 49.3963C134.702 49.3963 135.507 48.9937 135.346 49.9196C135.306 50.6443 134.984 50.8456 134.662 50.8456Z" fill="#407BFF"/>
<path opacity="0.2" d="M137.117 40.6201L134.903 42.8745C135.024 43.2368 135.145 43.6394 135.225 44.042C136.111 43.8407 137.399 42.9147 137.399 41.9486C137.399 41.4655 137.198 40.8616 137.117 40.6201Z" fill="black"/>
<path d="M135.225 31.8439C135.225 31.8439 132.81 35.1852 132.407 36.6748C130.757 37.641 130.435 32.9308 131.32 29.992C134.018 31.6828 135.225 31.8439 135.225 31.8439Z" fill="#263238"/>
<path d="M140.54 35.7489C139.654 39.1708 139.332 40.6603 137.238 42.1096C134.058 44.2835 130.032 42.4317 129.912 38.8085C129.791 35.5476 131.28 30.4751 134.944 29.7505C138.527 28.9856 141.425 32.2867 140.54 35.7489Z" fill="#FFC3BD"/>
<path d="M142.391 34.3801C142.391 34.3801 140.66 37.1578 140.419 38.4058C139.171 39.2512 138.647 35.5475 139.171 33.1723C139.774 31.0387 142.391 34.3801 142.391 34.3801Z" fill="#263238"/>
<path d="M141.707 32.4075C141.224 32.7698 140.66 31.4011 141.184 30.3141C140.217 30.3544 139.09 29.7907 139.332 28.9051C137.44 29.5492 136.755 27.6168 136.956 26.2883C137.238 24.678 138.607 24.3157 139.452 24.7585C139.452 24.0339 141.264 22.5444 141.948 23.7118C143.237 23.269 145.29 23.3898 145.25 24.9598C146.095 25.0001 148.591 25.9663 147.665 28.2207C148.752 28.3012 149.356 29.7102 148.752 30.7569C150.161 31.6023 149.638 33.0114 149.114 33.5347C149.638 34.5814 148.068 36.1917 147.262 35.9904C146.618 36.9566 145.652 37.6812 145.048 36.8761C143.841 37.7618 142.472 36.6345 142.754 35.7489C141.385 35.5073 139.976 33.2126 141.707 32.4075Z" fill="#263238"/>
<path d="M143.76 29.0258C144.646 30.5154 144.605 32.2464 143.599 32.81C142.592 33.4139 141.063 32.649 140.177 31.1595C139.291 29.6699 139.332 27.9389 140.338 27.3753C141.304 26.8117 142.834 27.5363 143.76 29.0258Z" fill="#407BFF"/>
<path d="M135.387 31.4011C135.346 31.8439 134.139 31.7231 133.816 30.9582C133.333 31.4816 132.166 31.7231 131.763 31.1595C131.079 32.4075 129.75 32.0854 129.388 31.4816C129.026 30.8777 128.825 29.7505 129.509 29.5492C129.106 29.1869 129.227 27.5766 130.274 27.7779C130.717 26.8922 131.924 25.926 132.81 26.6909C133.293 26.2883 135.225 25.4429 135.99 26.9727C136.634 26.4494 137.762 26.8117 138.044 27.6168C139.291 27.2948 139.855 28.2207 139.855 28.7441C140.741 28.9856 140.821 30.5154 140.258 30.8374C140.459 31.6023 140.338 32.4478 139.533 32.3672C139.372 33.4139 137.963 33.575 137.641 33.0114C136.755 33.6957 134.903 32.649 135.387 31.4011Z" fill="#263238"/>
<path d="M133.253 28.4621C134.259 27.0531 138.003 26.4493 141.183 28.5829C144.082 30.475 143.881 34.9034 141.586 34.6618C139.291 34.4203 136.997 31.723 136.997 31.723L133.253 28.4621Z" fill="#263238"/>
<path d="M140.821 38.8487C140.499 39.4928 139.895 39.9357 139.291 40.0967C138.406 40.3785 137.963 39.5733 138.204 38.7682C138.406 38.0033 139.09 36.9968 139.976 37.0774C140.862 37.1579 141.184 38.0838 140.821 38.8487Z" fill="#FFC3BD"/>
<path d="M130.958 69.8068C130.958 69.8068 126.047 91.4654 129.348 106.723C131.522 116.948 139.412 137.601 139.412 137.601L145.572 137.44C145.572 137.44 139.614 115.741 138.366 107.246C136.272 92.6731 141.546 68.8809 141.546 68.8809L130.958 69.8068Z" fill="#407BFF"/>
<path opacity="0.2" d="M136.635 74.1546L139.734 79.0258C138.929 84.058 138.164 90.3784 137.963 96.4573C133.615 88.6876 135.668 78.2609 136.635 74.1546Z" fill="black"/>
<path d="M138.567 137.923L146.175 137.721L145.733 135.387L137.963 135.749L138.567 137.923Z" fill="#263238"/>
<path d="M134.138 69.5653C134.138 69.5653 136.997 92.5524 143.237 105.073C148.269 115.217 161.675 129.63 161.675 129.63L165.097 126.087C165.097 126.087 156.039 110.427 152.295 103.704C143.116 87.1981 150.604 74.6377 145.411 68.5588L134.138 69.5653Z" fill="#407BFF"/>
<path d="M161.353 130.073L165.781 125.765L164.291 123.792L159.581 128.462L161.353 130.073Z" fill="#263238"/>
<path d="M145.572 67.6732L146.337 68.9212C146.377 69.0017 146.296 69.1225 146.135 69.1627L130.958 70.4912C130.837 70.4912 130.717 70.451 130.717 70.3705L130.475 69.0822C130.475 69.0017 130.556 68.9212 130.717 68.8809L145.37 67.6329C145.451 67.5927 145.531 67.5927 145.572 67.6732Z" fill="#407BFF"/>
<path opacity="0.5" d="M145.572 67.6732L146.337 68.9212C146.377 69.0017 146.296 69.1225 146.135 69.1627L130.958 70.4912C130.837 70.4912 130.717 70.451 130.717 70.3705L130.475 69.0822C130.475 69.0017 130.556 68.9212 130.717 68.8809L145.37 67.6329C145.451 67.5927 145.531 67.5927 145.572 67.6732Z" fill="white"/>
<path d="M143.76 69.4848L144.163 69.4445C144.243 69.4445 144.284 69.4042 144.284 69.3237L143.961 67.6732C143.961 67.6329 143.881 67.5927 143.8 67.5927L143.398 67.6329C143.317 67.6329 143.277 67.6732 143.277 67.7537L143.599 69.4042C143.599 69.4445 143.68 69.4848 143.76 69.4848Z" fill="#407BFF"/>
<path d="M132.085 70.4912L132.488 70.451C132.568 70.451 132.609 70.4107 132.609 70.3302L132.287 68.6796C132.287 68.6394 132.206 68.5991 132.126 68.5991L131.723 68.6394C131.643 68.6394 131.602 68.6796 131.602 68.7602L131.924 70.4107C131.924 70.451 132.005 70.4912 132.085 70.4912Z" fill="#407BFF"/>
<path d="M137.923 69.9679L138.325 69.9276C138.406 69.9276 138.446 69.8873 138.446 69.8068L138.124 68.1563C138.124 68.116 138.044 68.0757 137.963 68.0757L137.56 68.116C137.48 68.116 137.44 68.1563 137.44 68.2368L137.762 69.8873C137.762 69.9679 137.842 70.0081 137.923 69.9679Z" fill="#407BFF"/>
<path d="M134.702 35.6281C134.662 35.9099 134.46 36.1112 134.259 36.071C134.058 36.0307 133.977 35.7892 134.018 35.5074C134.058 35.2255 134.259 35.0243 134.46 35.0645C134.662 35.0645 134.783 35.3463 134.702 35.6281Z" fill="#263238"/>
<path d="M131.475 34.9996C131.531 34.716 131.435 34.4583 131.26 34.424C131.086 34.3896 130.899 34.5917 130.843 34.8753C130.788 35.159 130.884 35.4167 131.058 35.451C131.233 35.4853 131.42 35.2832 131.475 34.9996Z" fill="#263238"/>
<path d="M131.361 34.4203L130.717 34.0983C130.717 34.0983 130.958 34.7021 131.361 34.4203Z" fill="#263238"/>
<path d="M132.609 35.7086C132.609 35.7086 131.884 36.8358 131.24 37.3189C131.562 37.7214 132.206 37.7214 132.206 37.7214L132.609 35.7086Z" fill="#ED847E"/>
<path d="M133.535 39.05C134.541 39.05 135.105 38.4462 135.145 38.4462C135.185 38.4059 135.185 38.3656 135.145 38.3656C135.105 38.3254 135.064 38.3254 135.064 38.3656C135.064 38.3656 134.299 39.1305 133.051 38.889C133.011 38.889 132.971 38.889 132.971 38.9292C132.971 38.9695 132.971 39.0098 133.011 39.0098C133.172 39.0098 133.374 39.05 133.535 39.05Z" fill="#263238"/>
<path d="M136.634 34.5009C136.675 34.5009 136.675 34.5009 136.715 34.4606C136.795 34.4203 136.795 34.3398 136.755 34.2593C136.272 33.4542 135.507 33.4542 135.467 33.4542C135.386 33.4542 135.306 33.4944 135.306 33.5749C135.306 33.6555 135.346 33.736 135.427 33.736C135.467 33.736 136.071 33.7762 136.473 34.4203C136.554 34.5009 136.594 34.5009 136.634 34.5009Z" fill="#263238"/>
<path d="M130.636 33.3736C130.676 33.3736 130.676 33.3736 130.717 33.3736C131.401 33.0113 131.965 33.2931 131.965 33.2931C132.045 33.3334 132.126 33.2931 132.166 33.2529C132.206 33.1723 132.166 33.0918 132.126 33.0516C132.085 33.0516 131.401 32.6893 130.596 33.1321C130.515 33.1723 130.515 33.2529 130.555 33.3334C130.515 33.3736 130.596 33.3736 130.636 33.3736Z" fill="#263238"/>
<path d="M146.739 50.0001C147.021 50.2819 147.182 50.4832 147.423 50.7247C147.625 50.9662 147.826 51.2078 148.027 51.4493C148.43 51.9324 148.792 52.4155 149.114 52.9389C149.799 53.9453 150.402 55.0323 150.926 56.1192C151.449 57.2062 151.852 58.3737 152.174 59.5814C152.335 60.1852 152.456 60.7891 152.576 61.393C152.697 62.0371 152.778 63.0435 152.295 63.9292C152.053 64.372 151.731 64.7344 151.409 65.0162C151.047 65.298 150.724 65.459 150.362 65.62C149.678 65.9018 148.993 66.0226 148.349 66.1031C147.061 66.2239 145.853 66.1836 144.686 66.0629C142.311 65.7811 140.056 65.298 137.802 64.6136L138.164 63.1643C139.251 63.3253 140.378 63.5266 141.505 63.6474C142.633 63.7682 143.72 63.8487 144.847 63.889C145.934 63.889 147.021 63.889 148.027 63.7279C148.51 63.6474 148.993 63.5266 149.356 63.3253C149.718 63.1643 149.919 62.963 149.96 62.802C150 62.7215 150 62.641 150 62.5202C150 62.4397 150 62.3994 150 62.3189C150 62.2384 149.96 62.1579 149.919 61.9968C149.799 61.4735 149.678 60.9501 149.517 60.4671C149.195 59.4606 148.752 58.4944 148.309 57.5282C147.826 56.5621 147.262 55.6361 146.658 54.7907C146.377 54.3479 146.055 53.9051 145.692 53.5025C145.531 53.3012 145.37 53.0999 145.169 52.8986C145.008 52.6973 144.807 52.496 144.686 52.335L146.739 50.0001Z" fill="#FFC3BD"/>
<path d="M139.05 63.2851L136.232 61.7955L136.111 65.5395C136.111 65.5395 138.124 65.6603 139.291 64.7343L139.05 63.2851Z" fill="#FFC3BD"/>
<path d="M134.138 83.3334L136.473 58.0516L131.481 54.2674L116.304 52.8584L113.688 81.4816L134.138 83.3334Z" fill="#407BFF"/>
<path opacity="0.8" d="M134.138 83.3334L136.473 58.0516L131.481 54.2674L116.304 52.8584L113.688 81.4816L134.138 83.3334Z" fill="white"/>
<path d="M136.473 58.0517L131.481 54.2675L132.77 58.8166L136.473 58.0517Z" fill="#407BFF"/>
<path d="M115.459 85.8697C118.883 85.8697 121.659 83.094 121.659 79.67C121.659 76.246 118.883 73.4703 115.459 73.4703C112.035 73.4703 109.259 76.246 109.259 79.67C109.259 83.094 112.035 85.8697 115.459 85.8697Z" fill="#407BFF"/>
<path d="M118.516 83.5522C120.662 81.8569 121.027 78.743 119.332 76.597C117.637 74.4511 114.523 74.0857 112.377 75.781C110.231 77.4762 109.865 80.5902 111.561 82.7361C113.256 84.8821 116.37 85.2474 118.516 83.5522Z" fill="white"/>
<path d="M118.519 79.2674L116.304 78.9856L116.586 76.8117L115.016 76.6506L114.775 78.8246L112.56 78.5427L112.399 80.1128L114.573 80.3946L114.332 82.5685L115.862 82.7295L116.143 80.5556L118.317 80.8374L118.519 79.2674Z" fill="#407BFF"/>
<path opacity="0.4" d="M132.729 63.3254C132.649 64.2513 131.804 64.9357 130.878 64.8552L119.807 63.8488C118.881 63.7683 118.196 62.9228 118.277 61.9969C118.357 61.071 119.203 60.3866 120.129 60.4671L131.2 61.4736C132.126 61.5541 132.81 62.3592 132.729 63.3254Z" fill="#407BFF"/>
<path opacity="0.4" d="M128.985 67.8746C128.905 68.8005 128.06 69.4849 127.134 69.4044L119.404 68.6798C118.478 68.5993 117.794 67.7538 117.874 66.8279C117.955 65.902 118.8 65.2176 119.726 65.2981L127.456 66.0228C128.382 66.1033 129.066 66.9487 128.985 67.8746Z" fill="#407BFF"/>
<path d="M134.541 61.9968L134.944 64.8149L136.111 65.4992L136.232 61.7955L134.541 61.9968Z" fill="#FFC3BD"/>
<path d="M146.135 46.6989C147.906 47.021 150.402 52.0934 150.402 52.0934L145.934 56.1192C145.934 56.1192 142.391 52.2545 142.552 49.9195C142.713 47.9872 143.881 46.2963 146.135 46.6989Z" fill="#263238"/>
<path d="M163.969 133.494C164.01 133.494 164.05 133.494 164.09 133.454C164.533 133.293 164.775 132.528 164.936 132.085C164.936 132.045 164.936 132.045 164.895 132.005C164.855 132.005 164.855 131.965 164.815 132.005C164.694 132.085 163.567 132.689 163.527 133.132C163.527 133.213 163.527 133.293 163.647 133.374C163.768 133.454 163.849 133.494 163.969 133.494ZM164.734 132.206C164.533 132.85 164.292 133.253 164.05 133.333C163.929 133.374 163.849 133.333 163.728 133.253C163.647 133.213 163.647 133.172 163.647 133.132C163.688 132.85 164.372 132.408 164.734 132.206Z" fill="#407BFF"/>
<path d="M163.768 132.367C164.17 132.367 164.654 132.246 164.895 132.126C164.935 132.126 164.935 132.085 164.935 132.045C164.935 132.005 164.935 132.005 164.895 132.005C164.855 131.965 163.969 131.482 163.486 131.643C163.365 131.683 163.285 131.763 163.204 131.884C163.124 132.085 163.204 132.166 163.285 132.246C163.365 132.327 163.567 132.367 163.768 132.367ZM164.694 132.045C164.291 132.206 163.567 132.327 163.365 132.126C163.325 132.085 163.285 132.045 163.325 131.924C163.365 131.844 163.406 131.804 163.486 131.763C163.848 131.643 164.452 131.924 164.694 132.045Z" fill="#407BFF"/>
<path d="M140.378 142.432C140.781 142.432 141.224 142.351 141.546 142.271C141.586 142.271 141.586 142.23 141.586 142.19C141.586 142.15 141.586 142.15 141.546 142.11C141.385 142.029 139.815 141.304 139.453 141.586C139.412 141.626 139.332 141.667 139.372 141.788C139.372 141.949 139.453 142.069 139.573 142.19C139.775 142.391 140.056 142.432 140.378 142.432ZM141.304 142.19C140.862 142.271 140.016 142.391 139.654 142.11C139.573 142.029 139.493 141.949 139.493 141.828C139.493 141.787 139.493 141.747 139.533 141.747C139.775 141.586 140.66 141.908 141.304 142.19Z" fill="#407BFF"/>
<path d="M141.546 142.271H141.586C141.586 142.271 141.627 142.23 141.627 142.19C141.627 142.11 141.264 140.62 140.419 140.701C140.218 140.741 140.137 140.821 140.137 140.902C140.057 141.304 141.023 142.11 141.546 142.271C141.506 142.271 141.506 142.271 141.546 142.271ZM140.459 140.862C140.982 140.862 141.305 141.747 141.425 142.11C140.942 141.828 140.218 141.224 140.258 140.982C140.258 140.982 140.258 140.902 140.419 140.902C140.419 140.862 140.459 140.862 140.459 140.862Z" fill="#407BFF"/>
<path d="M134.541 35.0645L133.897 34.7424C133.897 34.7424 134.179 35.3463 134.541 35.0645Z" fill="#263238"/>
</svg>
