<svg width="24" height="24" viewBox="0 0 24 24" fill="none" xmlns="http://www.w3.org/2000/svg">
<path d="M11.0737 20.2621H5.50892C3.86664 20.2621 2.53052 18.9261 2.53052 17.2837V10.8744C2.53052 9.9311 2.98427 9.03406 3.74432 8.47523L9.39827 4.31709C10.4535 3.54072 11.8718 3.54072 12.9274 4.31709L18.5812 8.47523C18.9148 8.71985 19.3841 8.64901 19.6298 8.31537C19.8752 7.98159 19.8036 7.51227 19.47 7.26672L13.8163 3.10861C12.2291 1.94169 10.0967 1.94131 8.50948 3.10861L2.85553 7.26672C1.71276 8.10736 1.03052 9.45594 1.03052 10.8744V17.2837C1.03052 19.7531 3.03954 21.7621 5.50892 21.7621H11.0737C11.4879 21.7621 11.8237 21.4263 11.8237 21.0121C11.8237 20.5979 11.4879 20.2621 11.0737 20.2621Z" fill="#212121"/>
<path d="M17.0619 9.94702C13.8045 9.94702 11.1544 12.5969 11.1544 15.8544C11.1544 19.1118 13.8045 21.7621 17.0619 21.7621C20.3194 21.7621 22.9695 19.1118 22.9695 15.8544C22.9695 12.5969 20.3194 9.94702 17.0619 9.94702ZM17.0619 20.2621C14.6316 20.2621 12.6544 18.2849 12.6544 15.8544C12.6544 13.4242 14.6316 11.447 17.0619 11.447C19.4923 11.447 21.4695 13.4242 21.4695 15.8544C21.4695 18.2849 19.4923 20.2621 17.0619 20.2621Z" fill="#1C6EBB"/>
<path d="M19.1525 15.2996H17.8119V13.9589C17.8119 13.5447 17.4761 13.2089 17.0619 13.2089C16.6478 13.2089 16.3119 13.5447 16.3119 13.9589V15.2996H14.9714C14.5572 15.2996 14.2214 15.6354 14.2214 16.0496C14.2214 16.4638 14.5572 16.7996 14.9714 16.7996H16.3119V18.1399C16.3119 18.5541 16.6478 18.8899 17.0619 18.8899C17.4761 18.8899 17.8119 18.5541 17.8119 18.1399V16.7996H19.1525C19.5666 16.7996 19.9025 16.4638 19.9025 16.0496C19.9025 15.6354 19.5666 15.2996 19.1525 15.2996Z" fill="#1C6EBB"/>
</svg>
