<svg width="24" height="24" viewBox="0 0 24 24" fill="none" xmlns="http://www.w3.org/2000/svg">
<path fill-rule="evenodd" clip-rule="evenodd" d="M10.8974 2.34197C11.9128 1.88601 13.0872 1.88601 14.1026 2.34197C14.801 2.65554 15.3085 3.25634 15.7689 3.96002C16.2289 4.66304 16.734 5.61957 17.3647 6.81373L21.3993 14.4529C21.9213 15.4411 22.3449 16.2433 22.6167 16.9022C22.8917 17.5685 23.0755 18.2317 22.9696 18.9099C22.8132 19.9126 22.2299 20.7944 21.3784 21.3582C20.8112 21.7337 20.131 21.8715 19.3866 21.9361C18.6483 22 17.7058 22 16.5337 22H8.46631C7.29422 22 6.35167 22 5.61347 21.9361C4.86904 21.8715 4.18882 21.7337 3.62158 21.3582C2.77019 20.7944 2.18683 19.9126 2.03035 18.9099C1.9245 18.2317 2.10835 17.5685 2.38324 16.9022C2.65509 16.2433 3.07875 15.4411 3.60072 14.4529L7.63527 6.81371C8.26593 5.61955 8.77111 4.66303 9.2311 3.96002C9.69152 3.25634 10.199 2.65554 10.8974 2.34197ZM13.3192 4.07895C12.802 3.8467 12.198 3.8467 11.6809 4.07895C11.4985 4.16081 11.2402 4.37384 10.8297 5.00127C10.4245 5.62055 9.96035 6.49721 9.30051 7.74659L5.31286 15.297C4.76217 16.3396 4.38189 17.0619 4.14862 17.6272C3.91438 18.195 3.89246 18.4614 3.91672 18.6169C3.98746 19.0702 4.25473 19.4913 4.67725 19.771C4.83944 19.8785 5.12953 19.9822 5.77864 20.0385C6.42432 20.0944 7.28352 20.0952 8.51237 20.0952H16.4877C17.7165 20.0952 18.5757 20.0944 19.2214 20.0385C19.8705 19.9822 20.1606 19.8785 20.3228 19.771C20.7453 19.4913 21.0125 19.0701 21.0833 18.6169C21.1076 18.4614 21.0857 18.195 20.8514 17.6272C20.6181 17.0619 20.2378 16.3396 19.6871 15.297L15.6995 7.74659C15.0396 6.49721 14.5755 5.62055 14.1703 5.00127C13.7598 4.37384 13.5016 4.16081 13.3192 4.07895ZM12.4958 8.66668C13.023 8.66431 13.4522 9.08879 13.4546 9.61477L13.476 14.3766C13.4784 14.9026 13.0529 15.3309 12.5257 15.3332C11.9985 15.3356 11.5693 14.9111 11.5669 14.3851L11.5455 9.62332C11.5431 9.09734 11.9686 8.66904 12.4958 8.66668ZM12.5 16.2857C13.0272 16.2857 13.4546 16.7121 13.4546 17.2381V17.2476C13.4546 17.7736 13.0272 18.2 12.5 18.2C11.9729 18.2 11.5455 17.7736 11.5455 17.2476V17.2381C11.5455 16.7121 11.9729 16.2857 12.5 16.2857Z" fill="#1C6EBB"/>
</svg>
