<svg width="312" height="276" viewBox="0 0 312 276" fill="none" xmlns="http://www.w3.org/2000/svg">
<path d="M147.357 209.281H4.48907C3.36986 209.279 2.29716 208.833 1.50645 208.041C0.715736 207.249 0.271635 206.176 0.271637 205.056V4.2249C0.271635 3.10568 0.715736 2.0322 1.50645 1.2401C2.29716 0.448002 3.36986 0.00202113 4.48907 6.10352e-05L147.357 6.10352e-05C148.477 6.10352e-05 149.552 0.445176 150.344 1.23749C151.136 2.0298 151.581 3.1044 151.581 4.2249V205.056C151.581 205.611 151.472 206.16 151.26 206.673C151.048 207.186 150.736 207.651 150.344 208.044C149.952 208.436 149.486 208.747 148.973 208.96C148.461 209.172 147.911 209.281 147.357 209.281ZM4.48907 0.185036C3.41892 0.186996 2.39327 0.613488 1.63724 1.3709C0.881223 2.12831 0.45661 3.15474 0.456612 4.2249V205.056C0.45661 206.126 0.881223 207.153 1.63724 207.91C2.39327 208.668 3.41892 209.094 4.48907 209.096H147.357C148.427 209.094 149.454 208.668 150.211 207.911C150.968 207.154 151.395 206.127 151.396 205.056V4.2249C151.395 3.15406 150.968 2.12764 150.211 1.37044C149.454 0.613247 148.427 0.186992 147.357 0.185036H4.48907Z" fill="#DADADA"/>
<path d="M307.405 209.281H164.53C163.41 209.279 162.336 208.833 161.544 208.042C160.753 207.25 160.307 206.176 160.305 205.056V4.2249C160.307 3.105 160.753 2.03153 161.544 1.23965C162.336 0.447761 163.41 0.00201719 164.53 6.10352e-05L307.405 6.10352e-05C308.523 0.00397675 309.593 0.45082 310.382 1.24271C311.172 2.03459 311.615 3.10696 311.615 4.2249V205.056C311.615 206.174 311.172 207.247 310.382 208.038C309.593 208.83 308.523 209.277 307.405 209.281ZM164.53 0.185036C163.459 0.186992 162.432 0.613247 161.675 1.37044C160.918 2.12764 160.492 3.15406 160.49 4.2249V205.056C160.492 206.127 160.918 207.154 161.675 207.911C162.432 208.668 163.459 209.094 164.53 209.096H307.405C308.475 209.094 309.502 208.668 310.259 207.911C311.016 207.154 311.443 206.127 311.444 205.056V4.2249C311.443 3.15406 311.016 2.12764 310.259 1.37044C309.502 0.613247 308.475 0.186992 307.405 0.185036H164.53Z" fill="#DADADA"/>
<path d="M212.468 54.3162V97.9926L207.644 116.202H195.961L212.468 54.3162Z" fill="white"/>
<path d="M156.975 275.695C236.206 275.695 300.435 271.945 300.435 267.319C300.435 262.693 236.206 258.943 156.975 258.943C77.7448 258.943 13.5158 262.693 13.5158 267.319C13.5158 271.945 77.7448 275.695 156.975 275.695Z" fill="#F5F5F5" fill-opacity="0.2"/>
<path d="M254.391 242.621H140.823C140.144 242.632 139.469 242.498 138.845 242.23C138.22 241.962 137.659 241.565 137.199 241.064C136.738 240.564 136.389 239.972 136.173 239.328C135.957 238.683 135.88 238 135.947 237.323L150.264 53.6503C150.396 52.2203 151.051 50.8891 152.104 49.9126C153.157 48.9362 154.533 48.3832 155.969 48.36H269.529C270.209 48.3485 270.883 48.4807 271.508 48.7481C272.133 49.0154 272.695 49.4118 273.156 49.9113C273.617 50.4108 273.967 51.0022 274.184 51.6465C274.4 52.2909 274.478 52.9737 274.412 53.6503L260.095 237.323C259.966 238.755 259.312 240.088 258.258 241.066C257.205 242.044 255.828 242.598 254.391 242.621Z" fill="#2E353A"/>
<path opacity="0.2" d="M254.391 242.621H140.823C140.144 242.632 139.469 242.498 138.845 242.23C138.22 241.962 137.659 241.565 137.199 241.064C136.738 240.564 136.389 239.972 136.173 239.328C135.957 238.683 135.88 238 135.947 237.323L150.264 53.6503C150.396 52.2203 151.051 50.8891 152.104 49.9126C153.157 48.9362 154.533 48.3832 155.969 48.36H269.529C270.209 48.3485 270.883 48.4807 271.508 48.7481C272.133 49.0154 272.695 49.4118 273.156 49.9113C273.617 50.4108 273.967 51.0022 274.184 51.6465C274.4 52.2909 274.478 52.9737 274.412 53.6503L260.095 237.323C259.966 238.755 259.312 240.088 258.258 241.066C257.205 242.044 255.828 242.598 254.391 242.621Z" fill="white"/>
<path d="M239.008 60.3686H184.625C184.388 60.3729 184.152 60.3268 183.933 60.2334C183.714 60.14 183.518 60.0015 183.356 59.8268C183.195 59.6521 183.072 59.4453 182.996 59.2199C182.921 58.9945 182.893 58.7556 182.916 58.5189L183.752 47.7755C183.8 47.2755 184.029 46.8104 184.398 46.4692C184.766 46.1279 185.248 45.9345 185.75 45.9258H240.133C240.37 45.9214 240.606 45.9675 240.824 46.0609C241.043 46.1544 241.239 46.2931 241.4 46.4679C241.561 46.6427 241.682 46.8496 241.757 47.075C241.832 47.3005 241.859 47.5392 241.835 47.7755L240.998 58.5189C240.953 59.0183 240.725 59.4833 240.357 59.8247C239.99 60.166 239.51 60.3598 239.008 60.3686Z" fill="#407BFF"/>
<path opacity="0.2" d="M239.008 60.3686H184.625C184.388 60.3729 184.152 60.3268 183.933 60.2334C183.714 60.14 183.518 60.0015 183.356 59.8268C183.195 59.6521 183.072 59.4453 182.996 59.2199C182.921 58.9945 182.893 58.7556 182.916 58.5189L183.752 47.7755C183.8 47.2755 184.029 46.8104 184.398 46.4692C184.766 46.1279 185.248 45.9345 185.75 45.9258H240.133C240.37 45.9214 240.606 45.9675 240.824 46.0609C241.043 46.1544 241.239 46.2931 241.4 46.4679C241.561 46.6427 241.682 46.8496 241.757 47.075C241.832 47.3005 241.859 47.5392 241.835 47.7755L240.998 58.5189C240.953 59.0183 240.725 59.4833 240.357 59.8247C239.99 60.166 239.51 60.3598 239.008 60.3686Z" fill="black"/>
<path d="M216.907 49.2627H208.398L208.731 45.0008C208.834 43.8509 209.358 42.7797 210.204 41.994C211.05 41.2083 212.157 40.7638 213.311 40.7464C213.858 40.7377 214.4 40.8444 214.903 41.0595C215.405 41.2747 215.856 41.5935 216.227 41.995C216.598 42.3966 216.88 42.8719 217.055 43.3898C217.229 43.9078 217.292 44.4567 217.24 45.0008L216.907 49.2627Z" fill="#407BFF"/>
<path opacity="0.4" d="M216.907 49.2627H208.398L208.731 45.0008C208.834 43.8509 209.358 42.7797 210.204 41.994C211.05 41.2083 212.157 40.7638 213.311 40.7464C213.858 40.7377 214.4 40.8444 214.903 41.0595C215.405 41.2747 215.856 41.5935 216.227 41.995C216.598 42.3966 216.88 42.8719 217.055 43.3898C217.229 43.9078 217.292 44.4567 217.24 45.0008L216.907 49.2627Z" fill="white"/>
<path d="M252.859 234.956H143.546L157.501 56.0253H266.806L252.859 234.956Z" fill="white"/>
<path d="M228.894 65.3851H193.97C193.411 65.394 192.856 65.2846 192.341 65.0641C191.827 64.8436 191.365 64.5169 190.986 64.1055C190.607 63.6941 190.319 63.2072 190.141 62.6767C189.962 62.1462 189.898 61.5841 189.953 61.0271L190.397 55.3447C190.504 54.1659 191.043 53.0683 191.91 52.2626C192.777 51.4569 193.912 50.9999 195.095 50.9793H230.026C230.586 50.9715 231.141 51.0819 231.656 51.3032C232.171 51.5245 232.633 51.8517 233.013 52.2636C233.392 52.6754 233.681 53.1627 233.86 53.6935C234.039 54.2244 234.104 54.787 234.051 55.3447L233.607 61.0271C233.496 62.2065 232.954 63.3033 232.084 64.1075C231.214 64.9117 230.078 65.3667 228.894 65.3851ZM194.962 52.4591C194.18 52.4724 193.431 52.7746 192.858 53.3073C192.286 53.8401 191.931 54.5658 191.862 55.3447L191.418 61.0271C191.381 61.3947 191.423 61.7659 191.54 62.1163C191.657 62.4667 191.847 62.7883 192.097 63.0601C192.347 63.332 192.652 63.5478 192.991 63.6934C193.331 63.8391 193.697 63.9113 194.067 63.9053H229.005C229.786 63.8923 230.535 63.5915 231.109 63.0604C231.682 62.5293 232.04 61.8053 232.112 61.0271L232.556 55.3447C232.59 54.9766 232.547 54.6054 232.429 54.2552C232.31 53.9049 232.12 53.5834 231.87 53.3114C231.619 53.0394 231.314 52.823 230.975 52.6762C230.636 52.5294 230.27 52.4554 229.9 52.4591H194.962Z" fill="#407BFF"/>
<g opacity="0.4">
<path d="M228.894 65.3851H193.97C193.411 65.394 192.856 65.2846 192.341 65.0641C191.827 64.8436 191.365 64.5169 190.986 64.1055C190.607 63.6941 190.319 63.2072 190.141 62.6767C189.962 62.1462 189.898 61.5841 189.953 61.0271L190.397 55.3447C190.504 54.1659 191.043 53.0683 191.91 52.2626C192.777 51.4569 193.912 50.9999 195.095 50.9793H230.026C230.586 50.9715 231.141 51.0819 231.656 51.3032C232.171 51.5245 232.633 51.8517 233.013 52.2636C233.392 52.6754 233.681 53.1627 233.86 53.6935C234.039 54.2244 234.104 54.787 234.051 55.3447L233.607 61.0271C233.496 62.2065 232.954 63.3033 232.084 64.1075C231.214 64.9117 230.078 65.3667 228.894 65.3851ZM194.962 52.4591C194.18 52.4724 193.431 52.7746 192.858 53.3073C192.286 53.8401 191.931 54.5658 191.862 55.3447L191.418 61.0271C191.381 61.3947 191.423 61.7659 191.54 62.1163C191.657 62.4667 191.847 62.7883 192.097 63.0601C192.347 63.332 192.652 63.5478 192.991 63.6934C193.331 63.8391 193.697 63.9113 194.067 63.9053H229.005C229.786 63.8923 230.535 63.5915 231.109 63.0604C231.682 62.5293 232.04 61.8053 232.112 61.0271L232.556 55.3447C232.59 54.9766 232.547 54.6054 232.429 54.2552C232.31 53.9049 232.12 53.5834 231.87 53.3114C231.619 53.0394 231.314 52.823 230.975 52.6762C230.636 52.5294 230.27 52.4554 229.9 52.4591H194.962Z" fill="white"/>
</g>
<path d="M227.088 54.257H197.492C197.365 54.2582 197.238 54.2332 197.121 54.1836C197.003 54.134 196.897 54.0608 196.809 53.9686C196.721 53.8764 196.653 53.767 196.609 53.6474C196.565 53.5277 196.546 53.4003 196.553 53.2729L196.782 50.3133C196.809 50.0385 196.937 49.7832 197.14 49.5963C197.343 49.4093 197.608 49.3038 197.884 49.2997H227.48C227.611 49.2968 227.74 49.3218 227.86 49.3729C227.98 49.4239 228.087 49.4999 228.176 49.5958C228.264 49.6917 228.331 49.8053 228.371 49.929C228.412 50.0527 228.426 50.1838 228.413 50.3133L228.183 53.2729C228.151 53.5418 228.022 53.7898 227.821 53.9708C227.619 54.1519 227.359 54.2535 227.088 54.257Z" fill="#407BFF"/>
<path d="M252.149 82.1661H169.28L169.983 73.1245H252.852L252.149 82.1661Z" fill="#407BFF"/>
<path d="M218.609 94.7518H163.442L163.627 92.4211H218.794L218.609 94.7518Z" fill="#407BFF"/>
<path d="M218.091 101.485H162.924L163.102 99.1468H218.269L218.091 101.485Z" fill="#407BFF"/>
<path d="M217.566 108.211H162.399L162.576 105.88H217.743L217.566 108.211Z" fill="#407BFF"/>
<path d="M217.04 114.944H161.873L162.051 112.606H217.218L217.04 114.944Z" fill="#407BFF"/>
<path d="M253.236 114.944H230.729L232.49 92.4211H254.997L253.236 114.944Z" fill="#407BFF"/>
<path d="M242.21 107.504L242.459 104.387C243.286 104.057 243.945 103.672 244.436 103.231C244.942 102.777 245.312 102.289 245.547 101.766C245.797 101.229 245.945 100.679 245.99 100.115C246.048 99.3854 245.909 98.8006 245.571 98.3603C245.235 97.9062 244.652 97.6792 243.824 97.6792C243.231 97.6792 242.751 97.803 242.386 98.0507C242.023 98.2846 241.749 98.6011 241.565 99.0002C241.382 99.3854 241.272 99.8189 241.233 100.3C240.778 100.3 240.406 100.197 240.119 99.9909C239.833 99.7707 239.707 99.4474 239.741 99.0208C239.775 98.5942 239.937 98.209 240.227 97.865C240.532 97.5072 240.976 97.2251 241.558 97.0187C242.14 96.8123 242.873 96.7091 243.757 96.7091C244.627 96.7091 245.381 96.8605 246.019 97.1632C246.672 97.4522 247.163 97.8718 247.492 98.4222C247.834 98.9726 247.974 99.64 247.911 100.424C247.851 101.181 247.646 101.848 247.296 102.426C246.946 103.004 246.456 103.513 245.828 103.954C245.213 104.394 244.463 104.793 243.578 105.151L243.39 107.504H242.21ZM242.446 111.797C242.101 111.797 241.812 111.701 241.579 111.508C241.361 111.302 241.272 110.944 241.313 110.435C241.354 109.926 241.499 109.575 241.749 109.382C242.013 109.189 242.318 109.093 242.663 109.093C242.98 109.093 243.255 109.189 243.488 109.382C243.722 109.575 243.818 109.926 243.777 110.435C243.736 110.944 243.583 111.302 243.318 111.508C243.055 111.701 242.764 111.797 242.446 111.797Z" fill="white"/>
<path d="M215.953 128.839H160.786L160.971 126.501H216.138L215.953 128.839Z" fill="#407BFF"/>
<path d="M215.427 135.565H160.26L160.445 133.234H215.612L215.427 135.565Z" fill="#407BFF"/>
<path d="M214.91 142.298H159.743L159.92 139.96H215.087L214.91 142.298Z" fill="#407BFF"/>
<path d="M214.384 149.024H159.217L159.395 146.693H214.562L214.384 149.024Z" fill="#407BFF"/>
<path d="M250.58 149.024H228.072L229.826 126.501H252.334L250.58 149.024Z" fill="#407BFF"/>
<path d="M239.554 141.591L239.803 138.474C240.63 138.144 241.289 137.759 241.78 137.319C242.285 136.865 242.656 136.376 242.891 135.853C243.141 135.317 243.288 134.766 243.334 134.202C243.392 133.473 243.252 132.888 242.915 132.448C242.579 131.994 241.996 131.766 241.168 131.766C240.574 131.766 240.095 131.89 239.73 132.138C239.366 132.372 239.093 132.688 238.909 133.087C238.726 133.473 238.616 133.906 238.577 134.388C238.122 134.388 237.75 134.285 237.463 134.078C237.177 133.858 237.051 133.535 237.085 133.108C237.119 132.682 237.281 132.296 237.571 131.952C237.876 131.594 238.319 131.312 238.902 131.106C239.484 130.9 240.217 130.796 241.101 130.796C241.97 130.796 242.724 130.948 243.363 131.25C244.016 131.539 244.507 131.959 244.836 132.51C245.178 133.06 245.318 133.727 245.255 134.512C245.195 135.268 244.989 135.936 244.639 136.514C244.29 137.092 243.8 137.601 243.171 138.041C242.556 138.481 241.807 138.88 240.922 139.238L240.734 141.591H239.554ZM239.79 145.884C239.445 145.884 239.156 145.788 238.923 145.595C238.705 145.389 238.616 145.031 238.657 144.522C238.697 144.013 238.843 143.662 239.093 143.469C239.357 143.277 239.661 143.18 240.006 143.18C240.324 143.18 240.599 143.277 240.832 143.469C241.065 143.662 241.161 144.013 241.121 144.522C241.08 145.031 240.927 145.389 240.662 145.595C240.398 145.788 240.108 145.884 239.79 145.884Z" fill="white"/>
<path d="M213.297 162.919H158.13L158.315 160.581H213.482L213.297 162.919Z" fill="#407BFF"/>
<path d="M212.771 169.652H157.604L157.789 167.314H212.956L212.771 169.652Z" fill="#407BFF"/>
<path d="M212.246 176.378H157.086L157.264 174.047H212.431L212.246 176.378Z" fill="#407BFF"/>
<path d="M211.728 183.111H156.561L156.739 180.773H211.906L211.728 183.111Z" fill="#407BFF"/>
<path d="M247.924 183.111H225.416L227.17 160.581H249.678L247.924 183.111Z" fill="#407BFF"/>
<path d="M236.898 175.671L237.147 172.554C237.974 172.224 238.633 171.839 239.124 171.398C239.629 170.944 240 170.456 240.235 169.933C240.485 169.396 240.632 168.846 240.677 168.282C240.736 167.553 240.596 166.968 240.259 166.527C239.922 166.073 239.34 165.846 238.512 165.846C237.918 165.846 237.439 165.97 237.074 166.218C236.71 166.452 236.436 166.768 236.253 167.167C236.07 167.553 235.959 167.986 235.921 168.468C235.465 168.468 235.094 168.364 234.807 168.158C234.521 167.938 234.395 167.614 234.429 167.188C234.463 166.761 234.625 166.376 234.915 166.032C235.219 165.674 235.663 165.392 236.246 165.186C236.828 164.979 237.561 164.876 238.444 164.876C239.314 164.876 240.068 165.028 240.706 165.33C241.36 165.619 241.851 166.039 242.179 166.589C242.522 167.14 242.662 167.807 242.599 168.591C242.538 169.348 242.333 170.016 241.983 170.594C241.633 171.171 241.144 171.681 240.515 172.121C239.9 172.561 239.15 172.96 238.266 173.318L238.078 175.671H236.898ZM237.134 179.964C236.789 179.964 236.5 179.868 236.267 179.675C236.048 179.469 235.96 179.111 236 178.602C236.041 178.093 236.187 177.742 236.437 177.549C236.701 177.357 237.005 177.26 237.35 177.26C237.668 177.26 237.943 177.357 238.176 177.549C238.409 177.742 238.505 178.093 238.464 178.602C238.424 179.111 238.271 179.469 238.006 179.675C237.742 179.868 237.451 179.964 237.134 179.964Z" fill="white"/>
<path d="M210.64 197.006H155.473L155.658 194.668H210.825L210.64 197.006Z" fill="#407BFF"/>
<path d="M210.115 203.732H154.948L155.133 201.401H210.3L210.115 203.732Z" fill="#407BFF"/>
<path d="M209.59 210.465H154.423L154.608 208.127H209.775L209.59 210.465Z" fill="#407BFF"/>
<path d="M209.064 217.198H153.897L154.082 214.86H209.249L209.064 217.198Z" fill="#407BFF"/>
<path d="M245.268 217.198H222.76L224.513 194.668H247.021L245.268 217.198Z" fill="#407BFF"/>
<path d="M234.241 209.758L234.491 206.642C235.318 206.311 235.977 205.926 236.467 205.486C236.973 205.032 237.343 204.543 237.578 204.02C237.828 203.484 237.976 202.933 238.021 202.369C238.079 201.64 237.94 201.055 237.602 200.615C237.266 200.161 236.684 199.934 235.855 199.934C235.262 199.934 234.783 200.057 234.418 200.305C234.054 200.539 233.78 200.855 233.596 201.254C233.414 201.64 233.303 202.073 233.265 202.555C232.809 202.555 232.438 202.452 232.151 202.245C231.864 202.025 231.738 201.702 231.773 201.275C231.807 200.849 231.969 200.463 232.258 200.119C232.563 199.762 233.007 199.479 233.589 199.273C234.172 199.067 234.905 198.963 235.788 198.963C236.658 198.963 237.412 199.115 238.05 199.418C238.703 199.707 239.194 200.126 239.523 200.677C239.866 201.227 240.005 201.894 239.943 202.679C239.882 203.435 239.677 204.103 239.327 204.681C238.977 205.259 238.488 205.768 237.859 206.208C237.244 206.648 236.494 207.047 235.61 207.405L235.421 209.758H234.241ZM234.478 214.051C234.132 214.051 233.843 213.955 233.61 213.762C233.392 213.556 233.303 213.198 233.344 212.689C233.385 212.18 233.53 211.829 233.78 211.636C234.044 211.444 234.349 211.347 234.694 211.347C235.011 211.347 235.287 211.444 235.52 211.636C235.753 211.829 235.849 212.18 235.808 212.689C235.767 213.198 235.615 213.556 235.35 213.762C235.086 213.955 234.795 214.051 234.478 214.051Z" fill="white"/>
<path opacity="0.7" d="M252.149 82.1661H169.28L169.983 73.1245H252.852L252.149 82.1661Z" fill="white"/>
<path opacity="0.7" d="M218.609 94.7518H163.442L163.627 92.4211H218.794L218.609 94.7518Z" fill="white"/>
<path opacity="0.7" d="M218.091 101.485H162.924L163.102 99.1468H218.269L218.091 101.485Z" fill="white"/>
<path opacity="0.7" d="M217.566 108.211H162.399L162.576 105.88H217.743L217.566 108.211Z" fill="white"/>
<path opacity="0.7" d="M217.04 114.944H161.873L162.051 112.606H217.218L217.04 114.944Z" fill="white"/>
<path opacity="0.7" d="M253.236 114.944H230.729L232.49 92.4211H254.997L253.236 114.944Z" fill="white"/>
<path opacity="0.7" d="M215.953 128.839H160.786L160.971 126.501H216.138L215.953 128.839Z" fill="white"/>
<path opacity="0.7" d="M215.427 135.565H160.26L160.445 133.234H215.612L215.427 135.565Z" fill="white"/>
<path opacity="0.7" d="M214.91 142.298H159.743L159.92 139.96H215.087L214.91 142.298Z" fill="white"/>
<path opacity="0.7" d="M214.384 149.024H159.217L159.395 146.693H214.562L214.384 149.024Z" fill="white"/>
<path opacity="0.7" d="M250.58 149.024H228.072L229.826 126.501H252.334L250.58 149.024Z" fill="white"/>
<path opacity="0.7" d="M213.297 162.919H158.13L158.315 160.581H213.482L213.297 162.919Z" fill="white"/>
<path opacity="0.7" d="M212.771 169.652H157.604L157.789 167.314H212.956L212.771 169.652Z" fill="white"/>
<path opacity="0.7" d="M212.246 176.378H157.086L157.264 174.047H212.431L212.246 176.378Z" fill="white"/>
<path opacity="0.7" d="M211.728 183.111H156.561L156.739 180.773H211.906L211.728 183.111Z" fill="white"/>
<path opacity="0.7" d="M247.924 183.111H225.416L227.17 160.581H249.678L247.924 183.111Z" fill="white"/>
<path opacity="0.7" d="M210.64 197.006H155.473L155.658 194.668H210.825L210.64 197.006Z" fill="white"/>
<path opacity="0.7" d="M210.115 203.732H154.948L155.133 201.401H210.3L210.115 203.732Z" fill="white"/>
<path opacity="0.7" d="M209.59 210.465H154.423L154.608 208.127H209.775L209.59 210.465Z" fill="white"/>
<path opacity="0.7" d="M209.064 217.198H153.897L154.082 214.86H209.249L209.064 217.198Z" fill="white"/>
<path opacity="0.7" d="M245.268 217.198H222.76L224.513 194.668H247.021L245.268 217.198Z" fill="white"/>
<path d="M119.98 149.497V169.874C119.986 173.892 118.434 177.756 115.652 180.654L96.6364 200.55H107.402L127.157 181.106C128.631 179.657 129.802 177.929 130.602 176.024C131.402 174.119 131.816 172.074 131.819 170.007V149.497H119.98Z" fill="#407BFF"/>
<path opacity="0.4" d="M131.819 149.497V169.985C131.822 171.133 131.692 172.277 131.434 173.396C130.786 176.326 129.3 179.005 127.157 181.106L107.402 200.55H96.6364L115.652 180.654C118.434 177.756 119.986 173.892 119.98 169.874V149.497H131.819Z" fill="white"/>
<path opacity="0.2" d="M131.819 149.497V169.985C131.822 171.133 131.692 172.277 131.434 173.396L119.98 168.771V149.534L131.819 149.497Z" fill="black"/>
<path d="M89.156 202.77L73.2185 263.486C73.0744 264.038 72.7514 264.526 72.3002 264.874C71.8489 265.222 71.2949 265.41 70.725 265.41H42.2462C42.0122 265.411 41.7811 265.358 41.5708 265.255C41.3604 265.152 41.1764 265.003 41.0328 264.818C40.8891 264.633 40.7902 264.417 40.744 264.187C40.6978 263.957 40.7055 263.72 40.7664 263.494L56.7113 202.77H53.6481L37.903 262.739C37.7288 263.403 37.7092 264.099 37.8458 264.772C37.9825 265.445 38.2716 266.078 38.6911 266.621C39.1106 267.165 39.6492 267.606 40.2655 267.909C40.8818 268.212 41.5594 268.369 42.2462 268.37H70.725C71.9487 268.37 73.1383 267.966 74.1075 267.219C75.0767 266.472 75.7711 265.424 76.0819 264.241L92.2118 202.77H89.156Z" fill="#407BFF"/>
<g opacity="0.4">
<path d="M89.156 202.77L73.2185 263.486C73.0744 264.038 72.7514 264.526 72.3002 264.874C71.8489 265.222 71.2949 265.41 70.725 265.41H42.2462C42.0122 265.411 41.7811 265.358 41.5708 265.255C41.3604 265.152 41.1764 265.003 41.0328 264.818C40.8891 264.633 40.7902 264.417 40.744 264.187C40.6978 263.957 40.7055 263.72 40.7664 263.494L56.7113 202.77H53.6481L37.903 262.739C37.7288 263.403 37.7092 264.099 37.8458 264.772C37.9825 265.445 38.2716 266.078 38.6911 266.621C39.1106 267.165 39.6492 267.606 40.2655 267.909C40.8818 268.212 41.5594 268.369 42.2462 268.37H70.725C71.9487 268.37 73.1383 267.966 74.1075 267.219C75.0767 266.472 75.7711 265.424 76.0819 264.241L92.2118 202.77H89.156Z" fill="white"/>
</g>
<path d="M95.6745 268.37L78.2498 201.934L75.3864 202.681L92.6113 268.37H95.6745Z" fill="#407BFF"/>
<path d="M131.19 268.37L113.765 201.934L110.902 202.681L128.127 268.37H131.19Z" fill="#407BFF"/>
<g opacity="0.5">
<path d="M95.6745 268.37L78.2498 201.934L75.3864 202.681L92.6113 268.37H95.6745Z" fill="white"/>
</g>
<g opacity="0.5">
<path d="M131.19 268.37L113.765 201.934L110.902 202.681L128.127 268.37H131.19Z" fill="white"/>
</g>
<path opacity="0.2" d="M53.6481 202.77H56.7113L54.3066 211.922L51.4728 211.057L53.6481 202.77Z" fill="black"/>
<path opacity="0.2" d="M78.2498 201.934L82.2083 217.035L78.8861 216.029L75.3864 202.681L78.2498 201.934Z" fill="black"/>
<path opacity="0.2" d="M89.156 202.77H92.2118L87.1952 221.933L84.354 221.068L89.156 202.77Z" fill="black"/>
<path opacity="0.2" d="M120.757 228.777L117.42 227.756L110.902 202.866L113.765 202.052L120.757 228.777Z" fill="black"/>
<path d="M50.9475 203.784L37.1113 128.883L36.9263 127.751C36.7891 127.052 36.8074 126.33 36.9801 125.639C37.1527 124.947 37.4754 124.302 37.9252 123.748C38.3593 123.229 38.9042 122.813 39.5201 122.531C40.1359 122.249 40.807 122.109 41.4841 122.121H71.4353C72.8572 122.189 74.2156 122.73 75.2957 123.657C76.3758 124.585 77.1159 125.846 77.3989 127.241L77.6209 128.506L91.4497 203.236L88.5345 203.776L74.6317 128.817L74.4541 127.766C74.3001 127.051 73.9209 126.405 73.3722 125.921C72.8236 125.438 72.1343 125.143 71.4057 125.08H41.4545C41.2114 125.071 40.9693 125.117 40.7464 125.214C40.5234 125.311 40.3254 125.458 40.1671 125.643C39.9943 125.868 39.873 126.129 39.8116 126.406C39.7502 126.683 39.7504 126.971 39.812 127.248L40.0191 128.484L53.8627 203.214L50.9475 203.784Z" fill="#407BFF"/>
<g opacity="0.5">
<path d="M50.9475 203.784L37.1113 128.883L36.9263 127.751C36.7891 127.052 36.8074 126.33 36.9801 125.639C37.1527 124.947 37.4754 124.302 37.9252 123.748C38.3593 123.229 38.9042 122.813 39.5201 122.531C40.1359 122.249 40.807 122.109 41.4841 122.121H71.4353C72.8572 122.189 74.2156 122.73 75.2957 123.657C76.3758 124.585 77.1159 125.846 77.3989 127.241L77.6209 128.506L91.4497 203.236L88.5345 203.776L74.6317 128.817L74.4541 127.766C74.3001 127.051 73.9209 126.405 73.3722 125.921C72.8236 125.438 72.1343 125.143 71.4057 125.08H41.4545C41.2114 125.071 40.9693 125.117 40.7464 125.214C40.5234 125.311 40.3254 125.458 40.1671 125.643C39.9943 125.868 39.873 126.129 39.8116 126.406C39.7502 126.683 39.7504 126.971 39.812 127.248L40.0191 128.484L53.8627 203.214L50.9475 203.784Z" fill="white"/>
</g>
<path d="M56.9998 196.355H113.92C114.902 196.355 115.843 196.745 116.536 197.439C117.23 198.132 117.62 199.073 117.62 200.055V205.004H53.3003V200.055C53.3003 199.073 53.6901 198.132 54.3839 197.439C55.0777 196.745 56.0187 196.355 56.9998 196.355Z" fill="#407BFF"/>
<path d="M118.508 200.683H52.4124C51.5911 200.683 50.9252 201.349 50.9252 202.171V203.517C50.9252 204.339 51.5911 205.004 52.4124 205.004H118.508C119.329 205.004 119.995 204.339 119.995 203.517V202.171C119.995 201.349 119.329 200.683 118.508 200.683Z" fill="#407BFF"/>
<path opacity="0.6" d="M118.508 200.683H52.4124C51.5911 200.683 50.9252 201.349 50.9252 202.171V203.517C50.9252 204.339 51.5911 205.004 52.4124 205.004H118.508C119.329 205.004 119.995 204.339 119.995 203.517V202.171C119.995 201.349 119.329 200.683 118.508 200.683Z" fill="white"/>
<path d="M81.7496 159.116H44.1404L38.5319 128.78H76.1337L81.6978 158.835L81.7496 159.116Z" fill="#407BFF"/>
<path d="M118.745 94.4706C118.745 94.4706 114.017 83.4831 113.61 82.3141C113.203 81.145 113.684 75.1888 113.321 74.1308C112.959 73.0727 107.469 72.3772 106.307 72.5178C105.145 72.6584 106.166 81.8331 106.647 82.5656C107.274 83.3116 107.982 83.9865 108.756 84.5782L112.936 97.1565L118.745 94.4706Z" fill="#B97964"/>
<path d="M94.8236 115.195C98.0496 115.706 111.257 117.607 114.209 115.647C116.591 114.056 109.881 88.2703 109.881 88.2703L115.852 85.836C115.852 85.836 130.035 117.067 122.459 124.207C118.611 127.833 107.794 128.75 92.2339 128.75L94.8236 115.195Z" fill="#407BFF"/>
<path opacity="0.8" d="M94.8236 115.195C98.0496 115.706 111.257 117.607 114.209 115.647C116.591 114.056 109.881 88.2703 109.881 88.2703L115.852 85.836C115.852 85.836 130.035 117.067 122.459 124.207C118.611 127.833 107.794 128.75 92.2339 128.75L94.8236 115.195Z" fill="white"/>
<path opacity="0.1" d="M100.291 128.676C97.9978 128.743 95.5487 128.772 92.9739 128.772L95.1936 120.271C97.5986 122.579 99.3564 125.477 100.291 128.676Z" fill="black"/>
<path d="M113.447 133.212L129.103 149.763" stroke="#2E353A" stroke-width="1.4798" stroke-miterlimit="10"/>
<path d="M102.223 142.956C102.223 142.956 114.172 142.586 115.415 142.468C116.658 142.35 121.83 139.383 122.94 139.257C124.05 139.131 127.009 143.822 127.379 144.932C127.749 146.042 118.996 149.001 118.13 148.876C117.189 148.624 116.279 148.269 115.415 147.818L102.223 149.371V142.956Z" fill="#B97964"/>
<path d="M95.1936 262.576L101.091 261.762L101.904 247.756L96.0223 248.57L95.1936 262.576Z" fill="#B97964"/>
<path d="M101.535 261.052L94.8754 260.638C94.7638 260.627 94.6526 260.661 94.5655 260.731C94.4784 260.802 94.4223 260.904 94.4092 261.015L93.7581 266.268C93.7418 266.544 93.8343 266.814 94.0156 267.022C94.1969 267.229 94.4525 267.357 94.7274 267.378C97.0507 267.489 98.1679 267.423 101.098 267.578C102.903 267.689 106.447 268.074 108.926 267.83C111.405 267.585 111.101 265.144 110.036 265.025C107.491 264.737 104.117 262.872 102.533 261.452C102.254 261.212 101.902 261.071 101.535 261.052Z" fill="#2E353A"/>
<path d="M103.577 262.191C103.044 262.147 102.518 262.043 102.008 261.881C101.981 261.876 101.956 261.863 101.938 261.843C101.919 261.823 101.907 261.797 101.904 261.77C101.904 261.744 101.909 261.718 101.921 261.695C101.932 261.671 101.95 261.651 101.971 261.637C102.171 261.511 103.924 260.475 104.635 260.8C104.715 260.837 104.785 260.895 104.836 260.968C104.886 261.041 104.917 261.126 104.923 261.215C104.959 261.346 104.958 261.484 104.92 261.615C104.882 261.745 104.809 261.863 104.709 261.955C104.376 262.176 103.97 262.26 103.577 262.191ZM104.516 261.074C104.139 260.897 103.118 261.333 102.4 261.733C103.451 262.006 104.228 262.021 104.531 261.733C104.592 261.67 104.635 261.593 104.658 261.509C104.68 261.425 104.679 261.336 104.657 261.252C104.654 261.208 104.639 261.166 104.614 261.129C104.59 261.093 104.556 261.064 104.516 261.045V261.074Z" fill="#407BFF"/>
<path d="M102.038 261.925H101.978C101.939 261.897 101.913 261.854 101.904 261.807C101.904 261.755 101.904 260.024 102.511 259.476C102.595 259.407 102.692 259.358 102.797 259.331C102.902 259.304 103.012 259.301 103.118 259.321C103.236 259.333 103.346 259.383 103.432 259.465C103.518 259.547 103.574 259.655 103.591 259.772C103.688 260.423 102.726 261.614 102.112 261.925C102.1 261.93 102.087 261.933 102.075 261.933C102.062 261.933 102.049 261.93 102.038 261.925ZM103 259.617C102.945 259.613 102.889 259.62 102.837 259.638C102.785 259.656 102.737 259.684 102.696 259.72C102.311 260.046 102.215 261.015 102.193 261.577C102.769 261.156 103.17 260.537 103.318 259.839C103.318 259.757 103.266 259.661 103.066 259.624L103 259.617Z" fill="#407BFF"/>
<path opacity="0.2" d="M96.0222 248.57L101.904 247.763L101.438 255.769L95.5635 256.287L96.0222 248.57Z" fill="black"/>
<path d="M95.4303 180.21L93.9949 171.198L60.9509 169.223C60.9509 169.223 57.4364 187.972 60.137 192.966C64.9538 201.882 90.9317 197.406 98.5305 198.257C93.9875 216.836 94.4315 253.142 94.4315 253.142L105.286 253.971C105.286 253.971 113.639 214.845 115.326 196.259C116.466 183.718 106.07 184.028 95.4303 180.21Z" fill="#2E353A"/>
<path d="M93.1588 253.653L106.203 254.511L107.321 248.925L92.9886 248.259L93.1588 253.653Z" fill="#407BFF"/>
<path d="M108.793 257.338L114.727 257.774L118.441 244.241L112.515 243.812L108.793 257.338Z" fill="#B97964"/>
<path d="M115.311 257.175L108.882 255.384C108.776 255.349 108.66 255.358 108.56 255.407C108.46 255.457 108.384 255.545 108.349 255.651L106.618 260.652C106.581 260.786 106.571 260.925 106.588 261.062C106.605 261.199 106.65 261.331 106.718 261.451C106.787 261.571 106.879 261.675 106.989 261.759C107.099 261.843 107.224 261.905 107.358 261.94C109.577 262.532 110.709 262.68 113.543 263.471C115.282 263.945 118.671 265.062 121.149 265.343C123.628 265.625 123.835 263.168 122.814 262.828C120.387 262.021 117.487 259.491 116.222 257.774C115.995 257.477 115.674 257.266 115.311 257.175Z" fill="#2E353A"/>
<path d="M117.072 258.714C116.557 258.562 116.06 258.351 115.593 258.085C115.568 258.075 115.547 258.058 115.534 258.035C115.521 258.012 115.515 257.985 115.519 257.959C115.52 257.932 115.53 257.906 115.545 257.884C115.561 257.862 115.583 257.844 115.607 257.833C115.822 257.759 117.761 257.093 118.382 257.574C118.454 257.626 118.511 257.695 118.547 257.776C118.584 257.856 118.598 257.945 118.589 258.033C118.6 258.174 118.57 258.315 118.503 258.44C118.437 258.564 118.335 258.667 118.212 258.736C117.843 258.875 117.435 258.867 117.072 258.714ZM118.219 257.819C117.886 257.567 116.799 257.782 116 258.018C116.969 258.507 117.731 258.684 118.071 258.492C118.146 258.445 118.207 258.38 118.247 258.301C118.287 258.223 118.306 258.136 118.301 258.048C118.308 258.004 118.303 257.96 118.286 257.919C118.269 257.878 118.241 257.843 118.204 257.819H118.219Z" fill="#407BFF"/>
<path d="M115.63 258.092C115.621 258.098 115.61 258.1 115.6 258.1C115.59 258.1 115.579 258.098 115.57 258.092C115.553 258.078 115.54 258.06 115.532 258.039C115.524 258.018 115.522 257.996 115.526 257.974C115.526 257.922 115.874 256.22 116.599 255.813C116.696 255.768 116.802 255.745 116.91 255.745C117.017 255.745 117.123 255.768 117.22 255.813C117.334 255.849 117.433 255.922 117.501 256.019C117.569 256.117 117.603 256.235 117.598 256.354C117.546 257.012 116.362 257.974 115.696 258.152C115.681 258.149 115.666 258.142 115.654 258.132C115.642 258.121 115.634 258.108 115.63 258.092ZM117.021 256.006C116.967 255.991 116.912 255.987 116.857 255.995C116.802 256.002 116.75 256.021 116.702 256.05C116.259 256.287 115.963 257.219 115.822 257.759C116.429 257.478 117.228 256.723 117.302 256.28C117.302 256.198 117.302 256.095 117.102 256.013L117.021 256.006Z" fill="#407BFF"/>
<path opacity="0.2" d="M112.515 243.812L118.441 244.249L116.318 251.988L110.458 251.271L112.515 243.812Z" fill="black"/>
<path d="M120.454 251.034L110.006 247.963C110.006 247.963 116.244 212.759 122.585 200.55C122.111 200.395 121.482 200.195 120.705 199.966C119.307 199.544 117.45 199.019 115.267 198.412C100.084 194.202 69.3118 186.307 69.3118 186.307L83.37 173.189C83.37 173.189 139.366 181.727 140.527 196.481C141.067 203.576 120.454 251.034 120.454 251.034Z" fill="#2E353A"/>
<path d="M108.66 248.193L121.238 251.751L123.495 246.52L109.614 242.88L108.66 248.193Z" fill="#407BFF"/>
<path opacity="0.2" d="M120.72 199.966C119.322 199.544 117.465 199.019 115.282 198.412C115.718 194.831 115.726 190.724 114.002 188.63C110.576 184.457 101.764 182.008 96.7473 181.12C92.5521 180.381 78.457 178.901 78.457 178.901C78.457 178.901 96.7473 177.147 115.452 182.6C124.656 185.308 122.858 194.342 120.72 199.966Z" fill="black"/>
<path d="M94.8236 115.195C94.8236 115.195 99.6182 132.953 94.0171 171.198C83.5771 170.976 66.034 170.569 60.9509 170.458C60.8251 165.131 64.754 139.027 60.1592 113.849C63.4675 113.274 66.8134 112.943 70.1701 112.857C75.0826 112.678 80.0013 112.784 84.9015 113.175C88.2565 113.589 91.574 114.264 94.8236 115.195Z" fill="#407BFF"/>
<path opacity="0.7" d="M94.8236 115.195C94.8236 115.195 99.6182 132.953 94.0171 171.198C83.5771 170.976 66.034 170.569 60.9509 170.458C60.8251 165.131 64.754 139.027 60.1592 113.849C63.4675 113.274 66.8134 112.943 70.1701 112.857C75.0826 112.678 80.0013 112.784 84.9015 113.175C88.2565 113.589 91.574 114.264 94.8236 115.195Z" fill="white"/>
<path opacity="0.1" d="M71.7609 146.293C68.8013 145.642 65.2719 142.794 62.3641 139.982C62.3641 134.98 62.12 129.66 61.5798 124.237C65.6937 130.326 76.8366 147.411 71.7609 146.293Z" fill="black"/>
<path d="M60.137 113.849C48.8239 117.925 68.6829 148.557 74.8462 151.717C81.0096 154.876 112.337 148.261 112.337 148.261L111.101 141.928C111.101 141.928 83.3847 142.668 80.832 141.987C78.2794 141.306 72.2122 128.284 68.7199 122.121C66.7812 118.544 63.7831 115.654 60.137 113.849Z" fill="#407BFF"/>
<path opacity="0.8" d="M60.137 113.849C48.8239 117.925 68.6829 148.557 74.8462 151.717C81.0096 154.876 112.337 148.261 112.337 148.261L111.101 141.928C111.101 141.928 83.3847 142.668 80.832 141.987C78.2794 141.306 72.2122 128.284 68.7199 122.121C66.7812 118.544 63.7831 115.654 60.137 113.849Z" fill="white"/>
<path d="M108.882 141.358L110.487 149.763L113.447 148.757L112.337 141.358H108.882Z" fill="#407BFF"/>
<path opacity="0.7" d="M108.882 141.358L110.487 149.763L113.447 148.757L112.337 141.358H108.882Z" fill="white"/>
<path d="M109.681 90.1422L117.642 86.9902L116.096 84.2674L109.03 86.7461L109.681 90.1422Z" fill="#407BFF"/>
<path opacity="0.7" d="M109.681 90.1422L117.642 86.9902L116.096 84.2674L109.03 86.7461L109.681 90.1422Z" fill="white"/>
<path opacity="0.1" d="M68.3647 112.931C68.3647 112.931 68.5793 116.387 75.3642 119.716L80.0551 116.32C80.0551 116.32 81.3944 124.984 82.2748 131.458C82.2748 131.458 82.2157 121.1 81.3278 117.126L84.9163 118.399C84.9163 118.399 81.8605 113.146 76.659 111.947C71.4575 110.748 68.3647 112.931 68.3647 112.931Z" fill="black"/>
<path d="M71.9607 96.3426C72.7893 101.1 73.5292 109.801 70.1479 112.894L80.0256 115.647L84.8497 113.212C79.589 111.836 79.811 107.915 80.8099 104.252L71.9607 96.3426Z" fill="#B97964"/>
<path opacity="0.2" d="M75.5862 99.5685L80.8395 104.252C80.5956 105.104 80.4248 105.975 80.3289 106.857C78.3164 106.524 75.5936 104.245 75.4234 102.129C75.3181 101.273 75.3733 100.404 75.5862 99.5685Z" fill="black"/>
<path d="M78.9675 83.1205C76.8144 85.4586 78.6716 88.1297 85.5452 91.3778C87.1804 87.7745 86.1816 81.7591 83.9619 80.7085C81.7422 79.6578 80.8469 81.0932 78.9675 83.1205Z" fill="#2E353A"/>
<path d="M69.075 90.4752C70.8212 96.6682 71.5315 100.375 75.3938 102.913C81.2094 106.723 88.3347 102.173 88.4753 95.5805C88.5936 89.6613 85.7228 80.5235 79.0415 79.3619C77.5706 79.0971 76.0565 79.2126 74.6428 79.6976C73.2292 80.1826 71.9629 81.0208 70.9644 82.1328C69.9658 83.2448 69.2681 84.5936 68.9374 86.0511C68.6067 87.5085 68.6541 89.0264 69.075 90.4604V90.4752Z" fill="#B97964"/>
<path d="M78.8195 90.1644C78.9305 90.6749 79.2931 91.0301 79.626 90.9561C79.959 90.8821 80.1366 90.416 80.0256 89.9054C79.9146 89.3949 79.5594 89.0398 79.2265 89.1063C78.8935 89.1729 78.7455 89.6539 78.8195 90.1644Z" fill="#2E353A"/>
<path d="M84.6278 88.914C84.7387 89.4245 85.1013 89.7797 85.4342 89.7057C85.7672 89.6317 85.9522 89.1655 85.8412 88.6476C85.7302 88.1297 85.3677 87.7819 85.0347 87.8559C84.7017 87.9299 84.5168 88.4034 84.6278 88.914Z" fill="#2E353A"/>
<path d="M82.7854 89.5651C83.7327 90.9951 84.873 92.2874 86.1741 93.4051C85.8783 93.73 85.5152 93.9863 85.1101 94.1563C84.705 94.3262 84.2677 94.4057 83.8287 94.3892L82.7854 89.5651Z" fill="#A24E3F"/>
<path d="M76.8366 88.6772C76.7817 88.6977 76.7217 88.701 76.6648 88.6866C76.608 88.6722 76.5568 88.6408 76.5182 88.5966C76.4796 88.5524 76.4554 88.4975 76.4489 88.4392C76.4423 88.3809 76.4537 88.3219 76.4815 88.2702C76.6751 87.8222 76.9739 87.4276 77.3526 87.1197C77.7313 86.8119 78.1787 86.5999 78.6568 86.5019C78.6952 86.4944 78.7347 86.4946 78.773 86.5024C78.8113 86.5103 78.8477 86.5257 78.88 86.5477C78.9124 86.5697 78.94 86.5979 78.9614 86.6307C78.9828 86.6635 78.9974 86.7002 79.0045 86.7387C79.0133 86.8186 78.9915 86.8989 78.9435 86.9635C78.8954 87.028 78.8247 87.0719 78.7456 87.0864C78.37 87.1697 78.0197 87.3414 77.7237 87.5871C77.4278 87.8329 77.1947 88.1457 77.0438 88.4996C77.0246 88.5427 76.996 88.581 76.9602 88.6117C76.9244 88.6425 76.8822 88.6648 76.8366 88.6772Z" fill="#2E353A"/>
<path d="M86.8475 86.3836C86.7905 86.3961 86.7311 86.3924 86.6762 86.3727C86.6212 86.3531 86.5729 86.3184 86.5367 86.2726C86.3083 85.9621 86.0094 85.7104 85.6647 85.538C85.3199 85.3656 84.9392 85.2776 84.5538 85.2811C84.4725 85.2873 84.3921 85.2613 84.3298 85.2087C84.2675 85.1561 84.2284 85.0811 84.2208 84.9999C84.2164 84.9202 84.242 84.8417 84.2927 84.78C84.3435 84.7184 84.4155 84.678 84.4946 84.667C84.9826 84.6559 85.4662 84.7616 85.905 84.9752C86.3439 85.1889 86.7254 85.5043 87.0177 85.8952C87.0427 85.9267 87.0613 85.9628 87.0723 86.0015C87.0832 86.0402 87.0864 86.0807 87.0816 86.1206C87.0768 86.1606 87.0641 86.1992 87.0442 86.2341C87.0243 86.2691 86.9977 86.2998 86.9659 86.3244C86.9305 86.3513 86.8903 86.3714 86.8475 86.3836Z" fill="#2E353A"/>
<path d="M70.4069 84.3488C73.5588 84.7187 73.8844 87.9595 70.7768 94.8924C67.1883 93.2202 64.0289 87.9965 65.0426 85.762C66.0562 83.5275 67.6174 84.0528 70.4069 84.3488Z" fill="#2E353A"/>
<path d="M67.1735 96.1428C67.5526 96.8497 68.0672 97.4749 68.688 97.9827C69.3089 98.4905 70.0237 98.871 70.7916 99.1024C72.8485 99.7018 73.8992 97.8668 73.3517 95.9135C72.8559 94.1525 71.1838 91.7182 69.112 91.9772C67.0403 92.2362 66.2412 94.3893 67.1735 96.1428Z" fill="#B97964"/>
<path d="M65.2868 85.2663C65.2868 85.2663 63.7256 83.2538 66.7666 79.2213C69.8075 75.1888 77.2584 73.9902 82.9852 75.0704C88.712 76.1507 85.2937 82.4695 83.2589 83.5201L83.5105 82.5361C81.3327 83.6722 78.9348 84.3234 76.4815 84.445L77.6061 83.3943C77.6061 83.3943 68.6163 85.7176 65.2868 85.2663Z" fill="#2E353A"/>
<path d="M83.4513 96.091C83.3219 96.8515 83.2502 97.6207 83.2367 98.3921L82.8372 98.4513C81.0022 98.688 80.0774 98.1997 79.6038 97.5782C79.3792 97.2718 79.2297 96.917 79.1673 96.5423C79.1368 96.3288 79.1368 96.1121 79.1673 95.8986C80.3669 96.253 81.6288 96.3438 82.8668 96.165C83.2071 96.128 83.4513 96.091 83.4513 96.091Z" fill="#2E353A"/>
<path d="M82.8224 96.1872L82.741 96.8605C81.0244 97.0899 79.7814 97.0159 79.1673 96.5645C79.1368 96.3511 79.1368 96.1343 79.1673 95.9208C80.3528 96.2688 81.599 96.3596 82.8224 96.1872Z" fill="white"/>
<path d="M82.8372 98.4513C81.0023 98.6881 80.0774 98.1998 79.6039 97.5782C80.2993 97.4994 81.0033 97.5444 81.683 97.7114C82.1344 97.8342 82.5372 98.0924 82.8372 98.4513Z" fill="#A24E3F"/>
<path d="M71.8867 109.964C71.8867 109.964 77.2287 113.982 80.0256 114.907C80.0256 114.907 81.3426 112.428 80.8025 110.393L84.8497 113.212C85.3048 114.909 85.3048 116.695 84.8497 118.392L80.0256 115.647L75.4678 118.976C75.4678 118.976 68.7273 117.023 68.3351 112.931L71.8867 109.964Z" fill="#407BFF"/>
<path opacity="0.8" d="M71.8867 109.964C71.8867 109.964 77.2287 113.982 80.0256 114.907C80.0256 114.907 81.3426 112.428 80.8025 110.393L84.8497 113.212C85.3048 114.909 85.3048 116.695 84.8497 118.392L80.0256 115.647L75.4678 118.976C75.4678 118.976 68.7273 117.023 68.3351 112.931L71.8867 109.964Z" fill="white"/>
<path d="M160.061 147.914H86.3147C85.8366 147.914 85.449 148.301 85.449 148.779V150.947C85.449 151.425 85.8366 151.813 86.3147 151.813H160.061C160.539 151.813 160.926 151.425 160.926 150.947V148.779C160.926 148.301 160.539 147.914 160.061 147.914Z" fill="#407BFF"/>
<path opacity="0.5" d="M160.675 148.72V150.888C160.675 151.369 160.542 151.754 160.068 151.754H86.3147C85.8338 151.754 85.2049 151.369 85.2049 150.888V148.72C85.2049 148.247 85.8338 148.054 86.3147 148.054H160.068C160.542 148.017 160.675 148.21 160.675 148.72Z" fill="white"/>
<path opacity="0.2" d="M116.281 148.72V150.888C116.281 151.369 116.118 151.754 115.644 151.754H86.3147C85.8338 151.754 85.2049 151.369 85.2049 150.888V148.72C85.2049 148.247 85.8338 148.054 86.3147 148.054H115.644C116.118 148.017 116.281 148.21 116.281 148.72Z" fill="black"/>
<path d="M99.5294 40.0878C98.8919 37.7776 97.6782 35.667 96.0022 33.9539C94.3261 32.2409 92.2425 30.9815 89.9467 30.2937C87.6509 29.606 85.2181 29.5125 82.8762 30.0219C80.5344 30.5313 78.3602 31.6271 76.5576 33.2064C74.755 34.7857 73.3828 36.7969 72.5699 39.0514C71.7569 41.3059 71.5297 43.7299 71.9096 46.0962C72.2895 48.4625 73.2639 50.6937 74.7417 52.5804C76.2195 54.4672 78.1521 55.9479 80.3585 56.8836C81.3047 57.272 82.0686 58.0043 82.4968 58.9331L82.9778 60.0282L96.5994 56.3287L96.4588 55.1448C96.3609 54.1186 96.6483 53.0926 97.2653 52.2666C98.5344 50.5376 99.397 48.5446 99.789 46.4359C100.181 44.3273 100.092 42.1574 99.5294 40.0878Z" fill="#407BFF"/>
<path d="M87.4246 60.0578C87.4246 60.0578 85.3751 53.6207 81.757 50.7795L83.7621 50.232L83.9175 47.1466L87.1952 51.8893L86.9289 46.1181L90.1622 51.3788L90.4878 48.4192L93.3438 47.6127C91.7768 51.1337 91.4966 55.0934 92.5521 58.8" stroke="white" stroke-width="0.739901" stroke-linecap="round" stroke-linejoin="round"/>
<path d="M89.9994 58.9776C87.5874 59.6361 86.2407 62.4034 86.9954 65.1632C87.7501 67.923 90.3102 69.6026 92.7223 68.9737C95.1344 68.3448 96.4736 65.5479 95.7263 62.7881C94.979 60.0283 92.4115 58.3191 89.9994 58.9776Z" fill="#2E353A"/>
<path d="M94.646 66.4358L89.7923 67.7602C88.6318 68.0753 87.3952 67.9401 86.3303 67.3816C85.2655 66.8231 84.4511 65.8826 84.0506 64.7488L82.4598 60.265C82.4291 60.1757 82.4168 60.0811 82.4238 59.9869C82.4308 59.8927 82.4569 59.801 82.5005 59.7172C82.5441 59.6334 82.6043 59.5594 82.6775 59.4997C82.7506 59.4399 82.8352 59.3957 82.926 59.3697L96.3034 55.722C96.3944 55.6968 96.4896 55.6909 96.583 55.7045C96.6765 55.7181 96.766 55.751 96.8461 55.8011C96.9261 55.8512 96.9948 55.9174 97.0479 55.9955C97.1009 56.0736 97.1372 56.1619 97.1543 56.2547L98.0644 60.9309C98.2919 62.1103 98.0663 63.3321 97.4327 64.3524C96.799 65.3728 95.804 66.1168 94.646 66.4358Z" fill="#407BFF"/>
<path opacity="0.4" d="M94.646 66.4358L89.7923 67.7602C88.6318 68.0753 87.3952 67.9401 86.3303 67.3816C85.2655 66.8231 84.4511 65.8826 84.0506 64.7488L82.4598 60.265C82.4291 60.1757 82.4168 60.0811 82.4238 59.9869C82.4308 59.8927 82.4569 59.801 82.5005 59.7172C82.5441 59.6334 82.6043 59.5594 82.6775 59.4997C82.7506 59.4399 82.8352 59.3957 82.926 59.3697L96.3034 55.722C96.3944 55.6968 96.4896 55.6909 96.583 55.7045C96.6765 55.7181 96.766 55.751 96.8461 55.8011C96.9261 55.8512 96.9948 55.9174 97.0479 55.9955C97.1009 56.0736 97.1372 56.1619 97.1543 56.2547L98.0644 60.9309C98.2919 62.1103 98.0663 63.3321 97.4327 64.3524C96.799 65.3728 95.804 66.1168 94.646 66.4358Z" fill="white"/>
<path d="M66.9885 54.2348C65.663 53.9912 64.3186 53.8649 62.9709 53.8574C62.3008 53.8497 61.6309 53.8868 60.9657 53.9684C60.6328 54.0202 60.2998 54.0572 59.9817 54.1386C59.8189 54.183 59.6561 54.2052 59.5007 54.2644L59.0346 54.4123L58.5019 54.5825L58.82 54.1164C59.7174 52.7878 60.4317 51.3443 60.9435 49.825C61.1963 49.0708 61.382 48.2959 61.4985 47.5091C61.555 47.1192 61.5896 46.7264 61.602 46.3326C61.6243 45.9408 61.6243 45.548 61.602 45.1562C61.5743 44.7682 61.5199 44.3825 61.4393 44.0019L61.2987 43.4322L61.1137 42.8847C60.9823 42.5219 60.8215 42.1705 60.6328 41.834C60.4509 41.4923 60.2457 41.1635 60.0187 40.85C59.7879 40.5435 59.5409 40.2496 59.2788 39.9695L58.8718 39.5551L58.4279 39.1704C58.1393 38.904 57.799 38.6968 57.4956 38.4305C57.1922 38.1641 56.8297 38.0087 56.4967 37.8016L55.7568 37.3058L56.5781 36.9137C56.9883 36.7168 57.3883 36.4995 57.7768 36.2626C58.1763 36.0258 58.561 35.7742 58.9458 35.5227C59.7067 35.0005 60.431 34.427 61.1137 33.8061C61.4467 33.4953 61.7722 33.1698 62.0904 32.8442C62.4085 32.5187 62.6971 32.1561 62.9709 31.801C63.2446 31.4458 63.511 31.0611 63.7108 30.6837C63.9513 30.3038 64.1663 29.9083 64.3545 29.4999C64.55 29.0999 64.7181 28.687 64.8576 28.2642L65.05 27.6205L65.1906 26.9694C65.2735 26.5324 65.323 26.0896 65.3385 25.645C65.3681 25.2015 65.3681 24.7566 65.3385 24.3132C65.2984 23.8677 65.2292 23.4252 65.1314 22.9887L64.9834 22.3376L64.7762 21.6939C64.6504 21.2574 64.4507 20.8504 64.2879 20.4287C64.1251 20.0069 63.8883 19.6074 63.6886 19.2005L62.5787 17.0177L64.606 18.32C64.9612 18.5493 65.3459 18.7861 65.7677 19.0007C66.1894 19.2153 66.5816 19.4224 66.9959 19.6074C67.8198 19.9936 68.6704 20.32 69.5412 20.5841C69.9777 20.7173 70.4143 20.8356 70.8508 20.9318C71.2874 21.028 71.7313 21.102 72.1752 21.1538C72.6149 21.2041 73.0571 21.2288 73.4996 21.2278C73.9375 21.2306 74.3751 21.2034 74.8093 21.1464L75.4456 21.028L76.0745 20.8652C76.4806 20.7319 76.8763 20.5687 77.2583 20.3769C77.4475 20.2799 77.6304 20.1712 77.8059 20.0513C77.9928 19.9485 78.1688 19.8271 78.3312 19.6888C78.6707 19.4245 78.992 19.1378 79.2931 18.8305C79.5908 18.5101 79.8653 18.1689 80.1144 17.8094C80.3753 17.4544 80.6102 17.081 80.8173 16.6922C81.0466 16.3148 81.202 15.8857 81.4018 15.4862C81.6016 15.0866 81.72 14.6427 81.8827 14.2209L82.8076 11.8384L83.2664 14.3689C83.3438 14.7828 83.4501 15.1907 83.5845 15.5897C83.7154 16.0022 83.8686 16.4073 84.0432 16.8032C84.3911 17.5904 84.8281 18.3351 85.3455 19.0229C85.8567 19.7043 86.462 20.3097 87.1434 20.8208C87.4792 21.0767 87.8356 21.3044 88.2089 21.5015C88.5835 21.7011 88.9717 21.8742 89.3705 22.0195C89.7722 22.1573 90.1825 22.2685 90.5988 22.3524C91.0207 22.4435 91.4484 22.5053 91.8788 22.5374C92.31 22.5634 92.7424 22.5634 93.1736 22.5374C93.6117 22.5311 94.049 22.499 94.4832 22.4412C94.9198 22.3968 95.3563 22.308 95.7855 22.2414L97.0803 21.9307L98.3603 21.5459L99.6256 21.0946L101.379 20.4657L100.373 22.0269C100.188 22.3006 100.003 22.6336 99.8327 22.9444C99.6626 23.2551 99.5072 23.5955 99.3592 23.9284C99.0681 24.5944 98.8378 25.2853 98.6711 25.9927C98.5056 26.6859 98.4236 27.3963 98.4269 28.1089C98.4348 28.8121 98.5573 29.5093 98.7895 30.1732L98.9893 30.6615L99.226 31.1203C99.4087 31.4215 99.614 31.7084 99.8401 31.9785C100.068 32.2428 100.316 32.4901 100.58 32.7185C100.854 32.9542 101.143 33.1717 101.446 33.3696C101.744 33.5769 102.055 33.7648 102.378 33.9319C102.696 34.1095 103.037 34.25 103.369 34.4128L104.405 34.805L105.471 35.1379L106.211 35.3747L105.589 35.8556C105.18 36.1888 104.797 36.5524 104.442 36.9433C104.074 37.3286 103.733 37.739 103.421 38.1715C103.258 38.3847 103.107 38.607 102.97 38.8374C102.827 39.061 102.699 39.2933 102.585 39.5329C102.454 39.7689 102.345 40.0166 102.26 40.2728C102.156 40.5115 102.074 40.7592 102.015 41.0127C101.964 41.2717 101.875 41.5233 101.845 41.7896L101.771 42.5813C101.771 42.8477 101.771 43.1067 101.816 43.373C101.831 43.641 101.875 43.9066 101.949 44.1647C101.998 44.4166 102.067 44.664 102.156 44.9046L102.459 45.6445C102.561 45.9026 102.688 46.1504 102.837 46.3844L103.251 47.1243L103.406 47.3759H103.118C102.023 47.375 100.934 47.5193 99.8771 47.805C99.3476 47.9453 98.8362 48.1464 98.3529 48.4044C98.2328 48.4688 98.1167 48.5405 98.0052 48.6189C97.8867 48.6868 97.7752 48.7661 97.6722 48.8557C97.5619 48.939 97.458 49.0305 97.3615 49.1295L97.0729 49.4328L97.3467 49.1147C97.4361 49.0095 97.5352 48.9129 97.6426 48.8261C97.7428 48.7276 97.8518 48.6385 97.9682 48.5597C98.0792 48.4857 98.1902 48.3896 98.3085 48.323C98.7858 48.0356 99.2948 47.8046 99.8253 47.6349C100.891 47.2888 101.999 47.0921 103.118 47.0503L102.992 47.3093L102.533 46.5694C102.367 46.3372 102.223 46.0894 102.104 45.8295L101.756 45.0526C101.646 44.7902 101.562 44.5176 101.505 44.2387C101.413 43.9681 101.353 43.6874 101.327 43.4026C101.327 43.1215 101.261 42.8329 101.253 42.5443V41.6861C101.253 41.3975 101.357 41.1237 101.401 40.8426C101.458 40.5604 101.537 40.2832 101.638 40.0139C101.718 39.7377 101.824 39.4701 101.956 39.2148C102.066 38.959 102.195 38.7117 102.341 38.4749C102.476 38.2205 102.624 37.9735 102.785 37.735C103.102 37.2617 103.456 36.8139 103.843 36.3958C104.227 35.9654 104.645 35.567 105.093 35.2045L105.234 35.9444L104.117 35.6263L103.014 35.2341C102.652 35.0713 102.274 34.9382 101.934 34.7532C101.581 34.5772 101.238 34.3821 100.906 34.1687C100.568 33.9418 100.244 33.6947 99.9363 33.4288C99.6262 33.1679 99.3368 32.8835 99.0706 32.5779C98.7948 32.2755 98.5471 31.9486 98.3307 31.6012L98.0274 31.0611L97.7832 30.4987C97.5053 29.7344 97.3553 28.9294 97.3393 28.1163C97.3101 27.3089 97.3822 26.501 97.5538 25.7116C97.7181 24.9354 97.9509 24.1752 98.2494 23.4401C98.3973 23.0701 98.5601 22.7076 98.7377 22.3524C98.9227 21.9973 99.1002 21.6643 99.3296 21.3018L100.07 22.234L98.7525 22.715L97.4133 23.1293L96.037 23.4697C95.5709 23.5437 95.1122 23.6473 94.6386 23.6991C94.1651 23.7645 93.6884 23.804 93.2106 23.8174C92.7178 23.8485 92.2236 23.8485 91.7308 23.8174C91.2482 23.7898 90.7683 23.7254 90.2954 23.6251C89.8163 23.5349 89.3441 23.4113 88.8822 23.2551C88.4207 23.0908 87.9708 22.8955 87.5356 22.6706C87.0982 22.4435 86.68 22.1812 86.2852 21.8863C85.4962 21.3052 84.7937 20.6152 84.1986 19.8368C83.6062 19.0686 83.1093 18.2313 82.7188 17.3433C82.5177 16.9076 82.3422 16.4604 82.1935 16.0041C82.0338 15.5346 81.9053 15.0551 81.8087 14.5687L83.1924 14.6797C83.0222 15.1384 82.8668 15.6045 82.6818 16.0559C82.4968 16.5072 82.3045 16.966 82.0455 17.3951C81.8297 17.8389 81.5824 18.2666 81.3056 18.6751C81.0155 19.0896 80.6992 19.485 80.3585 19.859C80.0071 20.2275 79.626 20.5665 79.2191 20.8726C79.0195 21.0356 78.8067 21.1817 78.5828 21.3092C78.3693 21.4516 78.1469 21.5801 77.9169 21.6939C77.4565 21.923 76.9791 22.1159 76.4889 22.271L75.749 22.456C75.4974 22.5078 75.2458 22.5448 75.0091 22.5818C74.5182 22.6433 74.0239 22.6729 73.5293 22.6706C73.0344 22.6716 72.54 22.6394 72.0494 22.5744C71.5537 22.5152 71.0728 22.419 70.5696 22.3154C70.0665 22.2119 69.6152 22.0787 69.149 21.9307C68.2221 21.6405 67.3171 21.2845 66.441 20.8652C65.9971 20.6655 65.5679 20.4435 65.1462 20.2067C64.7096 19.982 64.2848 19.7351 63.8735 19.4668L64.8428 18.5937C65.0574 19.0377 65.2867 19.4668 65.4791 19.9182C65.6715 20.3695 65.8713 20.8282 66.0045 21.3092L66.2264 22.0491L66.3892 22.789C66.4895 23.2779 66.5636 23.7719 66.6112 24.2688C66.6396 24.7616 66.6396 25.2557 66.6112 25.7486C66.5882 26.2455 66.5289 26.7401 66.4336 27.2284L66.2708 27.9683L66.0488 28.7082C65.8872 29.1816 65.6944 29.6438 65.4717 30.0918C65.2575 30.5435 65.0102 30.9787 64.7318 31.394C64.4655 31.8084 64.1621 32.2079 63.8587 32.5927C63.5554 32.9774 63.215 33.3326 62.8747 33.6951C62.5343 34.0577 62.1718 34.3758 61.8092 34.7014C61.0714 35.3361 60.2928 35.9219 59.4785 36.455C59.0716 36.7213 58.6572 36.9655 58.2355 37.1949C57.8138 37.4242 57.3846 37.6536 56.9185 37.8608L56.9703 36.9803C57.318 37.2097 57.7102 37.4316 58.0209 37.6758C58.3317 37.92 58.7016 38.1715 59.005 38.4675L59.4785 38.8966L59.9151 39.3554C60.1997 39.6707 60.4665 40.0017 60.7142 40.3468C60.959 40.696 61.179 41.0619 61.3727 41.4419C61.5692 41.8211 61.7373 42.2143 61.8758 42.6183L62.0608 43.2324L62.194 43.854C62.2729 44.2717 62.3223 44.6945 62.3419 45.1192C62.3938 46.7958 62.1017 48.4653 61.4837 50.0247C61.1934 50.7891 60.8472 51.531 60.4478 52.2444C60.0598 52.9725 59.6171 53.67 59.1234 54.331L58.9088 54.035L59.4045 53.9018C59.5722 53.8543 59.7427 53.8172 59.9151 53.7908C60.248 53.7168 60.5884 53.6946 60.9287 53.6503C61.6087 53.6059 62.2909 53.6059 62.9709 53.6503C64.3248 53.7257 65.6693 53.9213 66.9885 54.2348Z" fill="#407BFF"/>
<path opacity="0.7" d="M66.9885 54.2348C65.663 53.9912 64.3186 53.8649 62.9709 53.8574C62.3008 53.8497 61.6309 53.8868 60.9657 53.9684C60.6328 54.0202 60.2998 54.0572 59.9817 54.1386C59.8189 54.183 59.6561 54.2052 59.5007 54.2644L59.0346 54.4123L58.5019 54.5825L58.82 54.1164C59.7174 52.7878 60.4317 51.3443 60.9435 49.825C61.1963 49.0708 61.382 48.2959 61.4985 47.5091C61.555 47.1192 61.5896 46.7264 61.602 46.3326C61.6243 45.9408 61.6243 45.548 61.602 45.1562C61.5743 44.7682 61.5199 44.3825 61.4393 44.0019L61.2987 43.4322L61.1137 42.8847C60.9823 42.5219 60.8215 42.1705 60.6328 41.834C60.4509 41.4923 60.2457 41.1635 60.0187 40.85C59.7879 40.5435 59.5409 40.2496 59.2788 39.9695L58.8718 39.5551L58.4279 39.1704C58.1393 38.904 57.799 38.6968 57.4956 38.4305C57.1922 38.1641 56.8297 38.0087 56.4967 37.8016L55.7568 37.3058L56.5781 36.9137C56.9883 36.7168 57.3883 36.4995 57.7768 36.2626C58.1763 36.0258 58.561 35.7742 58.9458 35.5227C59.7067 35.0005 60.431 34.427 61.1137 33.8061C61.4467 33.4953 61.7722 33.1698 62.0904 32.8442C62.4085 32.5187 62.6971 32.1561 62.9709 31.801C63.2446 31.4458 63.511 31.0611 63.7108 30.6837C63.9513 30.3038 64.1663 29.9083 64.3545 29.4999C64.55 29.0999 64.7181 28.687 64.8576 28.2642L65.05 27.6205L65.1906 26.9694C65.2735 26.5324 65.323 26.0896 65.3385 25.645C65.3681 25.2015 65.3681 24.7566 65.3385 24.3132C65.2984 23.8677 65.2292 23.4252 65.1314 22.9887L64.9834 22.3376L64.7762 21.6939C64.6504 21.2574 64.4507 20.8504 64.2879 20.4287C64.1251 20.0069 63.8883 19.6074 63.6886 19.2005L62.5787 17.0177L64.606 18.32C64.9612 18.5493 65.3459 18.7861 65.7677 19.0007C66.1894 19.2153 66.5816 19.4224 66.9959 19.6074C67.8198 19.9936 68.6704 20.32 69.5412 20.5841C69.9777 20.7173 70.4143 20.8356 70.8508 20.9318C71.2874 21.028 71.7313 21.102 72.1752 21.1538C72.6149 21.2041 73.0571 21.2288 73.4996 21.2278C73.9375 21.2306 74.3751 21.2034 74.8093 21.1464L75.4456 21.028L76.0745 20.8652C76.4806 20.7319 76.8763 20.5687 77.2583 20.3769C77.4475 20.2799 77.6304 20.1712 77.8059 20.0513C77.9928 19.9485 78.1688 19.8271 78.3312 19.6888C78.6707 19.4245 78.992 19.1378 79.2931 18.8305C79.5908 18.5101 79.8653 18.1689 80.1144 17.8094C80.3753 17.4544 80.6102 17.081 80.8173 16.6922C81.0466 16.3148 81.202 15.8857 81.4018 15.4862C81.6016 15.0866 81.72 14.6427 81.8827 14.2209L82.8076 11.8384L83.2664 14.3689C83.3438 14.7828 83.4501 15.1907 83.5845 15.5897C83.7154 16.0022 83.8686 16.4073 84.0432 16.8032C84.3911 17.5904 84.8281 18.3351 85.3455 19.0229C85.8567 19.7043 86.462 20.3097 87.1434 20.8208C87.4792 21.0767 87.8356 21.3044 88.2089 21.5015C88.5835 21.7011 88.9717 21.8742 89.3705 22.0195C89.7722 22.1573 90.1825 22.2685 90.5988 22.3524C91.0207 22.4435 91.4484 22.5053 91.8788 22.5374C92.31 22.5634 92.7424 22.5634 93.1736 22.5374C93.6117 22.5311 94.049 22.499 94.4832 22.4412C94.9198 22.3968 95.3563 22.308 95.7855 22.2414L97.0803 21.9307L98.3603 21.5459L99.6256 21.0946L101.379 20.4657L100.373 22.0269C100.188 22.3006 100.003 22.6336 99.8327 22.9444C99.6626 23.2551 99.5072 23.5955 99.3592 23.9284C99.0681 24.5944 98.8378 25.2853 98.6711 25.9927C98.5056 26.6859 98.4236 27.3963 98.4269 28.1089C98.4348 28.8121 98.5573 29.5093 98.7895 30.1732L98.9893 30.6615L99.226 31.1203C99.4087 31.4215 99.614 31.7084 99.8401 31.9785C100.068 32.2428 100.316 32.4901 100.58 32.7185C100.854 32.9542 101.143 33.1717 101.446 33.3696C101.744 33.5769 102.055 33.7648 102.378 33.9319C102.696 34.1095 103.037 34.25 103.369 34.4128L104.405 34.805L105.471 35.1379L106.211 35.3747L105.589 35.8556C105.18 36.1888 104.797 36.5524 104.442 36.9433C104.074 37.3286 103.733 37.739 103.421 38.1715C103.258 38.3847 103.107 38.607 102.97 38.8374C102.827 39.061 102.699 39.2933 102.585 39.5329C102.454 39.7689 102.345 40.0166 102.26 40.2728C102.156 40.5115 102.074 40.7592 102.015 41.0127C101.964 41.2717 101.875 41.5233 101.845 41.7896L101.771 42.5813C101.771 42.8477 101.771 43.1067 101.816 43.373C101.831 43.641 101.875 43.9066 101.949 44.1647C101.998 44.4166 102.067 44.664 102.156 44.9046L102.459 45.6445C102.561 45.9026 102.688 46.1504 102.837 46.3844L103.251 47.1243L103.406 47.3759H103.118C102.023 47.375 100.934 47.5193 99.8771 47.805C99.3476 47.9453 98.8362 48.1464 98.3529 48.4044C98.2328 48.4688 98.1167 48.5405 98.0052 48.6189C97.8867 48.6868 97.7752 48.7661 97.6722 48.8557C97.5619 48.939 97.458 49.0305 97.3615 49.1295L97.0729 49.4328L97.3467 49.1147C97.4361 49.0095 97.5352 48.9129 97.6426 48.8261C97.7428 48.7276 97.8518 48.6385 97.9682 48.5597C98.0792 48.4857 98.1902 48.3896 98.3085 48.323C98.7858 48.0356 99.2948 47.8046 99.8253 47.6349C100.891 47.2888 101.999 47.0921 103.118 47.0503L102.992 47.3093L102.533 46.5694C102.367 46.3372 102.223 46.0894 102.104 45.8295L101.756 45.0526C101.646 44.7902 101.562 44.5176 101.505 44.2387C101.413 43.9681 101.353 43.6874 101.327 43.4026C101.327 43.1215 101.261 42.8329 101.253 42.5443V41.6861C101.253 41.3975 101.357 41.1237 101.401 40.8426C101.458 40.5604 101.537 40.2832 101.638 40.0139C101.718 39.7377 101.824 39.4701 101.956 39.2148C102.066 38.959 102.195 38.7117 102.341 38.4749C102.476 38.2205 102.624 37.9735 102.785 37.735C103.102 37.2617 103.456 36.8139 103.843 36.3958C104.227 35.9654 104.645 35.567 105.093 35.2045L105.234 35.9444L104.117 35.6263L103.014 35.2341C102.652 35.0713 102.274 34.9382 101.934 34.7532C101.581 34.5772 101.238 34.3821 100.906 34.1687C100.568 33.9418 100.244 33.6947 99.9363 33.4288C99.6262 33.1679 99.3368 32.8835 99.0706 32.5779C98.7948 32.2755 98.5471 31.9486 98.3307 31.6012L98.0274 31.0611L97.7832 30.4987C97.5053 29.7344 97.3553 28.9294 97.3393 28.1163C97.3101 27.3089 97.3822 26.501 97.5538 25.7116C97.7181 24.9354 97.9509 24.1752 98.2494 23.4401C98.3973 23.0701 98.5601 22.7076 98.7377 22.3524C98.9227 21.9973 99.1002 21.6643 99.3296 21.3018L100.07 22.234L98.7525 22.715L97.4133 23.1293L96.037 23.4697C95.5709 23.5437 95.1122 23.6473 94.6386 23.6991C94.1651 23.7645 93.6884 23.804 93.2106 23.8174C92.7178 23.8485 92.2236 23.8485 91.7308 23.8174C91.2482 23.7898 90.7683 23.7254 90.2954 23.6251C89.8163 23.5349 89.3441 23.4113 88.8822 23.2551C88.4207 23.0908 87.9708 22.8955 87.5356 22.6706C87.0982 22.4435 86.68 22.1812 86.2852 21.8863C85.4962 21.3052 84.7937 20.6152 84.1986 19.8368C83.6062 19.0686 83.1093 18.2313 82.7188 17.3433C82.5177 16.9076 82.3422 16.4604 82.1935 16.0041C82.0338 15.5346 81.9053 15.0551 81.8087 14.5687L83.1924 14.6797C83.0222 15.1384 82.8668 15.6045 82.6818 16.0559C82.4968 16.5072 82.3045 16.966 82.0455 17.3951C81.8297 17.8389 81.5824 18.2666 81.3056 18.6751C81.0155 19.0896 80.6992 19.485 80.3585 19.859C80.0071 20.2275 79.626 20.5665 79.2191 20.8726C79.0195 21.0356 78.8067 21.1817 78.5828 21.3092C78.3693 21.4516 78.1469 21.5801 77.9169 21.6939C77.4565 21.923 76.9791 22.1159 76.4889 22.271L75.749 22.456C75.4974 22.5078 75.2458 22.5448 75.0091 22.5818C74.5182 22.6433 74.0239 22.6729 73.5293 22.6706C73.0344 22.6716 72.54 22.6394 72.0494 22.5744C71.5537 22.5152 71.0728 22.419 70.5696 22.3154C70.0665 22.2119 69.6152 22.0787 69.149 21.9307C68.2221 21.6405 67.3171 21.2845 66.441 20.8652C65.9971 20.6655 65.5679 20.4435 65.1462 20.2067C64.7096 19.982 64.2848 19.7351 63.8735 19.4668L64.8428 18.5937C65.0574 19.0377 65.2867 19.4668 65.4791 19.9182C65.6715 20.3695 65.8713 20.8282 66.0045 21.3092L66.2264 22.0491L66.3892 22.789C66.4895 23.2779 66.5636 23.7719 66.6112 24.2688C66.6396 24.7616 66.6396 25.2557 66.6112 25.7486C66.5882 26.2455 66.5289 26.7401 66.4336 27.2284L66.2708 27.9683L66.0488 28.7082C65.8872 29.1816 65.6944 29.6438 65.4717 30.0918C65.2575 30.5435 65.0102 30.9787 64.7318 31.394C64.4655 31.8084 64.1621 32.2079 63.8587 32.5927C63.5554 32.9774 63.215 33.3326 62.8747 33.6951C62.5343 34.0577 62.1718 34.3758 61.8092 34.7014C61.0714 35.3361 60.2928 35.9219 59.4785 36.455C59.0716 36.7213 58.6572 36.9655 58.2355 37.1949C57.8138 37.4242 57.3846 37.6536 56.9185 37.8608L56.9703 36.9803C57.318 37.2097 57.7102 37.4316 58.0209 37.6758C58.3317 37.92 58.7016 38.1715 59.005 38.4675L59.4785 38.8966L59.9151 39.3554C60.1997 39.6707 60.4665 40.0017 60.7142 40.3468C60.959 40.696 61.179 41.0619 61.3727 41.4419C61.5692 41.8211 61.7373 42.2143 61.8758 42.6183L62.0608 43.2324L62.194 43.854C62.2729 44.2717 62.3223 44.6945 62.3419 45.1192C62.3938 46.7958 62.1017 48.4653 61.4837 50.0247C61.1934 50.7891 60.8472 51.531 60.4478 52.2444C60.0598 52.9725 59.6171 53.67 59.1234 54.331L58.9088 54.035L59.4045 53.9018C59.5722 53.8543 59.7427 53.8172 59.9151 53.7908C60.248 53.7168 60.5884 53.6946 60.9287 53.6503C61.6087 53.6059 62.2909 53.6059 62.9709 53.6503C64.3248 53.7257 65.6693 53.9213 66.9885 54.2348Z" fill="white"/>
</svg>
