<svg width="24" height="24" viewBox="0 0 24 24" fill="none" xmlns="http://www.w3.org/2000/svg">
<path fill-rule="evenodd" clip-rule="evenodd" d="M3 4.5C3 4.10217 3.13546 3.72065 3.37657 3.43934C3.6177 3.15804 3.94472 3 4.28571 3H19.7143C20.0553 3 20.3823 3.15804 20.6234 3.43934C20.8645 3.72065 21 4.10217 21 4.5C21 4.89783 20.8645 5.27935 20.6234 5.56066C20.3823 5.84196 20.0553 6 19.7143 6H4.28571C3.94472 6 3.6177 5.84196 3.37657 5.56066C3.13546 5.27935 3 4.89783 3 4.5ZM3 12C3 11.6022 3.13546 11.2206 3.37657 10.9393C3.6177 10.658 3.94472 10.5 4.28571 10.5H12C12.341 10.5 12.6681 10.658 12.9091 10.9393C13.1502 11.2206 13.2857 11.6022 13.2857 12C13.2857 12.3978 13.1502 12.7794 12.9091 13.0606C12.6681 13.3419 12.341 13.5 12 13.5H4.28571C3.94472 13.5 3.6177 13.3419 3.37657 13.0606C3.13546 12.7794 3 12.3978 3 12ZM3 19.5C3 19.1022 3.13546 18.7206 3.37657 18.4394C3.6177 18.1581 3.94472 18 4.28571 18H19.7143C20.0553 18 20.3823 18.1581 20.6234 18.4394C20.8645 18.7206 21 19.1022 21 19.5C21 19.8978 20.8645 20.2794 20.6234 20.5606C20.3823 20.8419 20.0553 21 19.7143 21H4.28571C3.94472 21 3.6177 20.8419 3.37657 20.5606C3.13546 20.2794 3 19.8978 3 19.5Z" fill="#1C6EBB"/>
</svg>
