<svg width="25" height="24" viewBox="0 0 25 24" fill="none" xmlns="http://www.w3.org/2000/svg">
<path d="M9.5 2.25H5C4.40326 2.25 3.83097 2.48705 3.40901 2.90901C2.98705 3.33097 2.75 3.90326 2.75 4.5V9C2.75 9.59674 2.98705 10.169 3.40901 10.591C3.83097 11.0129 4.40326 11.25 5 11.25H9.5C10.0967 11.25 10.669 11.0129 11.091 10.591C11.5129 10.169 11.75 9.59674 11.75 9V4.5C11.75 3.90326 11.5129 3.33097 11.091 2.90901C10.669 2.48705 10.0967 2.25 9.5 2.25ZM10.25 9C10.25 9.19891 10.171 9.38968 10.0303 9.53033C9.88968 9.67098 9.69891 9.75 9.5 9.75H5C4.80109 9.75 4.61032 9.67098 4.46967 9.53033C4.32902 9.38968 4.25 9.19891 4.25 9V4.5C4.25 4.30109 4.32902 4.11032 4.46967 3.96967C4.61032 3.82902 4.80109 3.75 5 3.75H9.5C9.69891 3.75 9.88968 3.82902 10.0303 3.96967C10.171 4.11032 10.25 4.30109 10.25 4.5V9Z" fill="#A3A3A5"/>
<path d="M20 2.25H15.5C14.9033 2.25 14.331 2.48705 13.909 2.90901C13.4871 3.33097 13.25 3.90326 13.25 4.5V9C13.25 9.59674 13.4871 10.169 13.909 10.591C14.331 11.0129 14.9033 11.25 15.5 11.25H20C20.5967 11.25 21.169 11.0129 21.591 10.591C22.0129 10.169 22.25 9.59674 22.25 9V4.5C22.25 3.90326 22.0129 3.33097 21.591 2.90901C21.169 2.48705 20.5967 2.25 20 2.25ZM20.75 9C20.75 9.19891 20.671 9.38968 20.5303 9.53033C20.3897 9.67098 20.1989 9.75 20 9.75H15.5C15.3011 9.75 15.1103 9.67098 14.9697 9.53033C14.829 9.38968 14.75 9.19891 14.75 9V4.5C14.75 4.30109 14.829 4.11032 14.9697 3.96967C15.1103 3.82902 15.3011 3.75 15.5 3.75H20C20.1989 3.75 20.3897 3.82902 20.5303 3.96967C20.671 4.11032 20.75 4.30109 20.75 4.5V9Z" fill="#A3A3A5"/>
<path d="M9.5 12.75H5C4.40326 12.75 3.83097 12.9871 3.40901 13.409C2.98705 13.831 2.75 14.4033 2.75 15V19.5C2.75 20.0967 2.98705 20.669 3.40901 21.091C3.83097 21.5129 4.40326 21.75 5 21.75H9.5C10.0967 21.75 10.669 21.5129 11.091 21.091C11.5129 20.669 11.75 20.0967 11.75 19.5V15C11.75 14.4033 11.5129 13.831 11.091 13.409C10.669 12.9871 10.0967 12.75 9.5 12.75ZM10.25 19.5C10.25 19.6989 10.171 19.8897 10.0303 20.0303C9.88968 20.171 9.69891 20.25 9.5 20.25H5C4.80109 20.25 4.61032 20.171 4.46967 20.0303C4.32902 19.8897 4.25 19.6989 4.25 19.5V15C4.25 14.8011 4.32902 14.6103 4.46967 14.4697C4.61032 14.329 4.80109 14.25 5 14.25H9.5C9.69891 14.25 9.88968 14.329 10.0303 14.4697C10.171 14.6103 10.25 14.8011 10.25 15V19.5Z" fill="#A3A3A5"/>
<path d="M21.5 16.5H18.5V13.5C18.5 13.3011 18.421 13.1103 18.2803 12.9697C18.1397 12.829 17.9489 12.75 17.75 12.75C17.5511 12.75 17.3603 12.829 17.2197 12.9697C17.079 13.1103 17 13.3011 17 13.5V16.5H14C13.8011 16.5 13.6103 16.579 13.4697 16.7197C13.329 16.8603 13.25 17.0511 13.25 17.25C13.25 17.4489 13.329 17.6397 13.4697 17.7803C13.6103 17.921 13.8011 18 14 18H17V21C17 21.1989 17.079 21.3897 17.2197 21.5303C17.3603 21.671 17.5511 21.75 17.75 21.75C17.9489 21.75 18.1397 21.671 18.2803 21.5303C18.421 21.3897 18.5 21.1989 18.5 21V18H21.5C21.6989 18 21.8897 17.921 22.0303 17.7803C22.171 17.6397 22.25 17.4489 22.25 17.25C22.25 17.0511 22.171 16.8603 22.0303 16.7197C21.8897 16.579 21.6989 16.5 21.5 16.5Z" fill="#A3A3A5"/>
</svg>
