<svg width="24" height="24" viewBox="0 0 24 24" fill="none" xmlns="http://www.w3.org/2000/svg">
<path d="M21.3721 9.40637C20.6312 8.78472 19.5227 8.88198 18.9022 9.62145L17.2344 11.595V5.87211C17.2344 5.39246 17.0349 4.92795 16.6872 4.59767L14.4614 2.48337C14.1333 2.17168 13.7034 2 13.2508 2H3.75781C2.78857 2 2 2.78857 2 3.75781V20.2422C2 21.2114 2.78857 22 3.75781 22H15.4766C16.4458 22 17.2344 21.2114 17.2344 20.2422V17.0405C17.3064 16.9552 21.5753 11.8987 21.5887 11.8828C22.2132 11.1386 22.1164 10.0309 21.3721 9.40637ZM13.7188 3.39417C16.0631 5.62109 15.8966 5.45832 15.9405 5.51566H13.7188V3.39417ZM16.0625 20.2422C16.0625 20.5653 15.7996 20.8281 15.4765 20.8281H3.75781C3.43472 20.8281 3.17186 20.5653 3.17186 20.2422V3.75781C3.17186 3.43472 3.43472 3.17186 3.75781 3.17186H12.5469V6.10153C12.5469 6.42513 12.8092 6.68748 13.1328 6.68748H16.0625V12.9817C15.8108 13.2795 13.7899 15.671 13.5714 15.9294C13.3969 16.1374 13.2713 16.3869 13.2083 16.6509L12.6637 18.9305C12.6122 19.1464 12.687 19.3729 12.857 19.5155C13.0272 19.6583 13.2633 19.6925 13.4667 19.6043L15.6171 18.6722C15.7786 18.6022 15.9292 18.5071 16.0625 18.3928V20.2422ZM14.6688 16.4465L15.5664 17.1996L15.3668 17.436C15.3087 17.5053 15.2341 17.561 15.1511 17.597L14.0759 18.063L14.3482 16.9233C14.3692 16.8352 14.411 16.7521 14.4679 16.6843L14.6688 16.4465ZM16.3223 16.3042L15.4252 15.5514C15.5162 15.4437 18.4603 11.9598 18.6639 11.7189L19.5592 12.4701L16.3223 16.3042ZM20.6922 11.1282L20.3152 11.5747L19.4204 10.8238L19.7986 10.3763C20.0052 10.1301 20.3732 10.0979 20.6188 10.304C20.8693 10.5142 20.8969 10.8842 20.6922 11.1282Z" fill="#1C6EBB"/>
<path d="M10.789 5.51562H4.92964C4.60604 5.51562 4.34369 5.77797 4.34369 6.10158C4.34369 6.42518 4.60604 6.68753 4.92964 6.68753H10.789C11.1126 6.68753 11.375 6.42518 11.375 6.10158C11.375 5.77797 11.1126 5.51562 10.789 5.51562Z" fill="#1C6EBB"/>
<path d="M14.3046 9.07025H4.92964C4.60604 9.07025 4.34369 9.3326 4.34369 9.6562C4.34369 9.9798 4.60604 10.2422 4.92964 10.2422H14.3046C14.6282 10.2422 14.8906 9.9798 14.8906 9.6562C14.8906 9.3326 14.6282 9.07025 14.3046 9.07025Z" fill="#1C6EBB"/>
<path d="M14.3046 12.5859H4.92964C4.60604 12.5859 4.34369 12.8483 4.34369 13.1719C4.34369 13.4955 4.60604 13.7578 4.92964 13.7578H14.3046C14.6282 13.7578 14.8906 13.4955 14.8906 13.1719C14.8906 12.8482 14.6282 12.5859 14.3046 12.5859Z" fill="#1C6EBB"/>
<path d="M10.789 16.1016H4.92964C4.60604 16.1016 4.34369 16.3639 4.34369 16.6875C4.34369 17.0111 4.60604 17.2735 4.92964 17.2735H10.789C11.1126 17.2735 11.375 17.0111 11.375 16.6875C11.375 16.3639 11.1126 16.1016 10.789 16.1016Z" fill="#1C6EBB"/>
</svg>
