<svg width="24" height="24" viewBox="0 0 24 24" fill="none" xmlns="http://www.w3.org/2000/svg">
<g clip-path="url(#clip0_143_950)">
<path d="M19.7423 15.1781V10.6181C19.7423 7.23097 17.5745 4.27744 14.59 3.17422C14.6248 3.00001 14.6442 2.82198 14.6442 2.64388C14.6442 1.18454 13.4597 0 12.0003 0C10.541 0 9.35646 1.18454 9.35646 2.64388C9.35646 2.8181 9.37579 2.99225 9.40675 3.15871C8.38098 3.52259 7.43258 4.09935 6.62356 4.88128C5.09841 6.35226 4.25843 8.33031 4.25843 10.4516V15.1781C4.25843 15.3445 4.12293 15.4839 3.95259 15.4839C2.52422 15.4839 1.30483 16.56 1.17322 17.9304C1.09965 18.693 1.35131 19.4516 1.86614 20.0168C2.37708 20.5781 3.10873 20.9033 3.87127 20.9033H8.53968C8.73323 22.6414 10.212 24.0001 12.0003 24.0001C13.7887 24.0001 15.2675 22.6414 15.461 20.9033H20.1294C20.892 20.9033 21.6236 20.5781 22.1346 20.0168C22.6455 19.4516 22.8972 18.693 22.8275 17.9304C22.6959 16.56 21.4727 15.4839 20.0481 15.4839C19.8778 15.4838 19.7423 15.3483 19.7423 15.1781ZM12.0003 1.54836C12.6042 1.54836 13.0958 2.03998 13.0958 2.64382C13.0958 2.69411 13.088 2.74059 13.0803 2.79088C12.8171 2.75216 12.5499 2.72508 12.2828 2.71732C11.8222 2.7018 11.3693 2.73283 10.9203 2.79476C10.9125 2.74447 10.9048 2.69799 10.9048 2.6477C10.9049 2.03998 11.3965 1.54836 12.0003 1.54836ZM12.0003 22.4516C11.0675 22.4516 10.2855 21.7857 10.1036 20.9032H13.8971C13.7152 21.7858 12.9333 22.4516 12.0003 22.4516ZM21.2868 18.0774C21.3178 18.4103 21.2132 18.7316 20.9926 18.9755C20.7642 19.2194 20.4623 19.3548 20.1294 19.3548H3.87134C3.53842 19.3548 3.23653 19.2193 3.01196 18.9755C2.78745 18.7316 2.68292 18.4103 2.71388 18.0774C2.76805 17.4929 3.31391 17.0323 3.95259 17.0323C4.97455 17.0323 5.80678 16.2 5.80678 15.1781V10.4516C5.80678 8.75612 6.48031 7.17292 7.69969 5.99614C8.86484 4.86971 10.3823 4.25805 12.0003 4.25805C12.0778 4.25805 12.1513 4.25805 12.2287 4.26193C15.5152 4.37803 18.1939 7.23097 18.1939 10.6181V15.1781C18.1939 16.2 19.0261 17.0323 20.0481 17.0323C20.6868 17.0323 21.2288 17.4929 21.2868 18.0774Z" fill="#1C6EBB"/>
</g>
<defs>
<clipPath id="clip0_143_950">
<rect width="24" height="24" fill="white"/>
</clipPath>
</defs>
</svg>
