<svg width="24" height="24" viewBox="0 0 24 24" fill="none" xmlns="http://www.w3.org/2000/svg">
<g clip-path="url(#clip0_143_947)">
<path d="M10.5071 20.4684C10.5521 20.7122 10.577 20.9527 10.577 21.1852C10.577 22.3514 9.63148 23.2969 8.46523 23.2969C7.29898 23.2969 6.35352 22.3514 6.35352 21.1852C6.35352 20.9527 6.37836 20.7122 6.42336 20.4684" stroke="#1C6EBB" stroke-width="1.40625" stroke-miterlimit="10" stroke-linecap="round" stroke-linejoin="round"/>
<path d="M8.46495 3.56662C9.25569 3.56662 9.8967 2.92561 9.8967 2.13487C9.8967 1.34414 9.25569 0.703125 8.46495 0.703125C7.67422 0.703125 7.0332 1.34414 7.0332 2.13487C7.0332 2.92561 7.67422 3.56662 8.46495 3.56662Z" stroke="#1C6EBB" stroke-width="1.40625" stroke-miterlimit="10" stroke-linecap="round" stroke-linejoin="round"/>
<path d="M11.8099 20.4684H0.730957V17.625L2.13252 15.5625L2.13721 10.8591C2.13721 9.11157 2.84549 7.52954 3.99064 6.38438C5.1358 5.23923 6.71783 4.53094 8.46533 4.53094C11.9603 4.53094 14.7935 7.36407 14.7935 10.8591V12.7641" stroke="#1C6EBB" stroke-width="1.40625" stroke-miterlimit="10" stroke-linecap="round" stroke-linejoin="round"/>
<path d="M0.703125 6.0365C1.56164 4.65936 2.77678 3.52583 4.21786 2.76636" stroke="#1C6EBB" stroke-width="1.40625" stroke-miterlimit="10" stroke-linecap="round" stroke-linejoin="round"/>
<path d="M16.2271 6.03651C15.3686 4.65937 14.1535 3.52589 12.7124 2.76642" stroke="#1C6EBB" stroke-width="1.40625" stroke-miterlimit="10" stroke-linecap="round" stroke-linejoin="round"/>
<path d="M15.7168 23.2969H18.4967L18.7397 22.1367C18.9328 21.2143 19.8848 20.6646 20.7802 20.9583L21.9071 21.3279L23.297 18.9205L22.4136 18.1296C21.7116 17.5011 21.7116 16.402 22.4136 15.7734L23.297 14.9825L21.9071 12.5751L20.7805 12.9446C19.8851 13.2383 18.9333 12.6887 18.7399 11.7666L18.4967 10.6061H15.7168L15.4735 11.7668C15.2801 12.6891 14.3281 13.2387 13.4327 12.9448L12.3064 12.5751L10.9165 14.9825L11.8 15.7732C12.5022 16.4018 12.5022 17.5012 11.8 18.1298L10.9165 18.9205L12.3064 21.3279L13.4329 20.9582C14.3284 20.6642 15.2806 21.214 15.4738 22.1365L15.7168 23.2969Z" stroke="#1C6EBB" stroke-width="1.40625" stroke-miterlimit="10" stroke-linecap="round" stroke-linejoin="round"/>
<path d="M17.1067 18.7618C18.1064 18.7618 18.9169 17.9513 18.9169 16.9515C18.9169 15.9517 18.1064 15.1412 17.1067 15.1412C16.1069 15.1412 15.2964 15.9517 15.2964 16.9515C15.2964 17.9513 16.1069 18.7618 17.1067 18.7618Z" stroke="#1C6EBB" stroke-width="1.40625" stroke-miterlimit="10" stroke-linecap="round" stroke-linejoin="round"/>
</g>
<defs>
<clipPath id="clip0_143_947">
<rect width="24" height="24" fill="white"/>
</clipPath>
</defs>
</svg>
