<svg width="24" height="24" viewBox="0 0 24 24" fill="none" xmlns="http://www.w3.org/2000/svg">
<path d="M12.5 21C10.6438 21.0069 8.82645 20.4692 7.27277 19.4537C5.71908 18.4382 4.49732 16.9893 3.7587 15.2864C3.02009 13.5836 2.79706 11.7015 3.11722 9.87319C3.43738 8.04487 4.28667 6.35057 5.55997 5.00003C6.12204 4.39485 6.76474 3.86992 7.46997 3.44003C7.58159 3.37043 7.70583 3.32349 7.8356 3.30191C7.96536 3.28032 8.0981 3.28451 8.22625 3.31422C8.35439 3.34394 8.47543 3.3986 8.58245 3.47509C8.68947 3.55158 8.78037 3.64841 8.84997 3.76003C8.91957 3.87165 8.96651 3.99589 8.98809 4.12565C9.00968 4.25542 9.00549 4.38816 8.97578 4.5163C8.94606 4.64445 8.8914 4.76548 8.81491 4.8725C8.73842 4.97952 8.64159 5.07043 8.52997 5.14003C7.96473 5.47612 7.44966 5.8902 6.99997 6.37003C6.17049 7.26476 5.57182 8.34834 5.25587 9.52679C4.93992 10.7052 4.91624 11.943 5.18688 13.1327C5.45753 14.3223 6.01431 15.428 6.80896 16.3538C7.60361 17.2796 8.61212 17.9976 9.74702 18.4454C10.8819 18.8933 12.1089 19.0575 13.3217 18.9238C14.5344 18.7902 15.6962 18.3627 16.7063 17.6784C17.7165 16.9941 18.5444 16.0738 19.1184 14.9971C19.6923 13.9205 19.9949 12.7201 20 11.5C20 11.2348 20.1053 10.9805 20.2929 10.7929C20.4804 10.6054 20.7348 10.5 21 10.5C21.2652 10.5 21.5195 10.6054 21.7071 10.7929C21.8946 10.9805 22 11.2348 22 11.5C21.9973 14.0188 20.9956 16.4336 19.2146 18.2146C17.4335 19.9956 15.0187 20.9974 12.5 21Z" fill="#1C6EBB"/>
<path d="M13.5 4.06H13.38C13.0869 4.04479 12.7931 4.04479 12.5 4.06C12.2348 4.06 11.9804 3.95464 11.7929 3.76711C11.6054 3.57957 11.5 3.32522 11.5 3.06C11.5 2.79478 11.6054 2.54043 11.7929 2.35289C11.9804 2.16536 12.2348 2.06 12.5 2.06C12.8741 2.05978 13.248 2.07981 13.62 2.12C13.7513 2.12788 13.8798 2.16155 13.9981 2.21908C14.1164 2.27662 14.2222 2.35689 14.3095 2.45532C14.3968 2.55375 14.4639 2.66841 14.5068 2.79275C14.5498 2.91709 14.5679 3.04868 14.56 3.18C14.5521 3.31132 14.5185 3.43981 14.4609 3.55812C14.4034 3.67643 14.3231 3.78225 14.2247 3.86953C14.1262 3.95682 14.0116 4.02386 13.8873 4.06684C13.7629 4.10982 13.6313 4.12788 13.5 4.12V4.06Z" fill="#1C6EBB"/>
<path d="M18.24 6.22999C17.9927 6.24013 17.7504 6.15818 17.56 5.99999C17.0879 5.56702 16.5639 5.19418 16 4.88999C15.7667 4.75738 15.5955 4.53749 15.5242 4.27869C15.453 4.01989 15.4874 3.74338 15.62 3.50999C15.7527 3.2766 15.9725 3.10545 16.2313 3.03419C16.4901 2.96292 16.7667 2.99738 17 3.12999C17.6958 3.50304 18.341 3.96344 18.92 4.49999C19.1173 4.67656 19.2365 4.92414 19.2515 5.18846C19.2665 5.45277 19.1761 5.71225 19 5.90999C18.9034 6.0143 18.7856 6.0968 18.6546 6.15198C18.5235 6.20716 18.3822 6.23376 18.24 6.22999Z" fill="#1C6EBB"/>
<path d="M20.52 9.69002C20.3109 9.68777 20.1077 9.61999 19.9391 9.49622C19.7704 9.37244 19.6449 9.1989 19.58 9.00003C19.4831 8.72342 19.3696 8.45292 19.24 8.19002C19.1828 7.96707 19.2042 7.73119 19.3007 7.52219C19.3971 7.31319 19.5628 7.14387 19.7696 7.04281C19.9764 6.94175 20.2118 6.91514 20.4359 6.96746C20.6601 7.01979 20.8593 7.14785 21 7.33002C21.1604 7.65577 21.304 7.98954 21.43 8.33002C21.5165 8.57937 21.5009 8.85279 21.3867 9.09069C21.2724 9.32859 21.0687 9.51167 20.82 9.60003C20.7254 9.6456 20.6242 9.67597 20.52 9.69002Z" fill="#1C6EBB"/>
<path d="M8 10C7.73478 10 7.48043 9.89464 7.29289 9.7071C7.10536 9.51957 7 9.26521 7 9V5.28999H3C2.73478 5.28999 2.48043 5.18464 2.29289 4.9971C2.10536 4.80957 2 4.55521 2 4.28999C2 4.02478 2.10536 3.77042 2.29289 3.58289C2.48043 3.39535 2.73478 3.28999 3 3.28999H8C8.13161 3.28923 8.26207 3.31446 8.38391 3.36422C8.50574 3.41399 8.61656 3.48731 8.71 3.57999C8.80268 3.67343 8.87601 3.78425 8.92577 3.90609C8.97554 4.02793 9.00076 4.15839 9 4.28999V9C9 9.26521 8.89464 9.51957 8.70711 9.7071C8.51957 9.89464 8.26522 10 8 10Z" fill="#1C6EBB"/>
</svg>
