<svg width="21" height="24" viewBox="0 0 21 24" fill="none" xmlns="http://www.w3.org/2000/svg">
    <path
        d="M17.9062 1.31508H15.266C14.5693 0.510422 13.5426 0 12.3984 0H8.60156C7.45744 0 6.43069 0.510422 5.73398 1.31508H3.09375C1.93064 1.31508 0.984375 2.26322 0.984375 3.42858V21.8865C0.984375 23.0519 1.93064 24 3.09375 24H17.9062C19.0694 24 20.0156 23.0519 20.0156 21.8865V3.42858C20.0156 2.26317 19.0694 1.31508 17.9062 1.31508ZM8.60156 1.40902H12.3984C13.4849 1.40902 14.3871 2.13628 14.6836 3.0998H6.31641C6.61237 2.13797 7.51345 1.40902 8.60156 1.40902ZM18.6094 21.8865C18.6094 22.275 18.294 22.591 17.9062 22.591H3.09375C2.70605 22.591 2.39062 22.275 2.39062 21.8865V3.42858C2.39062 3.04012 2.70605 2.72409 3.09375 2.72409H4.96153C4.86005 3.06675 4.80469 3.42909 4.80469 3.80433C4.80469 4.19339 5.1195 4.50881 5.50781 4.50881H15.4922C15.8805 4.50881 16.1953 4.19339 16.1953 3.80433C16.1953 3.42909 16.14 3.06675 16.0385 2.72409H17.9062C18.294 2.72409 18.6094 3.04012 18.6094 3.42858V21.8865Z"
        fill="#A3A3A5" />
    <path
        d="M7.03406 13.9989L5.99999 15.035L5.74715 14.7817C5.4726 14.5065 5.02738 14.5065 4.75279 14.7817C4.4782 15.0568 4.4782 15.5028 4.75279 15.7779L5.50279 16.5294C5.77734 16.8045 6.22256 16.8046 6.49715 16.5294L8.02837 14.9952C8.30296 14.7201 8.30296 14.274 8.02837 13.9989C7.75382 13.7238 7.3086 13.7238 7.03406 13.9989Z"
        fill="#A3A3A5" />
    <path
        d="M15.7031 14.5597H10.0312C9.64294 14.5597 9.32812 14.8751 9.32812 15.2642C9.32812 15.6532 9.64294 15.9687 10.0312 15.9687H15.7031C16.0914 15.9687 16.4062 15.6532 16.4062 15.2642C16.4062 14.8751 16.0914 14.5597 15.7031 14.5597Z"
        fill="#A3A3A5" />
    <path
        d="M7.03406 18.0381L5.99999 19.0741L5.74715 18.8208C5.4726 18.5456 5.02738 18.5456 4.75279 18.8208C4.4782 19.0959 4.4782 19.542 4.75279 19.8171L5.50279 20.5685C5.77734 20.8436 6.22256 20.8437 6.49715 20.5685L8.02837 19.0343C8.30296 18.7592 8.30296 18.3131 8.02837 18.038C7.75382 17.7629 7.3086 17.7629 7.03406 18.0381Z"
        fill="#A3A3A5" />
    <path
        d="M15.7031 18.5988H10.0312C9.64294 18.5988 9.32812 18.9142 9.32812 19.3033C9.32812 19.6924 9.64294 20.0078 10.0312 20.0078H15.7031C16.0914 20.0078 16.4062 19.6924 16.4062 19.3033C16.4062 18.9142 16.0914 18.5988 15.7031 18.5988Z"
        fill="#A3A3A5" />
    <path
        d="M11.8409 11.3005L14.0156 9.12154V9.2055C14.0156 9.59456 14.3304 9.90998 14.7187 9.90998C15.1071 9.90998 15.4219 9.59456 15.4219 9.2055C15.4219 7.2127 15.4251 7.39823 15.4138 7.31953C15.3641 6.97486 15.0691 6.71615 14.7185 6.71625H12.9375C12.5492 6.71625 12.2344 7.03167 12.2344 7.42073C12.2344 7.80979 12.5492 8.12522 12.9375 8.12522H13.0213L11.3437 9.80601L9.2159 7.67404C8.94135 7.39889 8.49613 7.39889 8.22154 7.67404L5.69029 10.2103C5.4157 10.4854 5.4157 10.9314 5.69029 11.2065C5.96484 11.4817 6.41006 11.4817 6.68465 11.2065L8.71874 9.16851L10.8466 11.3005C11.1211 11.5756 11.5664 11.5756 11.8409 11.3005Z"
        fill="#A3A3A5" />
</svg>
