<svg width="24" height="24" viewBox="0 0 24 24" fill="none" xmlns="http://www.w3.org/2000/svg">
<path d="M3.9375 2.25H16.5C17.3284 2.25 18.1875 2.73412 18.1875 3.5625V6.9375H16.6875V3.75H4.125V20.8125H16.6875V17.4375H18.1875V20.625C18.1875 21.4534 17.3284 22.3125 16.5 22.3125H3.9375C3.10913 22.3125 2.625 21.4534 2.625 20.625V3.5625C2.625 2.73412 3.10913 2.25 3.9375 2.25Z" fill="#1C6EBB"/>
<path d="M20.3432 12.3572C20.3559 12.334 20.3698 12.3117 20.3801 12.2871C20.3904 12.2622 20.3964 12.2361 20.4039 12.2102C20.4101 12.189 20.4184 12.169 20.4227 12.147C20.4322 12.0985 20.4375 12.0493 20.4375 12C20.4375 11.9998 20.4375 11.9997 20.4375 11.9997C20.4375 11.9518 20.433 11.904 20.4238 11.8568C20.4236 11.8555 20.4231 11.8543 20.4227 11.8532C20.4182 11.8311 20.4099 11.8105 20.4037 11.7891C20.3962 11.7638 20.3904 11.7379 20.3803 11.7133C20.3698 11.6882 20.3556 11.6653 20.3426 11.6415C20.3321 11.6224 20.3237 11.6025 20.3115 11.5842C20.2839 11.5431 20.2528 11.5047 20.2181 11.4698L17.7806 9.03228C17.4879 8.7394 17.0126 8.7394 16.7201 9.03228C16.4272 9.32515 16.4272 9.80009 16.7201 10.093L17.877 11.25H9.375C8.96081 11.25 8.625 11.5858 8.625 12C8.625 12.4142 8.96081 12.75 9.375 12.75H17.877L16.7198 13.9073C16.4269 14.2002 16.4269 14.6751 16.7198 14.968C17.0124 15.2608 17.4877 15.2608 17.7802 14.968L20.2178 12.5305C20.2189 12.5293 20.2196 12.528 20.2207 12.5269C20.2543 12.493 20.2847 12.456 20.3111 12.4161C20.3239 12.3972 20.3325 12.3769 20.3432 12.3572Z" fill="#1C6EBB"/>
</svg>
