<svg width="350" height="238" viewBox="0 0 350 238" fill="none" xmlns="http://www.w3.org/2000/svg">
<path d="M175 238C271.65 238 350 232.878 350 226.56C350 220.241 271.65 215.119 175 215.119C78.3502 215.119 0 220.241 0 226.56C0 232.878 78.3502 238 175 238Z" fill="#CBE4FE" fill-opacity="0.5"/>
<path d="M209.443 206.34C209.443 206.34 28.2828 239.862 28.3899 100.61C28.4971 -23.7429 172.215 9.30087 182.928 55.062C194.552 104.707 294.988 32.6603 313.629 94.4911C335.484 166.911 268.044 195.006 209.443 206.34Z" fill="#CBE4FE"/>
<mask id="mask0_32_307" style="mask-type:luminance" maskUnits="userSpaceOnUse" x="28" y="13" width="290" height="197">
<path d="M209.443 206.34C209.443 206.34 28.2828 239.862 28.3899 100.61C28.4971 -23.7429 172.215 9.30087 182.928 55.062C194.552 104.707 294.988 32.6603 313.629 94.4911C335.484 166.911 268.044 195.006 209.443 206.34Z" fill="white"/>
</mask>
<g mask="url(#mask0_32_307)">
<g opacity="0.5">
<path d="M193.213 147.116H163.805V212.778H193.213V147.116Z" fill="#3699F7"/>
<path d="M188.392 125.406H168.679V176.755H188.392V125.406Z" fill="#3699F7"/>
<path d="M179.125 114.019H177.893V136.74H179.125V114.019Z" fill="#3699F7"/>
</g>
<path opacity="0.5" d="M139.111 169.465H93.6335V235.127H139.111V169.465Z" fill="#3699F7"/>
<path opacity="0.5" d="M118.22 156.269H98.5078V199.103H118.22V156.269Z" fill="#3699F7"/>
<path d="M77.778 83.4232H38.2463V87.3608H77.778V83.4232Z" fill="#3699F7"/>
<path d="M77.778 101.195H38.2463V105.133H77.778V101.195Z" fill="#3699F7"/>
<path d="M77.778 118.968H38.2463V122.905H77.778V118.968Z" fill="#3699F7"/>
<path d="M77.778 136.74H38.2463V140.678H77.778V136.74Z" fill="#3699F7"/>
<path d="M77.778 154.513H38.2463V158.45H77.778V154.513Z" fill="#3699F7"/>
<path d="M77.778 172.285H38.2463V176.222H77.778V172.285Z" fill="#3699F7"/>
<path d="M40.6567 85.392V226.56H75.6353V85.392H40.6567ZM49.2273 186.865H44.1921V178.936H49.2273V186.865ZM49.2273 168.933H44.1921V161.057H49.2273V168.933ZM49.2273 151.001H44.1921V143.125H49.2273V151.001ZM49.2273 133.069H44.1921V125.194H49.2273V133.069ZM49.2273 115.19H44.1921V107.315H49.2273V115.19ZM49.2273 97.2579H44.1921V89.3828H49.2273V97.2579ZM60.5297 186.865H55.4945V178.936H60.5297V186.865ZM60.5297 168.933H55.4945V161.057H60.5297V168.933ZM60.5297 151.001H55.4945V143.125H60.5297V151.001ZM60.5297 133.069H55.4945V125.194H60.5297V133.069ZM60.5297 115.19H55.4945V107.315H60.5297V115.19ZM60.5297 97.2579H55.4945V89.3828H60.5297V97.2579ZM71.8321 186.865H66.7969V178.936H71.8321V186.865ZM71.8321 168.933H66.7969V161.057H71.8321V168.933ZM71.8321 151.001H66.7969V143.125H71.8321V151.001ZM71.8321 133.069H66.7969V125.194H71.8321V133.069ZM71.8321 115.19H66.7969V107.315H71.8321V115.19ZM71.8321 97.2579H66.7969V89.3828H71.8321V97.2579Z" fill="#3699F7"/>
</g>
<path d="M249.671 79.9646H217.746V197.933H249.671V79.9646Z" stroke="#3699F7" stroke-width="0.998979" stroke-miterlimit="10"/>
<path d="M243.565 114.552L226.102 131.579H242.065L225.941 147.223" stroke="#3699F7" stroke-width="1.49847" stroke-miterlimit="10"/>
<path d="M252.189 78.4747H215.175V82.8912H252.189V78.4747Z" fill="#3699F7"/>
<path d="M252.189 95.1296H215.175V99.5461H252.189V95.1296Z" fill="#3699F7"/>
<path d="M252.189 111.731H215.175V116.148H252.189V111.731Z" fill="#3699F7"/>
<path d="M252.189 128.333H215.175V132.75H252.189V128.333Z" fill="#3699F7"/>
<path d="M252.189 144.988H215.175V149.405H252.189V144.988Z" fill="#3699F7"/>
<path d="M252.189 161.59H215.175V166.006H252.189V161.59Z" fill="#3699F7"/>
<path d="M252.189 178.191H215.175V182.608H252.189V178.191Z" fill="#3699F7"/>
<path d="M265.634 184.63H270.508V31.2236L268.794 1H267.027L265.634 31.2236V184.63Z" stroke="#3699F7" stroke-width="0.689957" stroke-miterlimit="10"/>
<path d="M273.99 126.683H262.098V190.802H273.99V126.683Z" fill="#3699F7"/>
<path d="M279.936 145.094H256.153V198.944H279.936V145.094Z" fill="#3699F7"/>
<path d="M316.682 29.9999H157.002V35.4806H316.682V29.9999Z" stroke="#3699F7" stroke-width="0.689957" stroke-miterlimit="10"/>
<path d="M316.682 29.9999H303.719V35.4806H316.682V29.9999Z" fill="#3699F7"/>
<path d="M169.804 28.1375H151.431V37.1833H169.804V28.1375Z" fill="#3699F7"/>
<path d="M266.759 42.2913H251.707V62.4049H266.759V42.2913Z" fill="#3699F7"/>
<path d="M268.526 39.418C272.195 39.418 275.168 36.5115 275.168 32.9263C275.168 29.341 272.195 26.4346 268.526 26.4346C264.858 26.4346 261.884 29.341 261.884 32.9263C261.884 36.5115 264.858 39.418 268.526 39.418Z" fill="#3699F7"/>
<path d="M300.398 35.64H280.793V45.1647H300.398V35.64Z" fill="#3699F7"/>
<path d="M298.309 30.1596L268.473 1.10657L182.231 30.1596" stroke="#3699F7" stroke-width="0.689957" stroke-miterlimit="10"/>
<path d="M208.908 93.2673H165.466V102.792H208.908V93.2673Z" fill="#3699F7"/>
<path d="M187.16 95.7681V35.7466" stroke="#3699F7" stroke-width="0.689957" stroke-miterlimit="10"/>
<path d="M194.766 35.7466H180.303V37.5557H194.766V35.7466Z" fill="#3699F7"/>
<path d="M60.4224 62.4051H50.6199V67.194H60.4224V62.4051Z" fill="#3699F7"/>
<path d="M75.046 65.7041H67.4932V75.7609H75.046V65.7041Z" fill="#3699F7"/>
<path d="M63.2612 61.0216C63.2612 62.8308 64.7611 64.2674 66.5823 64.2674C68.4036 64.2674 69.9034 62.8308 69.9034 61.0216C69.9034 59.2124 68.4036 57.7758 66.5823 57.7758C64.7611 57.7758 63.2612 59.2124 63.2612 61.0216Z" fill="#3699F7"/>
<path d="M122.452 59.585H42.4778V62.2987H122.452V59.585Z" stroke="#3699F7" stroke-width="0.49949" stroke-miterlimit="10"/>
<path d="M48.9593 59.585H42.4778V62.2987H48.9593V59.585Z" fill="#3699F7"/>
<path d="M125.291 58.6272H116.078V63.1501H125.291V58.6272Z" fill="#3699F7"/>
<path d="M68.0822 87.3609H65.6182V60.1703L66.4752 45.0585H67.3858L68.0822 60.1703V87.3609Z" stroke="#3699F7" stroke-width="0.49949" stroke-miterlimit="10"/>
<path d="M67.5464 50.486L67.2785 45.0585H66.4215L66.1001 50.4327C66.5822 50.4327 67.0643 50.4327 67.5464 50.486Z" fill="#3699F7"/>
<path d="M51.6912 59.6385L66.6361 45.112L109.864 59.6385" stroke="#3699F7" stroke-width="0.49949" stroke-miterlimit="10"/>
<path d="M118.22 91.2453H96.4722V96.0343H118.22V91.2453Z" fill="#3699F7"/>
<path d="M107.346 92.5224V62.4584" stroke="#3699F7" stroke-width="0.345698" stroke-miterlimit="10"/>
<path d="M110.774 62.4584H103.543V63.363H110.774V62.4584Z" fill="#3699F7"/>
<path d="M150.735 90.1809C150.735 90.1809 163.269 160.738 163.858 217.514C163.858 217.514 155.502 220.653 152.717 218.631C149.878 205.275 148.431 188.408 144.2 169.092C140.236 150.894 135.683 129.344 135.683 129.344L134.022 129.663C134.022 129.663 125.559 212.778 124.273 219.589C115.488 222.037 112.274 218.631 112.274 218.631C112.274 218.631 111.31 119.926 113.078 101.94C115.435 78.3682 150.735 90.1809 150.735 90.1809Z" fill="#0D438D"/>
<path d="M112.06 178.617C112.113 200.646 112.274 218.631 112.274 218.631C112.274 218.631 115.488 222.037 124.273 219.589C124.862 216.556 126.898 198.092 128.933 178.67C123.309 178.883 117.684 178.51 112.06 178.617Z" fill="#0D3666"/>
<path d="M155.342 123.225C158.716 148.5 163.484 181.065 163.859 217.514C163.859 217.514 155.502 220.653 152.717 218.631C149.878 205.275 148.432 188.408 144.2 169.092C140.504 152.065 136.272 132.164 135.737 129.61C142.7 128.386 149.342 126.417 155.342 123.225Z" fill="#0D3666"/>
<path d="M109.328 182.501L129.898 183.406L125.452 222.888C125.452 222.888 86.1342 230.444 110.721 220.653L109.328 182.501Z" fill="#3270FF"/>
<path d="M165.626 181.597L146.396 183.353L153.091 223.314C153.091 223.314 194.391 226.613 168.84 219.749L165.626 181.597Z" fill="#3270FF"/>
<path d="M103.757 58.2546C103.757 58.2546 97.2759 60.4894 95.5082 64.6931C93.7406 68.8967 102.418 105.559 110.721 105.772C119.024 105.984 103.757 58.2546 103.757 58.2546Z" fill="#98D5FF"/>
<path d="M115.435 41.5997L118.113 53.306L129.469 51.7097L119.934 37.7685L115.435 41.5997Z" fill="#FFBE83"/>
<path d="M197.23 37.2364C197.23 37.2364 216.032 32.0217 216.299 33.4584C216.567 34.8419 206.711 37.662 206.711 37.662L209.122 35.8529C209.122 35.8529 211.532 37.2364 210.086 38.7795C210.086 38.7795 211.8 40.0565 209.122 41.2804C209.122 41.2804 211.104 42.6638 207.997 43.5152C204.89 44.3666 197.391 46.6014 197.391 46.6014L197.23 37.2364Z" fill="#FFBE83"/>
<path d="M117.256 52.7739C117.256 52.7739 135.308 89.7021 135.629 88.6911C135.95 87.68 151.699 67.7261 151.699 67.7261L203.176 45.7501L201.194 35.6401L149.021 48.4106H135.95L116.185 52.7207" fill="#98D5FF"/>
<path d="M156.413 46.6015L149.289 48.3574C149.342 50.3795 149.342 52.4015 149.396 54.4235C149.449 57.9354 149.717 61.3408 149.985 64.8527C150.092 66.3958 150.253 67.939 150.36 69.5353C151.217 68.4178 151.753 67.7793 151.753 67.7793L160.055 64.2142C158.555 58.361 157.323 52.5079 156.413 46.6015Z" fill="#7DB3D1"/>
<path d="M143.557 54.7427C143.396 54.5831 143.396 54.2106 143.664 54.1574C145.378 53.9445 147.092 53.8381 148.753 53.7849C148.753 51.9758 148.699 50.1666 148.699 48.4106H135.95L116.452 52.6675L116.506 52.7207H117.256C117.256 52.7207 117.577 53.4124 118.167 54.5831C124.862 61.0216 137.557 62.139 143.557 54.7427Z" fill="#7DB3D1"/>
<path d="M153.36 47.1868L137.558 48.4638L132.362 74.271L119.131 50.6455L118.274 50.7519L102.204 58.0949L111.578 118.489C111.578 118.489 124.113 123.384 135.254 122.48V113.594L137.29 122.48C137.29 122.48 149.128 121.362 156.52 114.285L153.36 47.1868Z" fill="#4170A0"/>
<mask id="mask1_32_307" style="mask-type:luminance" maskUnits="userSpaceOnUse" x="102" y="47" width="55" height="76">
<path d="M153.36 47.1868L137.558 48.4638L132.362 74.271L119.131 50.6455L118.274 50.7519L102.204 58.0949L111.578 118.489C111.578 118.489 124.113 123.384 135.254 122.48V113.594L137.29 122.48C137.29 122.48 149.128 121.362 156.52 114.285L153.36 47.1868Z" fill="white"/>
</mask>
<g mask="url(#mask1_32_307)">
<path d="M105.793 53.0932L115.167 89.3829L99.0972 91.3516L100.758 97.3644L161.769 91.0324L161.073 85.0196L150.681 85.7113L147.36 43.7281L141.307 44.1006L143.664 86.3498L121.22 89.0104L112.489 48.7299L105.793 53.0932Z" fill="#3699F7"/>
<path d="M99.4187 103.005L162.091 96.9919L162.787 101.994L101.079 109.018L99.4187 103.005Z" fill="#3699F7"/>
</g>
<path d="M146.051 68.6724L117.617 74.501L125.314 111.554L153.748 105.726L146.051 68.6724Z" fill="#051A2D"/>
<path d="M136.092 68.4028L125.547 70.5643L126.348 74.4208L136.893 72.2593L136.092 68.4028Z" fill="#B3AA9D"/>
<path d="M135.254 86.0305C135.254 86.0305 153.574 79.1664 149.128 83.5828C149.128 83.5828 152.931 83.7957 149.556 85.8177C149.556 85.8177 152.663 86.7223 150.467 87.8397C150.467 87.8397 154.27 88.7443 148.914 90.9259C143.557 93.1607 133.058 98.0029 133.058 98.0029L135.254 86.0305Z" fill="#FFBE83"/>
<path d="M139.057 84.4342L113.989 90.2342L102.204 58.0417L105.579 95.5552L105.686 95.502L106.275 102.473C112.274 113.806 142.861 93.7461 142.861 93.7461L139.057 84.4342Z" fill="#98D5FF"/>
<path d="M136.432 21.6457C136.272 21.1136 136.218 20.8475 136.218 20.8475L115.167 24.4126C117.042 65.0123 136.004 49.9005 139.7 47.4528C142.914 45.2712 137.611 25.8493 136.432 21.6457Z" fill="#FFBE83"/>
<path d="M117.684 25.0511C117.684 25.0511 120.202 48.4106 123.63 48.6767C127.058 48.9427 124.434 44.6327 124.166 41.2804C123.898 37.8749 131.719 37.6621 135.361 37.8217C138.789 37.9813 137.343 45.6437 138.575 45.5372C139.807 45.4308 141.2 42.9831 140.128 38.0877C140.128 38.0877 147.038 45.9629 140.771 52.1886C134.504 58.4142 123.469 57.0307 119.023 52.8271C114.578 48.6234 117.256 46.2822 116.452 40.429C115.595 34.5226 115.274 33.4584 115.274 33.4584C115.274 33.4584 113.506 31.6493 112.542 33.9373L111.739 26.7539L117.684 25.0511Z" fill="#051A2D"/>
<path d="M116.238 39.4713C116.238 39.4713 116.131 32.6071 113.828 32.3943C111.524 32.1814 110.56 43.2492 116.506 42.0786L116.238 39.4713Z" fill="#FFBE83"/>
<path d="M115.221 24.7851C118.327 24.0402 121.434 23.4016 124.541 22.7631C128.612 21.9117 132.63 21.0072 136.593 19.8365C136.165 12.6531 130.112 7.06597 122.827 7.17239C115.328 7.27881 109.328 13.398 109.435 20.8475C109.435 22.6567 109.864 24.4126 110.507 25.9557C112.06 25.5833 113.614 25.1576 115.221 24.7851Z" fill="#1C6EBB"/>
<path d="M141.628 21.6988C141.736 22.2842 141.361 22.8695 140.771 23.0291L109.81 29.8401C109.221 29.9465 108.632 29.574 108.471 28.9887L107.56 24.7319C107.453 24.1465 107.828 23.5612 108.418 23.4016L139.379 16.5906C139.968 16.4842 140.557 16.8567 140.718 17.442L141.628 21.6988Z" fill="#3699F7"/>
<path d="M141.575 21.3264L108.471 28.6163L108.525 28.9887C108.632 29.5741 109.221 29.9997 109.864 29.8401L140.771 23.0292C141.361 22.9227 141.789 22.3374 141.629 21.6989L141.575 21.3264Z" fill="#1C6EBB"/>
<path d="M115.703 41.0676C115.488 41.0144 115.274 40.908 115.06 40.8016C114.953 40.7484 114.846 40.6419 114.792 40.5887C114.685 40.4823 114.631 40.3759 114.578 40.2695C114.524 40.163 114.524 40.0034 114.578 39.897C114.578 39.8438 114.631 39.7374 114.631 39.6842L114.738 39.5245C114.792 39.4713 114.792 39.4181 114.846 39.3649C114.899 39.3117 114.899 39.2585 114.953 39.2053L115.221 38.9392L115.167 39.0456C115.113 38.2475 115.006 37.4493 114.899 36.7044C114.846 36.3319 114.738 35.9062 114.685 35.5337C114.631 35.3209 114.578 35.1612 114.524 35.0016C114.471 34.842 114.363 34.6824 114.256 34.5759C114.149 34.4695 114.096 34.4695 113.935 34.5227C113.828 34.5759 113.828 34.6291 113.774 34.6824C113.721 34.7356 113.667 34.842 113.614 34.8952C113.56 35.0548 113.453 35.2145 113.399 35.4273C113.346 35.5869 113.292 35.7998 113.292 36.0126C113.185 36.8108 113.185 37.6089 113.185 38.4071C113.131 38.0346 113.078 37.6089 113.024 37.2365C112.971 36.8108 112.971 36.4383 113.024 36.0126C113.024 35.7998 113.078 35.5869 113.078 35.4273C113.131 35.2145 113.185 35.0016 113.239 34.842C113.292 34.7356 113.346 34.6291 113.399 34.5227C113.506 34.4163 113.614 34.3099 113.667 34.3099L113.721 34.2567H113.774C113.828 34.2035 113.828 34.2567 113.828 34.2035C113.881 34.2035 113.988 34.1502 114.042 34.2035C114.203 34.2035 114.31 34.3099 114.417 34.4163C114.578 34.5759 114.685 34.7888 114.792 35.0016C114.899 35.2145 114.953 35.3741 115.006 35.5869C115.113 35.9594 115.167 36.3851 115.221 36.7576C115.328 37.5557 115.381 38.3539 115.381 39.152V39.2585L115.328 39.3117L115.06 39.5245C115.006 39.5777 115.006 39.5777 114.953 39.6309C114.899 39.6841 114.846 39.6842 114.846 39.7374L114.738 39.8438C114.685 39.897 114.685 39.9502 114.685 40.0034C114.685 40.0566 114.685 40.1098 114.685 40.163C114.685 40.2163 114.685 40.2695 114.685 40.3227C114.685 40.4291 114.738 40.5355 114.792 40.5887C114.846 40.6952 114.953 40.7484 115.006 40.8548C115.274 40.8016 115.488 40.9612 115.703 41.0676Z" fill="#D87C60"/>
<path d="M130.862 37.8217C131.987 37.396 133.112 37.0768 134.236 36.7575L134.076 37.13C133.862 36.8107 133.594 36.4915 133.379 36.119C133.165 35.7997 132.951 35.4273 132.737 35.108C132.308 34.4163 131.933 33.7245 131.612 33.0328C131.29 32.2878 130.915 31.5961 130.701 30.7979L130.487 30.2126C130.433 30.053 130.38 29.8401 130.326 29.6273C130.219 29.2548 130.165 28.8291 130.058 28.4567C130.219 28.8291 130.38 29.2016 130.54 29.5209C130.701 29.8934 130.862 30.2126 131.023 30.5851L131.29 31.1172C131.344 31.2768 131.451 31.4897 131.558 31.6493L132.094 32.7135C132.308 33.0328 132.469 33.4053 132.683 33.7245L133.272 34.7355C133.487 35.0548 133.701 35.4273 133.862 35.7465C134.076 36.0658 134.29 36.4383 134.451 36.7575L134.665 37.0768L134.29 37.13C133.165 37.5025 132.04 37.7153 130.862 37.8217Z" fill="#D87C60"/>
<path d="M130.541 28.5099C130.541 28.5099 130.541 28.3503 130.648 28.1374C130.701 28.031 130.755 27.8714 130.808 27.7117C130.862 27.5521 130.969 27.3925 131.076 27.2329C131.183 27.0732 131.344 26.8604 131.505 26.7007C131.665 26.4879 131.88 26.3815 132.094 26.1686C132.308 26.009 132.522 25.8494 132.844 25.743C132.951 25.6897 133.112 25.6365 133.272 25.5833L133.701 25.4769C133.969 25.3705 134.29 25.3705 134.558 25.3705C134.826 25.3705 135.147 25.4237 135.415 25.4769C135.683 25.5301 135.951 25.6365 136.165 25.6897C136.379 25.7962 136.593 25.9026 136.754 26.009C136.915 26.1154 137.076 26.2219 137.236 26.3283C137.343 26.4347 137.451 26.5411 137.558 26.6475C137.718 26.8072 137.825 26.9136 137.825 26.9136C137.825 26.9136 137.665 26.9136 137.451 26.9136C137.343 26.9136 137.183 26.9136 137.022 26.8604C136.861 26.8072 136.701 26.8072 136.486 26.8072C136.326 26.8072 136.111 26.754 135.897 26.754C135.683 26.754 135.522 26.754 135.308 26.754C135.094 26.754 134.879 26.754 134.665 26.8072C134.451 26.8604 134.237 26.8604 134.022 26.9136L133.701 26.9668C133.594 27.02 133.487 27.02 133.38 27.0732C133.165 27.1264 133.005 27.2329 132.79 27.2861C132.63 27.3925 132.415 27.4457 132.255 27.5521C132.094 27.6585 131.88 27.7117 131.719 27.8182C131.398 27.9778 131.13 28.1906 130.915 28.2971C130.648 28.4035 130.541 28.5099 130.541 28.5099Z" fill="#051A2D"/>
<path d="M120.631 30.5851C120.631 30.5851 120.631 30.4255 120.738 30.2126C120.791 30.1062 120.845 29.9466 120.898 29.7869C120.952 29.6273 121.059 29.4677 121.166 29.308C121.273 29.1484 121.434 28.9356 121.595 28.7759C121.756 28.5631 121.97 28.4567 122.184 28.2438C122.398 28.0842 122.613 27.9246 122.934 27.8182C123.041 27.7649 123.202 27.7117 123.362 27.6585L123.791 27.5521C124.059 27.4457 124.38 27.4457 124.648 27.4457C124.916 27.4457 125.237 27.4989 125.505 27.5521C125.773 27.6053 126.041 27.7117 126.255 27.7649C126.469 27.8714 126.684 27.9778 126.844 28.0842C127.005 28.1906 127.166 28.297 127.326 28.4035C127.433 28.5099 127.541 28.6163 127.648 28.7227C127.808 28.8824 127.916 28.9888 127.916 28.9888C127.916 28.9888 127.755 28.9888 127.541 28.9888C127.433 28.9888 127.273 28.9888 127.112 28.9356C126.951 28.8824 126.791 28.8824 126.576 28.8824C126.416 28.8824 126.201 28.8292 125.987 28.8292C125.773 28.8292 125.612 28.8292 125.398 28.8292C125.184 28.8292 124.969 28.8292 124.755 28.8824C124.541 28.9356 124.327 28.9356 124.112 28.9888L123.791 29.042C123.684 29.0952 123.577 29.0952 123.47 29.1484C123.255 29.2016 123.095 29.3081 122.88 29.3613C122.72 29.4677 122.505 29.5209 122.345 29.6273C122.184 29.7337 121.97 29.7869 121.809 29.8934C121.488 30.053 121.22 30.2658 121.006 30.3723C120.791 30.5319 120.631 30.5851 120.631 30.5851Z" fill="#051A2D"/>
<path d="M126.952 32.1814C127.112 33.1392 127.005 33.9905 126.63 34.0438C126.309 34.097 125.88 33.352 125.72 32.3942C125.559 31.4364 125.666 30.5851 126.041 30.5319C126.362 30.4786 126.791 31.2236 126.952 32.1814Z" fill="#051A2D"/>
<path d="M136.54 30.5318C136.7 31.4896 136.593 32.341 136.218 32.3942C135.897 32.4474 135.468 31.7025 135.308 30.7447C135.147 29.7869 135.254 28.9355 135.629 28.8823C135.95 28.8291 136.379 29.5741 136.54 30.5318Z" fill="#051A2D"/>
<path d="M125.505 40.908C125.505 40.908 130.433 40.5355 135.843 40.1099C135.843 40.1099 131.665 45.3777 125.505 40.908Z" fill="white"/>
</svg>
