<svg width="25" height="24" viewBox="0 0 25 24" fill="none" xmlns="http://www.w3.org/2000/svg">
<g clip-path="url(#clip0_179_1446)">
<path d="M6.125 24.0001H18.875C19.4717 24.0001 20.044 23.763 20.466 23.3411C20.8879 22.9191 21.125 22.3468 21.125 21.7501V3.75006C21.125 3.15332 20.8879 2.58103 20.466 2.15907C20.044 1.73711 19.4717 1.50006 18.875 1.50006H17.2438C17.0888 1.0618 16.8019 0.682283 16.4225 0.413685C16.0431 0.145087 15.5898 0.000592174 15.125 6.10352e-05L9.875 6.10352e-05C9.41015 0.000592174 8.95688 0.145087 8.57748 0.413685C8.19809 0.682283 7.9112 1.0618 7.75625 1.50006H6.125C5.52826 1.50006 4.95597 1.73711 4.53401 2.15907C4.11205 2.58103 3.875 3.15332 3.875 3.75006V21.7501C3.875 22.3468 4.11205 22.9191 4.53401 23.3411C4.95597 23.763 5.52826 24.0001 6.125 24.0001ZM9.875 1.50006H15.125C15.3239 1.50006 15.5147 1.57908 15.6553 1.71973C15.796 1.86038 15.875 2.05115 15.875 2.25006C15.875 2.44897 15.796 2.63974 15.6553 2.78039C15.5147 2.92104 15.3239 3.00006 15.125 3.00006H9.875C9.67609 3.00006 9.48532 2.92104 9.34467 2.78039C9.20402 2.63974 9.125 2.44897 9.125 2.25006C9.125 2.05115 9.20402 1.86038 9.34467 1.71973C9.48532 1.57908 9.67609 1.50006 9.875 1.50006ZM5.375 3.75006C5.375 3.55115 5.45402 3.36038 5.59467 3.21973C5.73532 3.07908 5.92609 3.00006 6.125 3.00006H7.75625C7.9112 3.43833 8.19809 3.81784 8.57748 4.08644C8.95688 4.35503 9.41015 4.49953 9.875 4.50006H15.125C15.5898 4.49953 16.0431 4.35503 16.4225 4.08644C16.8019 3.81784 17.0888 3.43833 17.2438 3.00006H18.875C19.0739 3.00006 19.2647 3.07908 19.4053 3.21973C19.546 3.36038 19.625 3.55115 19.625 3.75006V21.7501C19.625 21.949 19.546 22.1397 19.4053 22.2804C19.2647 22.421 19.0739 22.5001 18.875 22.5001H6.125C5.92609 22.5001 5.73532 22.421 5.59467 22.2804C5.45402 22.1397 5.375 21.949 5.375 21.7501V3.75006Z" fill="#A3A3A5"/>
<path d="M10.6251 17.0138C10.697 17.0904 10.7843 17.151 10.8812 17.1917C10.9781 17.2324 11.0825 17.2523 11.1876 17.2501H11.2251C11.3342 17.2444 11.4407 17.2149 11.5372 17.1637C11.6337 17.1126 11.7179 17.0409 11.7838 16.9538L17.7838 9.07882C17.8939 8.92008 17.9385 8.72498 17.9083 8.53418C17.8781 8.34338 17.7754 8.17159 17.6217 8.0546C17.468 7.93761 17.275 7.88445 17.0831 7.9062C16.8911 7.92794 16.715 8.02291 16.5913 8.17133L11.1276 15.3413L8.92256 12.9863C8.78631 12.8411 8.59795 12.756 8.39893 12.7497C8.19991 12.7433 8.00652 12.8163 7.86131 12.9526C7.71611 13.0888 7.63098 13.2772 7.62465 13.4762C7.61832 13.6752 7.69131 13.8686 7.82756 14.0138L10.6251 17.0138Z" fill="#A3A3A5"/>
</g>
<defs>
<clipPath id="clip0_179_1446">
<rect width="24" height="24" fill="white" transform="translate(0.5 6.10352e-05)"/>
</clipPath>
</defs>
</svg>
