<svg width="25" height="24" viewBox="0 0 25 24" fill="none" xmlns="http://www.w3.org/2000/svg">
<path d="M19.5703 12.9867H17.6126C17.3461 12.9867 17.0882 13.024 16.8427 13.0926C16.3584 12.1167 15.3696 11.4461 14.2303 11.4461H10.7697C9.63039 11.4461 8.64164 12.1167 8.15734 13.0926C7.91184 13.024 7.65387 12.9867 7.38742 12.9867H5.42969C3.81426 12.9867 2.5 14.3339 2.5 15.9899V19.1981C2.5 20.1917 3.28855 21 4.25781 21H20.7422C21.7114 21 22.5 20.1917 22.5 19.1981V15.9899C22.5 14.3339 21.1857 12.9867 19.5703 12.9867ZM7.84004 14.4494V19.7988H4.25781C3.93473 19.7988 3.67188 19.5293 3.67188 19.1981V15.9899C3.67188 14.9963 4.46043 14.188 5.42969 14.188H7.38742C7.54648 14.188 7.70051 14.2101 7.84715 14.2509C7.84293 14.3167 7.84004 14.3827 7.84004 14.4494ZM15.9881 19.7988H9.01191V14.4494C9.01191 13.4558 9.80047 12.6474 10.7697 12.6474H14.2303C15.1995 12.6474 15.9881 13.4558 15.9881 14.4494V19.7988ZM21.3281 19.1981C21.3281 19.5293 21.0653 19.7988 20.7422 19.7988H17.16V14.4494C17.16 14.3826 17.1571 14.3166 17.1529 14.2509C17.2995 14.2101 17.4535 14.188 17.6126 14.188H19.5703C20.5396 14.188 21.3281 14.9963 21.3281 15.9899V19.1981Z" fill="#A3A3A5"/>
<path d="M6.4086 7.31464C4.97309 7.31464 3.80524 8.51181 3.80524 9.98336C3.8052 11.4549 4.97309 12.6521 6.4086 12.6521C7.84406 12.6521 9.01196 11.4549 9.01196 9.98336C9.01196 8.51181 7.8441 7.31464 6.4086 7.31464ZM6.40856 11.4508C5.61922 11.4508 4.97707 10.7925 4.97707 9.98336C4.97707 9.17421 5.61922 8.51593 6.40856 8.51593C7.19789 8.51593 7.84004 9.17421 7.84004 9.98336C7.84004 10.7925 7.19789 11.4508 6.40856 11.4508Z" fill="#A3A3A5"/>
<path d="M12.5 4.00006C10.5822 4.00006 9.02196 5.59947 9.02196 7.56544C9.02196 9.5314 10.5822 11.1308 12.5 11.1308C14.4178 11.1308 15.9781 9.5314 15.9781 7.56544C15.9781 5.59951 14.4178 4.00006 12.5 4.00006ZM12.5 9.92951C11.2284 9.92951 10.1938 8.869 10.1938 7.56544C10.1938 6.26191 11.2284 5.20136 12.5 5.20136C13.7716 5.20136 14.8062 6.26187 14.8062 7.56544C14.8062 8.869 13.7716 9.92951 12.5 9.92951Z" fill="#A3A3A5"/>
<path d="M18.5914 7.31464C17.1559 7.31464 15.988 8.51181 15.988 9.98336C15.9881 11.4549 17.1559 12.6521 18.5914 12.6521C20.0269 12.6521 21.1948 11.4549 21.1948 9.98336C21.1948 8.51181 20.0269 7.31464 18.5914 7.31464ZM18.5914 11.4508C17.8021 11.4508 17.1599 10.7925 17.1599 9.98336C17.16 9.17421 17.8021 8.51593 18.5914 8.51593C19.3807 8.51593 20.0229 9.17421 20.0229 9.98336C20.0229 10.7925 19.3807 11.4508 18.5914 11.4508Z" fill="#A3A3A5"/>
</svg>
