<svg width="25" height="24" viewBox="0 0 25 24" fill="none" xmlns="http://www.w3.org/2000/svg">
<g clip-path="url(#clip0_179_1230)">
<path d="M24.434 10.85L20.8682 5.66452C20.45 5.0529 19.7567 4.68765 19.0138 4.68765H15.1251C14.9181 4.68765 14.7501 4.85565 14.7501 5.06265V15.1875C14.7501 15.3945 14.9181 15.5625 15.1251 15.5625H17.2064C17.0423 15.9037 16.9502 16.2851 16.9502 16.6875C16.9502 17.6414 17.4666 18.4779 18.2368 18.9375H6.76347C7.53367 18.4779 8.05004 17.6414 8.05004 16.6875C8.05004 16.2851 7.95793 15.9037 7.79391 15.5625H14.0001C14.2071 15.5625 14.3751 15.3945 14.3751 15.1875V12.9376C14.3751 12.7306 14.2071 12.5626 14.0001 12.5626H1.62522C1.41823 12.5626 1.25023 12.7306 1.25023 12.9376V15.1875C1.25023 15.3945 1.41823 15.5625 1.62522 15.5625H3.00643C2.84237 15.9037 2.75021 16.2851 2.75021 16.6875C2.75021 17.6414 3.26658 18.4779 4.03687 18.9375H0.875231C0.668233 18.9375 0.500235 19.1055 0.500235 19.3125C0.500235 19.5195 0.668233 19.6875 0.875231 19.6875H24.125C24.332 19.6875 24.5 19.5195 24.5 19.3125C24.5 19.1055 24.332 18.9375 24.125 18.9375H20.9634C21.7337 18.4779 22.25 17.6414 22.25 16.6875C22.25 16.2851 22.1579 15.9037 21.9938 15.5625H24.125C24.332 15.5625 24.5 15.3945 24.5 15.1875V13.6876V11.8126V11.0626C24.5 10.9868 24.4767 10.9126 24.434 10.85ZM2.00022 13.3126H13.6251V14.8126H7.25237C6.77434 14.3491 6.12068 14.0626 5.40036 14.0626C4.68004 14.0626 4.02628 14.3491 3.54816 14.8126H2.00022V13.3126ZM3.50021 16.6875C3.50021 16.2213 3.67392 15.7947 3.96033 15.4663C3.97954 15.449 3.99698 15.4298 4.01231 15.409C4.35937 15.0424 4.853 14.8126 5.40036 14.8126C5.95343 14.8126 6.45199 15.0472 6.79947 15.4208C6.80894 15.4327 6.81897 15.444 6.82975 15.4547C7.1222 15.7846 7.30004 16.2158 7.30004 16.6876C7.30004 17.7214 6.44768 18.5626 5.40031 18.5626C4.35257 18.5625 3.50021 17.7214 3.50021 16.6875ZM19.5999 18.5625C18.5526 18.5625 17.7002 17.7214 17.7002 16.6875C17.7002 16.2158 17.878 15.7845 18.1705 15.4546C18.1813 15.444 18.1913 15.4327 18.2008 15.4208C18.5483 15.0472 19.0469 14.8125 19.5999 14.8125C20.1472 14.8125 20.6409 15.0423 20.9879 15.4089C21.0033 15.4298 21.0206 15.449 21.0399 15.4663C21.3263 15.7946 21.5 16.2213 21.5 16.6875C21.5 17.7214 20.6477 18.5625 19.5999 18.5625ZM21.452 14.8126C20.9738 14.3491 20.3201 14.0626 19.5999 14.0626C18.8798 14.0626 18.2261 14.3491 17.7481 14.8126H15.5001V5.43765H19.0138C19.5088 5.43765 19.9708 5.68064 20.2498 6.08901L23.75 11.1792V11.4376H22.25C22.043 11.4376 21.875 11.6056 21.875 11.8126V13.6876C21.875 13.8946 22.043 14.0626 22.25 14.0626H23.75V14.8126H21.452ZM23.75 13.3126H22.625V12.1876H23.75V13.3126Z" fill="#A3A3A5"/>
<path d="M19.1316 6.33162C19.0603 6.24087 18.9516 6.18762 18.8361 6.18762H16.6251C16.4181 6.18762 16.2501 6.35562 16.2501 6.56262V9.56259C16.2501 9.76959 16.4181 9.93759 16.6251 9.93759H20.375C20.582 9.93759 20.75 9.76959 20.75 9.56259V8.52835C20.75 8.44472 20.7219 8.36335 20.6705 8.29735L19.1316 6.33162ZM20 9.18759H17.0001V6.93761H18.6534L20 8.65772V9.18759Z" fill="#A3A3A5"/>
<path d="M2.39209 11.9243C2.44122 12.0811 2.58596 12.1876 2.75021 12.1876H12.1251C12.2894 12.1876 12.4341 12.0811 12.4832 11.9247L14.3582 5.92476C14.3938 5.81076 14.3732 5.68701 14.3024 5.59063C14.2315 5.49426 14.1194 5.43764 14.0001 5.43764H13.0489L9.03628 0.695432C8.96503 0.611433 8.8604 0.562683 8.75053 0.562683H8.75015C8.64028 0.562683 8.53566 0.611058 8.46441 0.694682L5.90365 3.70473L4.90719 2.56591C4.76469 2.40317 4.48532 2.40317 4.34282 2.56591L1.83007 5.43764H0.875231C0.755982 5.43764 0.643858 5.49389 0.572984 5.59026C0.50211 5.68663 0.481485 5.81038 0.51711 5.92438L2.39209 11.9243ZM8.7494 1.51742L12.0667 5.43764H7.41995L6.40305 4.27548L8.7494 1.51742ZM4.62519 3.38228L5.62545 4.52536C5.62939 4.52986 5.63304 4.5345 5.63722 4.53882L6.42372 5.43764H2.82657L4.62519 3.38228ZM13.4897 6.18763L11.8491 11.4376H3.02584L1.38523 6.18763H13.4897Z" fill="#A3A3A5"/>
<path d="M5.40031 17.8125C6.03443 17.8125 6.55005 17.3078 6.55005 16.6875C6.55005 16.0673 6.03443 15.5625 5.40031 15.5625C4.76619 15.5625 4.2502 16.0673 4.2502 16.6875C4.2502 17.3078 4.76619 17.8125 5.40031 17.8125ZM5.40031 16.3125C5.62081 16.3125 5.80006 16.4809 5.80006 16.6875C5.80006 16.8941 5.62081 17.0625 5.40031 17.0625C5.17981 17.0625 5.00019 16.8941 5.00019 16.6875C5.00019 16.4809 5.17981 16.3125 5.40031 16.3125Z" fill="#A3A3A5"/>
<path d="M19.5999 15.5625C18.9658 15.5625 18.4502 16.0673 18.4502 16.6875C18.4502 17.3078 18.9658 17.8125 19.5999 17.8125C20.234 17.8125 20.75 17.3078 20.75 16.6875C20.75 16.0673 20.234 15.5625 19.5999 15.5625ZM19.5999 17.0625C19.3798 17.0625 19.2002 16.8941 19.2002 16.6875C19.2002 16.4809 19.3794 16.3125 19.5999 16.3125C19.8208 16.3125 20 16.4809 20 16.6875C20 16.8941 19.8204 17.0625 19.5999 17.0625Z" fill="#A3A3A5"/>
<path d="M4.1737 10.4243C4.22395 10.5848 4.3717 10.6876 4.53145 10.6876C4.56857 10.6876 4.60607 10.682 4.64357 10.6703C4.84119 10.6085 4.95144 10.3981 4.88957 10.2005L3.95208 7.2005C3.8902 7.00288 3.67945 6.89376 3.48221 6.95451C3.28458 7.01638 3.17433 7.22675 3.23621 7.42438L4.1737 10.4243Z" fill="#A3A3A5"/>
<path d="M6.42368 10.4243C6.47393 10.5848 6.62167 10.6876 6.78142 10.6876C6.81855 10.6876 6.85605 10.682 6.89355 10.6703C7.09117 10.6085 7.20142 10.3981 7.13954 10.2005L6.20205 7.2005C6.14018 7.00288 5.92906 6.89376 5.73218 6.95451C5.53456 7.01638 5.42431 7.22675 5.48619 7.42438L6.42368 10.4243Z" fill="#A3A3A5"/>
<path d="M8.67366 10.4243C8.7239 10.5848 8.87165 10.6876 9.0314 10.6876C9.06853 10.6876 9.10603 10.682 9.14353 10.6703C9.34115 10.6085 9.4514 10.3981 9.38952 10.2005L8.45203 7.2005C8.39016 7.00288 8.17941 6.89376 7.98216 6.95451C7.78454 7.01638 7.67429 7.22675 7.73616 7.42438L8.67366 10.4243Z" fill="#A3A3A5"/>
<path d="M10.9236 10.4243C10.9739 10.5848 11.1216 10.6876 11.2814 10.6876C11.3185 10.6876 11.356 10.682 11.3935 10.6703C11.5911 10.6085 11.7014 10.3981 11.6395 10.2005L10.702 7.2005C10.6401 7.00288 10.429 6.89376 10.2321 6.95451C10.0345 7.01638 9.92427 7.22675 9.98614 7.42438L10.9236 10.4243Z" fill="#A3A3A5"/>
<path d="M17.3751 10.3126H16.6251C16.4181 10.3126 16.2501 10.4806 16.2501 10.6876C16.2501 10.8946 16.4181 11.0626 16.6251 11.0626H17.3751C17.5821 11.0626 17.7501 10.8946 17.7501 10.6876C17.7501 10.4806 17.5821 10.3126 17.3751 10.3126Z" fill="#A3A3A5"/>
<path d="M24.125 22.6875H0.875231C0.668233 22.6875 0.500235 22.8555 0.500235 23.0625C0.500235 23.2695 0.668233 23.4375 0.875231 23.4375H24.125C24.332 23.4375 24.5 23.2695 24.5 23.0625C24.5 22.8555 24.332 22.6875 24.125 22.6875Z" fill="#A3A3A5"/>
<path d="M22.5163 21.8287C22.5838 21.7575 22.625 21.66 22.625 21.5625C22.625 21.465 22.5838 21.3675 22.5163 21.2962C22.3775 21.1575 22.1225 21.1575 21.9838 21.2962C21.9163 21.3675 21.875 21.465 21.875 21.5625C21.875 21.66 21.9163 21.7579 21.9838 21.8287C22.055 21.8962 22.1525 21.9375 22.25 21.9375C22.3475 21.9375 22.445 21.8962 22.5163 21.8287Z" fill="#A3A3A5"/>
<path d="M19.1413 21.0787C19.2088 21.0075 19.2501 20.91 19.2501 20.8125C19.2501 20.715 19.2088 20.6175 19.1413 20.5462C19.0026 20.4075 18.7476 20.4075 18.6088 20.5462C18.5413 20.6175 18.5001 20.715 18.5001 20.8125C18.5001 20.91 18.5413 21.0079 18.6088 21.0787C18.6801 21.1462 18.7776 21.1875 18.8751 21.1875C18.9726 21.1875 19.0701 21.1462 19.1413 21.0787Z" fill="#A3A3A5"/>
<path d="M14.2664 21.4537C14.3338 21.3825 14.3751 21.285 14.3751 21.1875C14.3751 21.09 14.3338 20.9925 14.2664 20.9212C14.1276 20.7825 13.8726 20.7825 13.7339 20.9212C13.6664 20.9925 13.6251 21.09 13.6251 21.1875C13.6251 21.2887 13.6664 21.3825 13.7339 21.4537C13.8051 21.5212 13.9026 21.5625 14.0001 21.5625C14.0976 21.5625 14.1951 21.5212 14.2664 21.4537Z" fill="#A3A3A5"/>
<path d="M10.5164 21.8287C10.5839 21.7575 10.6251 21.66 10.6251 21.5625C10.6251 21.465 10.5839 21.3675 10.5164 21.2962C10.3776 21.1575 10.1226 21.1575 9.98389 21.2962C9.91639 21.3675 9.87514 21.4612 9.87514 21.5625C9.87514 21.6637 9.91639 21.7575 9.98389 21.8287C10.0551 21.8962 10.1526 21.9375 10.2501 21.9375C10.3476 21.9375 10.4451 21.8962 10.5164 21.8287Z" fill="#A3A3A5"/>
<path d="M6.39143 21.0787C6.45893 21.0075 6.50018 20.91 6.50018 20.8125C6.50018 20.715 6.45893 20.6175 6.39143 20.5462C6.25268 20.4075 6.00143 20.4075 5.85893 20.5462C5.79143 20.6175 5.75018 20.715 5.75018 20.8125C5.75018 20.91 5.79143 21.0079 5.85893 21.0787C5.93018 21.1462 6.02768 21.1875 6.12518 21.1875C6.22643 21.1875 6.32018 21.1462 6.39143 21.0787Z" fill="#A3A3A5"/>
<path d="M3.01646 21.0787C3.08396 21.0075 3.12521 20.91 3.12521 20.8125C3.12521 20.715 3.08396 20.6175 3.01646 20.5462C2.87396 20.4075 2.62271 20.4075 2.48397 20.5462C2.41647 20.6175 2.37522 20.715 2.37522 20.8125C2.37522 20.91 2.41647 21.0079 2.48397 21.0787C2.55521 21.1462 2.65271 21.1875 2.75021 21.1875C2.84771 21.1875 2.94521 21.1462 3.01646 21.0787Z" fill="#A3A3A5"/>
</g>
<defs>
<clipPath id="clip0_179_1230">
<rect width="24" height="24" fill="white" transform="translate(0.5 6.10352e-05)"/>
</clipPath>
</defs>
</svg>
