<svg width="24" height="24" viewBox="0 0 24 24" fill="none" xmlns="http://www.w3.org/2000/svg">
<path d="M19.7136 14.2034C19.8967 14.3903 19.8967 14.6933 19.7136 14.8802L17.0846 17.5642C16.9967 17.6539 16.8775 17.7044 16.7532 17.7044C16.6289 17.7044 16.5096 17.654 16.4217 17.5642L14.8237 15.9327C14.6406 15.7458 14.6406 15.4428 14.8237 15.2559C15.0068 15.069 15.3036 15.069 15.4866 15.2559L16.7532 16.549L19.0507 14.2034C19.2338 14.0165 19.5306 14.0165 19.7136 14.2034ZM22 15.8838C22 18.5472 19.8775 20.7141 17.2686 20.7141C16.7898 20.7141 16.3276 20.6409 15.8916 20.5052C13.9132 21.4986 11.909 22 9.9223 22C9.6396 22 9.35751 21.9899 9.07563 21.9696C6.80577 21.8059 4.51287 20.9782 2.26063 19.5091C2.1393 19.43 2.06031 19.2983 2.04645 19.152C1.85589 17.1431 2.25567 15.1832 3.17223 13.6333C4.04348 12.16 5.34075 11.0886 6.9525 10.5012C6.32134 9.73542 5.87734 8.83757 5.65885 7.87372C5.40818 6.76777 5.47853 5.63139 5.85691 4.67392C6.51744 3.00266 8.00391 2.02808 9.93523 2.00008L9.94187 2L9.94851 2.00008C11.8798 2.02812 13.3663 3.0027 14.0268 4.67396C14.4052 5.63139 14.4755 6.76777 14.2249 7.87372C14.0064 8.83765 13.5623 9.73558 12.931 10.5015C13.6908 10.7781 14.3812 11.1625 14.9929 11.65C15.6685 11.27 16.4442 11.0534 17.2686 11.0534C19.8775 11.0534 22 13.2203 22 15.8838ZM8.0016 10.2538C8.656 10.9164 9.3088 11.2523 9.94187 11.2523C10.5749 11.2523 11.2277 10.9164 11.8821 10.2538C13.2862 8.83219 13.8107 6.68494 13.1574 5.03202C12.6382 3.71841 11.4965 2.98172 9.94187 2.95715C8.38724 2.98172 7.24548 3.71841 6.72632 5.03202C6.07309 6.68498 6.59748 8.83223 8.0016 10.2538ZM14.7662 19.9813C13.4288 19.1269 12.5372 17.6097 12.5372 15.8838C12.5372 14.4235 13.1753 13.1126 14.1816 12.2262C13.5932 11.802 12.9262 11.4793 12.1904 11.2629C11.4618 11.8912 10.7071 12.2095 9.94187 12.2095C9.17661 12.2095 8.42197 11.8912 7.69339 11.2629C4.52803 12.1964 2.6937 15.1254 2.96023 18.828C6.92613 21.3467 10.7981 21.7263 14.7662 19.9813ZM21.0625 15.8838C21.0625 13.7481 19.3606 12.0105 17.2686 12.0105C15.1767 12.0105 13.4748 13.748 13.4748 15.8838C13.4748 18.0195 15.1767 19.757 17.2686 19.757C19.3606 19.757 21.0625 18.0194 21.0625 15.8838Z" fill="#1C6EBB"/>
</svg>
