<svg width="24" height="24" viewBox="0 0 24 24" fill="none" xmlns="http://www.w3.org/2000/svg">
<path d="M17.4976 10.9911C17.4976 12.4491 16.9184 13.8475 15.8874 14.8785C14.8564 15.9094 13.458 16.4886 12 16.4886C10.542 16.4886 9.14363 15.9094 8.11264 14.8785C7.08165 13.8475 6.50244 12.4491 6.50244 10.9911V9H5.37744V10.9911C5.37985 12.649 6.00349 14.2458 7.12532 15.4664C8.24715 16.6871 9.78572 17.4431 11.4375 17.5852V21.375H8.67426V22.5H15.3257V21.375H12.5625V17.5852C14.2143 17.4431 15.7529 16.6871 16.8747 15.4664C17.9965 14.2458 18.6202 12.649 18.6226 10.9911V9H17.4976V10.9911Z" fill="#1C6EBB"/>
<path d="M12 15.3644C13.159 15.3631 14.2702 14.9021 15.0897 14.0826C15.9093 13.2631 16.3703 12.1519 16.3716 10.9929V5.87146C16.3716 4.71203 15.9111 3.60008 15.0912 2.78024C14.2714 1.9604 13.1594 1.49982 12 1.49982C10.8406 1.49982 9.72862 1.9604 8.90878 2.78024C8.08894 3.60008 7.62836 4.71203 7.62836 5.87146V10.9929C7.62969 12.1519 8.0907 13.2631 8.91026 14.0826C9.72982 14.9021 10.841 15.3631 12 15.3644ZM8.75336 5.87146C8.75336 5.0104 9.09541 4.1846 9.70428 3.57574C10.3131 2.96687 11.1389 2.62482 12 2.62482C12.8611 2.62482 13.6869 2.96687 14.2957 3.57574C14.9046 4.1846 15.2466 5.0104 15.2466 5.87146V10.9929C15.2466 11.854 14.9046 12.6798 14.2957 13.2886C13.6869 13.8975 12.8611 14.2396 12 14.2396C11.1389 14.2396 10.3131 13.8975 9.70428 13.2886C9.09541 12.6798 8.75336 11.854 8.75336 10.9929V5.87146Z" fill="#1C6EBB"/>
</svg>
